<?xml version="1.0" encoding="utf-8"?>
<!DOCTYPE svg PUBLIC "-//W3C//DTD SVG 1.1//EN" "http://www.w3.org/Graphics/SVG/1.1/DTD/svg11.dtd">
<svg version="1.1" xmlns="http://www.w3.org/2000/svg" xmlns:xlink="http://www.w3.org/1999/xlink" xmlns:ev="http://www.w3.org/2001/xml-events" width="550.0px" height="400.0px" overflow="visible" viewBox="0.0 0.0 550.0 400.0" enable-background="new 0.0 0.0 550.0 400.0">
	<defs/>
	<rect width="550.0px" height="400.0px" x="0px" y="0px" fill="#FFFFFF"/>
	<g>
		<g transform="matrix(1.0 0.0 0.0 1.0 0.0 0.0)">
			<path fill="#ADADAD" stroke-linecap="round" stroke-linejoin="round" d="M 596.0 137.7 L 596.0 138.6 C 594.86664 140.53334 594.0833 143.53334 593.65 147.6 C 593.3167 150.76668 593.25006 153.86667 593.45 156.9 L 593.3 157.25 C 589.3333 151.78334 587.14996 146.45001 586.75 141.25 L 586.65 145.4 C 586.51666 148.46666 586.2167 151.2 585.75 153.6 C 582.31665 150.43333 580.01666 146.3 578.85 141.2 C 578.2833 138.8 577.7833 134.01666 577.35 126.85 C 576.25 128.75 575.4167 131.33334 574.85 134.6 C 574.35 137.53334 574.1333 140.40001 574.2 143.2 C 571.9 137.53333 570.5333 131.11665 570.1 123.95 C 569.6667 117.049995 570.13336 110.46666 571.5 104.2 C 569.8333 106.23333 568.55 109.1 567.65 112.8 C 567.15 114.9 566.5 118.083336 565.7 122.35 L 566.1 101.95 C 566.26666 93.95 567.0833 87.15 568.55 81.55 C 565.8833 83.85 563.9166 86.13333 562.65 88.4 L 561.7 90.35 L 563.2 80.8 C 564.3334 74.53333 566.4834 69.48333 569.65 65.65 C 566.18335 67.95 563.60004 69.76666 561.9 71.1 C 559.26666 73.23334 557.01666 75.50001 555.15 77.9 C 558.61664 69.6 561.5333 63.583332 563.9 59.85 C 568.1667 52.983334 572.9 48.566666 578.1 46.6 L 568.75 49.7 C 565.61664 50.86667 562.85 52.283337 560.45 53.95 C 562.15 52.683334 564.0667 50.75 566.2 48.15 L 572.3 40.45 C 577.5 34.15 582.5333 31.033335 587.4 31.1 L 579.55 30.35 L 571.7 30.75 C 574.8667 29.016666 579.63336 27.933332 586.0 27.5 C 589.6667 27.233334 592.9 27.25 595.7 27.55 C 598.3334 28.35 600.7334 28.85 602.9 29.05 C 606.3 30.016666 609.7833 31.65 613.35 33.95 C 616.95 36.316666 620.3667 39.199997 623.6 42.6 C 626.3 45.43333 628.51666 47.916664 630.25 50.05 C 631.35004 51.083332 634.18335 52.466667 638.75 54.2 C 641.38336 55.2 644.10004 56.600002 646.9 58.4 C 648.73334 59.56667 651.2 61.333336 654.3 63.7 C 659.9 68.0 666.55005 73.51666 674.25 80.25 C 684.01666 88.75 689.5333 94.183334 690.8 96.55 L 691.65 97.4 C 691.8167 100.8 691.05005 104.15 689.35 107.45 C 687.61664 110.88333 685.3 113.416664 682.4 115.05 L 683.25 116.7 C 685.48334 117.76667 684.7 120.65 680.9 125.35 C 677.73334 129.25 674.6 132.25 671.5 134.35 L 673.2 136.85 C 674.3334 140.61667 673.18335 145.3 669.75 150.9 C 666.11664 156.83333 661.94995 159.98334 657.25 160.35 C 647.5833 161.15001 637.0 158.93333 625.5 153.7 C 621.5333 151.86667 616.6 149.28334 610.7 145.95 L 596.0 137.7 Z M 595.7 27.55 L 595.35 27.45 L 596.4 27.6 L 595.7 27.55 Z M 581.35 280.1 L 584.25 289.6 C 584.7167 293.93335 583.01666 299.18335 579.15 305.35 L 568.95 319.5 L 561.25 330.45 C 558.64996 334.35 556.5166 338.08334 554.85 341.65 L 554.85 339.95 C 553.7833 344.71667 551.88336 351.73334 549.15 361.0 C 546.18335 371.16666 544.13336 378.55 543.0 383.15 C 538.60004 400.88333 537.5167 415.43332 539.75 426.8 C 540.85004 432.53333 542.85004 439.38333 545.75 447.35 L 553.05 467.4 L 555.6 478.0 C 556.6667 482.46667 558.05005 485.75 559.75 487.85 C 561.7833 490.35 564.7 492.01666 568.5 492.85 L 578.6 494.75 C 587.5 497.35 592.6667 502.9 594.1 511.4 C 595.36664 519.06665 593.48334 526.81665 588.45 534.65 L 587.35 535.5 C 582.9167 540.56665 574.5834 542.14996 562.35 540.25 C 552.81665 538.75 544.2833 536.0333 536.75 532.1 C 529.48334 528.3 523.51666 521.2 518.85 510.8 C 517.45 507.69998 515.7 503.16666 513.6 497.2 C 511.43332 490.96667 509.78333 486.56668 508.65 484.0 C 501.41666 467.86667 496.05 455.63333 492.55 447.3 C 486.48334 432.8 482.08334 420.23334 479.35 409.6 L 479.35 407.95 C 474.05 393.71667 469.65 378.31668 466.15 361.75 L 463.2 346.4 C 461.53336 336.8333 459.93335 326.11664 458.4 314.25 L 456.75 317.7 L 455.15 321.25 C 454.98334 318.75 455.1667 315.41666 455.7 311.25 C 456.23334 306.65 456.5 303.38333 456.5 301.45 C 454.19998 302.71667 452.18332 304.53333 450.45 306.9 C 448.55002 309.5 447.55002 312.05 447.45 314.55 C 447.35 311.28333 447.75 307.65 448.65 303.65 C 449.15 301.31665 450.11667 297.78333 451.55 293.05 C 449.71664 293.48334 448.01666 294.86667 446.45 297.2 L 445.15 299.6 L 449.25 290.0 C 451.85 284.30002 454.6 280.25003 457.5 277.85 C 423.30002 277.98334 389.31668 278.46667 355.55 279.3 C 288.05 280.96664 255.44998 283.56665 257.75 287.1 C 263.05002 295.1 267.55002 305.31668 271.25 317.75 C 274.38333 328.31668 276.38333 338.73334 277.25 349.0 L 277.7 356.85 C 278.13333 371.28333 276.16666 383.63333 271.8 393.9 C 266.83334 405.6 258.96667 413.80002 248.2 418.5 C 242.66666 420.9 235.84999 421.51666 227.75 420.35 C 224.38333 419.85 217.59999 418.23334 207.4 415.5 L 207.4 420.5 C 205.96666 436.4 205.66666 448.01666 206.5 455.35 C 208.40001 472.25 214.86667 481.56665 225.9 483.3 L 231.75 483.7 L 238.75 483.85 L 244.9 484.45 C 249.09999 485.48334 252.79999 488.63333 256.0 493.9 C 258.73334 498.43335 260.36667 503.25003 260.9 508.35 C 261.56665 514.65 259.96664 518.93335 256.1 521.2 L 254.4 524.6 L 225.1 526.85 C 213.8 526.6833 204.46667 524.36664 197.1 519.9 C 184.40001 512.2 174.81668 498.13333 168.35 477.7 C 163.05 460.93332 160.68333 443.59998 161.25 425.7 C 161.55 416.43332 163.6 407.9 167.4 400.1 C 169.0 396.83334 173.61667 389.45 181.25 377.95 C 186.28334 370.38333 188.85 362.93332 188.95 355.6 C 189.01666 349.73334 187.33333 341.71667 183.9 331.55 L 180.55 324.85 C 178.05 315.95 176.3 310.05002 175.3 307.15 C 173.0 300.48334 170.51666 295.21667 167.85 291.35 C 160.78334 281.18335 151.03334 278.9167 138.6 284.55 L 141.2 283.8 C 134.03333 290.1 123.149994 300.45 108.55 314.85 C 95.15 327.05 82.85 335.34998 71.65 339.75 C 58.083332 345.08334 44.783333 345.46667 31.75 340.9 C 18.016666 336.1 8.616666 326.98334 3.55 313.55 C -4.45 292.31668 1.1166673 265.1 20.25 231.9 C 27.016666 220.2 36.88333 207.63333 49.85 194.2 C 65.08333 179.3 76.38333 167.91667 83.75 160.05 C 91.316666 152.01666 96.799995 145.9 100.2 141.7 C 105.933334 134.7 110.05 128.41666 112.55 122.85 C 118.75 109.08333 116.183334 97.299995 104.85 87.5 C 106.21667 86.6 107.48334 85.51666 108.65 84.25 C 110.316666 82.416664 111.416664 80.46667 111.95 78.4 C 122.85 86.2 128.36667 95.26666 128.5 105.6 C 128.59999 115.53333 123.56666 127.916664 113.4 142.75 C 107.5 151.38333 97.25 162.81667 82.65 177.05 C 64.65 194.55 52.933334 206.43333 47.5 212.7 C 35.233334 226.83333 27.0 240.2 22.8 252.8 C 17.633333 268.36667 17.883333 284.2 23.55 300.3 C 32.05 324.4 49.966667 323.08334 77.3 296.35 C 86.13334 287.71667 96.23334 276.06668 107.6 261.4 C 118.36667 247.03334 125.066666 238.25002 127.7 235.05 L 139.45 218.25 C 139.51666 218.18333 141.88333 216.36667 146.55 212.8 C 150.78333 209.56667 152.83333 207.68333 152.7 207.15 C 160.03333 202.21666 168.13333 197.73332 177.0 193.7 C 183.40001 190.76666 192.01668 187.31667 202.85 183.35 C 215.65001 178.61667 223.98334 175.66667 227.85 174.5 C 237.18333 171.66667 245.83333 170.05 253.8 169.65 C 260.43335 169.31667 269.1 169.83333 279.8 171.2 L 305.55 173.85 C 313.78333 174.15001 322.4 173.20001 331.4 171.0 C 339.8333 168.93333 347.96664 165.93333 355.8 162.0 L 372.35 153.0 L 379.3 149.3 L 378.7 150.0 C 383.13333 148.73334 388.53333 146.55 394.9 143.45 L 410.65 135.8 C 408.78333 141.46667 404.48334 148.23334 397.75 156.1 C 388.91666 166.40001 383.69998 172.81668 382.1 175.35 L 395.1 166.65 C 400.5 162.98332 405.03333 160.36665 408.7 158.8 C 396.16666 176.63333 384.38333 196.0 373.35 216.9 C 378.51666 209.76666 383.91666 203.61667 389.55 198.45 C 396.75 191.88333 403.66666 187.63333 410.3 185.7 C 407.83334 191.4 403.58334 198.61667 397.55 207.35 C 389.94998 218.35 385.21664 225.46667 383.35 228.7 C 386.55 225.23334 391.3 219.58334 397.6 211.75 C 403.43335 204.98334 408.85 200.16667 413.85 197.3 L 417.65 190.95 C 415.68335 195.28333 412.13336 201.79999 407.0 210.5 C 402.66666 218.46666 400.13333 225.33333 399.4 231.1 C 405.8333 224.46666 412.15 218.59999 418.35 213.5 C 427.45 206.0 434.38333 201.83333 439.15 201.0 C 432.68335 209.03334 427.8667 215.31668 424.7 219.85 C 419.0 227.98334 416.03333 235.03334 415.8 241.0 C 423.56668 237.06667 432.21667 231.61667 441.75 224.65 C 449.85 218.78334 457.88333 212.33334 465.85 205.3 C 462.4167 212.3 457.25003 220.06667 450.35 228.6 C 444.05 236.43333 437.63333 243.3 431.1 249.2 C 438.7 246.6 447.81668 241.86667 458.45 235.0 C 472.38333 226.0 481.03333 220.61667 484.4 218.85 C 479.1 228.18333 474.36667 235.75 470.2 241.55 C 464.80002 249.08334 458.93335 255.81668 452.6 261.75 L 469.45 252.1 C 475.98334 248.36667 481.31668 245.13333 485.45 242.4 C 497.11667 234.7 506.5833 226.13333 513.85 216.7 C 512.31665 224.33333 509.43332 232.2 505.2 240.3 C 500.7 248.93333 495.75 255.66667 490.35 260.5 L 490.25 261.05 C 491.41666 259.78333 494.05 258.33334 498.15 256.7 C 502.35 255.0 505.28336 253.34999 506.95 251.75 C 510.55 248.31667 513.95 244.43333 517.15 240.1 C 520.48334 235.66667 523.2167 231.26666 525.35 226.9 L 519.5 240.85 C 517.3333 245.78334 515.14996 250.05 512.95 253.65 C 519.95 248.91667 527.7833 240.33334 536.45 227.9 C 534.18335 231.43333 531.45 237.36667 528.25 245.7 C 525.05 254.13333 521.68335 260.35 518.15 264.35 C 524.15 260.98334 530.3667 255.83333 536.8 248.9 C 539.1666 246.36667 544.36664 240.16667 552.4 230.3 C 552.5 237.03333 550.8333 244.96666 547.4 254.1 C 544.60004 261.63333 541.0167 268.96667 536.65 276.1 C 541.51666 274.6667 546.56665 271.03336 551.8 265.2 C 554.76666 261.93332 558.9 256.99997 564.2 250.4 L 561.6 259.3 L 559.0 268.3 C 558.39996 270.56668 556.7666 274.6 554.1 280.4 C 551.7 285.53333 550.3334 289.41666 550.0 292.05 C 559.13336 283.28333 567.10004 271.9 573.9 257.9 L 574.9 260.8 L 574.65 266.3 C 574.4167 270.19998 573.9667 273.8 573.3 277.1 L 568.25 294.15 C 566.01666 301.25 564.9667 306.93335 565.1 311.2 C 571.4667 303.23334 576.2 294.98334 579.3 286.45 L 581.35 280.1 Z M 512.55 254.3 L 512.95 253.65 L 512.8 253.75 C 512.3 254.08333 512.2167 254.26666 512.55 254.3 Z M 535.1 13.55 C 536.13336 11.55 537.2 9.783334 538.3 8.25 C 543.5 1.0166664 549.56665 -1.4500003 556.5 0.85 C 561.8 2.5833335 565.31665 7.016667 567.05 14.15 L 567.75 17.75 C 568.25 21.449999 568.48334 26.183332 568.45 31.95 L 568.25 30.95 L 563.15 6.45 C 558.68335 5.35 554.95 8.133333 551.95 14.8 L 551.65 15.7 C 549.11664 22.933332 547.1666 27.4 545.8 29.1 L 539.3 28.55 L 529.4 27.7 C 531.2 22.099998 533.1 17.383331 535.1 13.55 Z"/>
			<path fill="#767675" stroke-linecap="round" stroke-linejoin="round" d="M 586.0 27.5 C 579.63336 27.933332 574.8667 29.016666 571.7 30.75 L 579.55 30.35 L 587.4 31.1 C 582.5333 31.033333 577.5 34.15 572.3 40.45 L 566.2 48.15 C 564.06665 50.75 562.14996 52.683334 560.45 53.95 C 562.85 52.283333 565.61664 50.866665 568.75 49.7 L 578.1 46.6 C 572.89996 48.566666 568.1666 52.983334 563.9 59.85 C 561.5333 63.583332 558.61664 69.6 555.15 77.9 C 557.01666 75.5 559.26666 73.23333 561.9 71.1 C 563.60004 69.76666 566.18335 67.95 569.65 65.65 C 566.48334 69.48334 564.3333 74.53334 563.2 80.8 L 561.7 90.35 L 562.65 88.4 C 563.9167 86.13333 565.88336 83.85 568.55 81.55 C 567.0833 87.15 566.26666 93.95 566.1 101.95 L 565.7 122.35 C 566.5 118.08333 567.15 114.899994 567.65 112.8 C 568.55 109.1 569.8333 106.23333 571.5 104.2 C 570.13336 110.46667 569.6667 117.05 570.1 123.95 C 570.5333 131.11667 571.9 137.53334 574.2 143.2 C 574.1333 140.4 574.35 137.53333 574.85 134.6 C 575.4167 131.33333 576.25 128.75 577.35 126.85 C 577.7833 134.01666 578.2833 138.79999 578.85 141.2 C 580.01666 146.3 582.31665 150.43333 585.75 153.6 C 586.2167 151.2 586.51666 148.46666 586.65 145.4 L 586.75 141.25 C 587.14996 146.45 589.3333 151.78333 593.3 157.25 L 593.5 157.55 L 593.45 156.9 C 593.25 153.86667 593.31665 150.76668 593.65 147.6 C 594.0833 143.53334 594.86664 140.53334 596.0 138.6 L 596.6 149.4 C 600.3333 155.26666 603.8 165.2 607.0 179.2 C 608.6667 186.6 610.5834 197.01668 612.75 210.45 L 604.4 197.75 L 603.1 195.7 C 604.36664 200.5 604.73334 206.31667 604.2 213.15 C 603.6 220.55 601.9166 230.91667 599.15 244.25 C 597.45 241.98334 595.4667 237.75 593.2 231.55 L 592.85 230.65 C 593.51666 233.78334 594.01666 237.28334 594.35 241.15 C 595.01666 249.15 594.88336 257.44998 593.95 266.05 L 592.5 283.0 C 591.56665 290.19998 590.0 295.46664 587.8 298.8 C 587.6 295.06668 586.9166 288.1167 585.75 277.95 C 584.7833 269.61667 584.2833 263.36667 584.25 259.2 C 584.0833 266.53336 583.11664 273.50003 581.35 280.1 L 579.3 286.45 C 576.2 294.98334 571.4667 303.23334 565.1 311.2 C 564.9667 306.93332 566.01666 301.24997 568.25 294.15 L 573.3 277.1 C 573.9667 273.8 574.4167 270.19998 574.65 266.3 L 574.9 260.8 L 575.05 255.45 L 573.9 257.9 C 567.10004 271.9 559.13336 283.28333 550.0 292.05 C 550.3333 289.41666 551.69995 285.53333 554.1 280.4 C 556.76666 274.6 558.4 270.56668 559.0 268.3 L 561.6 259.3 L 564.2 250.4 C 558.9 257.0 554.76666 261.93335 551.8 265.2 C 546.56665 271.03336 541.51666 274.6667 536.65 276.1 C 541.01666 268.96667 544.6 261.63333 547.4 254.1 C 550.8333 244.96666 552.5 237.03333 552.4 230.3 C 544.36664 240.16667 539.1666 246.36667 536.8 248.9 C 530.3667 255.83333 524.15 260.98334 518.15 264.35 C 521.68335 260.35 525.05 254.13333 528.25 245.7 C 531.45 237.36667 534.18335 231.43333 536.45 227.9 C 527.7833 240.33333 519.95 248.91666 512.95 253.65 C 515.15 250.05 517.3334 245.78334 519.5 240.85 L 525.35 226.9 C 523.2167 231.26666 520.48334 235.66667 517.15 240.1 C 513.95 244.43333 510.55002 248.31667 506.95 251.75 C 505.28336 253.34999 502.35 255.0 498.15 256.7 C 494.05 258.33334 491.41666 259.78333 490.25 261.05 L 490.35 260.5 C 495.75 255.66667 500.7 248.93333 505.2 240.3 C 509.43332 232.2 512.31665 224.33333 513.85 216.7 C 506.58334 226.13333 497.1167 234.7 485.45 242.4 C 481.31668 245.13333 475.98334 248.36667 469.45 252.1 L 452.6 261.75 C 458.93335 255.81667 464.80002 249.08333 470.2 241.55 C 474.36667 235.75 479.1 228.18333 484.4 218.85 C 481.03333 220.61667 472.38333 226.0 458.45 235.0 C 447.81668 241.86667 438.7 246.6 431.1 249.2 C 437.63333 243.3 444.05 236.43333 450.35 228.6 C 457.25 220.06667 462.41666 212.3 465.85 205.3 C 457.88333 212.33334 449.85 218.78334 441.75 224.65 C 432.21667 231.61667 423.56668 237.06667 415.8 241.0 C 416.03333 235.03334 419.0 227.98334 424.7 219.85 C 427.86667 215.31667 432.68332 209.03333 439.15 201.0 C 434.38333 201.83333 427.45 206.0 418.35 213.5 C 412.15 218.59999 405.8333 224.46666 399.4 231.1 C 400.13333 225.33333 402.66666 218.46666 407.0 210.5 C 412.13333 201.8 415.68332 195.28334 417.65 190.95 L 413.85 197.3 C 408.85 200.16667 403.43335 204.98334 397.6 211.75 C 391.3 219.58333 386.55 225.23332 383.35 228.7 C 385.21667 225.46667 389.95 218.35 397.55 207.35 C 403.58334 198.61667 407.83334 191.4 410.3 185.7 C 403.66666 187.63333 396.75 191.88333 389.55 198.45 C 383.91666 203.61667 378.51666 209.76666 373.35 216.9 C 384.38333 196.0 396.16666 176.63333 408.7 158.8 C 405.03336 160.36667 400.50003 162.98334 395.1 166.65 L 382.1 175.35 C 383.7 172.81667 388.9167 166.4 397.75 156.1 C 404.48334 148.23334 408.78333 141.46667 410.65 135.8 L 394.9 143.45 C 388.53333 146.55 383.13333 148.73334 378.7 150.0 L 379.3 149.3 C 383.03333 144.8 387.94998 140.05 394.05 135.05 L 411.05 121.65 C 424.98334 110.48334 434.23334 99.38334 438.8 88.35 C 434.56668 91.45 429.85 93.88333 424.65 95.65 C 418.85 97.65 413.61667 98.38333 408.95 97.85 C 411.55002 95.55 416.2667 91.833336 423.1 86.7 L 440.45 73.2 C 454.95 61.266663 464.75 50.249996 469.85 40.15 C 468.4167 40.65 462.93335 43.483334 453.4 48.65 C 444.5 53.483334 439.15 56.033333 437.35 56.3 L 457.45 41.15 C 466.38333 34.416668 473.96667 29.150002 480.2 25.35 C 498.9 13.883333 514.8333 9.65 528.0 12.65 L 535.1 13.55 C 533.1 17.383333 531.2 22.1 529.4 27.7 L 539.3 28.55 L 539.25 28.65 L 568.25 31.15 L 568.25 30.95 L 568.45 31.95 C 568.48334 26.183332 568.25 21.449999 567.75 17.75 C 572.05 18.083334 578.14996 20.083334 586.05 23.75 C 589.4166 25.316668 592.5166 26.550001 595.35 27.45 L 595.7 27.55 C 592.9 27.25 589.6667 27.233334 586.0 27.5 Z M 604.75 29.15 L 602.9 29.05 C 600.73334 28.85 598.3333 28.35 595.7 27.55 L 596.4 27.6 L 601.0 28.6 L 604.75 29.15 Z M 512.95 253.65 L 512.55 254.3 C 512.2167 254.26666 512.3 254.08333 512.8 253.75 L 512.95 253.65 Z M 596.0 138.6 L 596.0 138.55 Z M 104.85 87.5 C 102.85 88.76667 100.6 89.65 98.1 90.15 C 93.566666 91.05 89.183334 90.26667 84.95 87.8 C 81.71667 85.9 78.333336 82.816666 74.8 78.55 L 75.2 79.0 C 71.4 74.4 67.98334 67.36667 64.95 57.9 C 61.149998 46.033333 60.949997 37.899998 64.35 33.5 C 67.98334 41.033333 72.86667 46.733334 79.0 50.6 C 82.299995 52.7 88.73333 55.5 98.3 59.0 C 106.5 62.8 111.1 67.5 112.1 73.1 C 112.433334 74.933334 112.38333 76.700005 111.95 78.4 C 111.416664 80.46667 110.316666 82.416664 108.65 84.25 C 107.48334 85.51667 106.21667 86.600006 104.85 87.5 Z"/>
			<path fill="#888888" stroke-linecap="round" stroke-linejoin="round" d="M 463.2 346.4 C 460.86667 347.06665 458.05 347.55 454.75 347.85 L 437.1 348.1 C 429.26666 348.13333 419.46667 346.73334 407.7 343.9 L 378.55 337.05 L 363.45 334.35 C 357.71667 333.45 352.65 333.01666 348.25 333.05 C 343.25 333.08334 331.18332 335.56668 312.05 340.5 C 291.94998 345.69998 280.34998 348.53333 277.25 349.0 C 276.38333 338.73334 274.38333 328.31668 271.25 317.75 C 267.55002 305.31668 263.05002 295.1 257.75 287.1 C 255.45 283.56665 288.05 280.96664 355.55 279.3 C 389.31668 278.46664 423.30002 277.9833 457.5 277.85 C 454.6 280.25 451.85 284.3 449.25 290.0 L 445.15 299.6 L 446.45 297.2 C 448.01666 294.86667 449.71664 293.48334 451.55 293.05 C 450.11667 297.78333 449.15 301.31665 448.65 303.65 C 447.75 307.65 447.35 311.28333 447.45 314.55 C 447.55002 312.05 448.55002 309.5 450.45 306.9 C 452.18332 304.53333 454.19998 302.71667 456.5 301.45 C 456.5 303.38333 456.23334 306.65 455.7 311.25 C 455.16666 315.41666 454.9833 318.75 455.15 321.25 L 456.75 317.7 L 458.4 314.25 C 459.93335 326.11667 461.53336 336.83334 463.2 346.4 Z M 539.25 28.65 L 539.3 28.55 L 545.8 29.1 C 547.1666 27.4 549.11664 22.933332 551.65 15.7 L 551.95 14.8 C 554.95 8.133333 558.68335 5.3499994 563.15 6.45 L 568.25 30.95 L 568.25 31.15 L 539.25 28.65 Z"/>
			<path fill="none" stroke="#666666" stroke-width="3.0" stroke-linecap="round" stroke-linejoin="round" d="M 640.7 138.8 L 651.05 135.9 C 659.75 133.5 666.01666 133.26666 669.85 135.2 M 631.25 140.2 C 633.68335 140.23334 636.8334 139.76668 640.7 138.8"/>
		</g>
	</g>
</svg>
