<?xml version="1.0" encoding="utf-8"?>
<!DOCTYPE svg PUBLIC "-//W3C//DTD SVG 1.1//EN" "http://www.w3.org/Graphics/SVG/1.1/DTD/svg11.dtd">
<svg version="1.1" xmlns="http://www.w3.org/2000/svg" xmlns:xlink="http://www.w3.org/1999/xlink" xmlns:ev="http://www.w3.org/2001/xml-events" width="550.0px" height="400.0px" overflow="visible" viewBox="0.0 0.0 550.0 400.0" enable-background="new 0.0 0.0 550.0 400.0">
	<defs/>
	<rect width="550.0px" height="400.0px" x="0px" y="0px" fill="#FFFFFF"/>
	<g>
		<g transform="matrix(1.0 0.0 0.0 1.0 0.0 0.0)">
			<path fill="#848182" stroke-linecap="round" stroke-linejoin="round" d="M 691.5 233.6 C 687.9667 232.36667 680.48334 230.8 669.05 228.9 L 673.15 213.75 C 684.35004 214.21666 692.7834 217.13333 698.45 222.5 C 703.2833 227.09999 707.5 235.15 711.1 246.65 C 705.5 240.48332 698.9667 236.13333 691.5 233.6 Z M 667.1 255.3 C 677.76666 256.6667 685.63336 260.15002 690.7 265.75 C 695.1667 270.68332 698.76666 279.03333 701.5 290.8 C 696.39996 284.23334 690.2166 279.4 682.95 276.3 C 679.6167 274.83334 672.55005 272.7667 661.75 270.1 L 660.9 269.9 L 666.15 255.15 L 667.1 255.3 Z M 595.15 364.4 C 605.11664 369.23334 611.61664 375.2 614.65 382.3 C 617.2833 388.43332 618.0 397.5 616.8 409.5 C 614.1 401.63333 609.81665 395.05 603.95 389.75 C 601.31665 387.38333 595.1333 383.03333 585.4 376.7 L 585.15 376.55 L 594.9 364.3 L 595.15 364.4 Z M 101.7 323.45 C 92.63333 327.38333 86.683334 330.26666 83.85 332.1 C 77.35 336.26666 72.13333 342.03333 68.2 349.4 C 69.1 337.16666 71.333336 328.23334 74.9 322.6 C 78.73334 316.56665 85.23334 312.06665 94.4 309.1 L 96.85 308.35 L 104.05 322.45 L 101.7 323.45 Z M 38.35 224.25 L 42.05 237.8 C 30.483334 239.76666 23.0 241.33333 19.6 242.5 C 12.1 245.03334 5.5666666 249.38335 0.0 255.55 C 3.6000001 244.05 7.8166666 236.0 12.65 231.4 C 18.283333 226.06667 26.683332 223.16667 37.85 222.7 L 38.35 224.25 Z M 37.85 222.7 L 37.9 222.7 Z M 209.95 50.75 C 213.98334 42.449997 221.01668 34.68333 231.05 27.45 C 240.01666 20.983334 249.58333 16.133333 259.75 12.9 C 270.85 9.366667 280.80002 9.366667 289.6 12.9 C 296.6667 15.733334 304.68335 21.783333 313.65 31.05 C 310.21667 31.283333 306.21667 31.233334 301.65 30.9 L 290.7 30.05 C 282.2 29.65 274.5 31.233334 267.6 34.8 C 260.86667 38.266666 254.33333 43.633335 248.0 50.9 C 242.26666 57.466667 237.63333 64.48333 234.1 71.95 L 233.9 72.4 L 209.8 51.0 L 209.95 50.75 Z M 497.3 61.7 C 493.76666 54.233334 489.13333 47.216667 483.4 40.65 C 477.06665 33.383335 470.53333 28.016666 463.8 24.55 C 456.9 20.983334 449.2 19.4 440.7 19.8 L 429.75 20.65 C 425.18332 20.983334 421.18332 21.033333 417.75 20.8 C 426.71667 11.533333 434.73334 5.4833326 441.8 2.65 C 450.6 -0.88333344 460.55002 -0.88333344 471.65 2.65 C 481.81665 5.916667 491.38333 10.766667 500.35 17.2 C 510.38336 24.433334 517.4167 32.2 521.45 40.5 L 521.55 40.75 L 497.5 62.15 L 497.3 61.7 Z M 623.35 311.9 C 633.81665 314.8333 641.1333 319.5833 645.3 326.15 C 648.8667 331.78333 651.1167 340.73334 652.05 353.0 C 648.1167 345.63333 642.9 339.85 636.4 335.65 C 633.43335 333.75 626.7 330.53333 616.2 326.0 L 623.35 311.9 Z M 30.1 275.1 C 35.333336 269.33334 43.51667 265.80002 54.65 264.5 L 59.9 279.25 C 48.6 282.05002 41.249996 284.1667 37.85 285.6 C 30.583332 288.73334 24.399998 293.58334 19.3 300.15 C 22.033333 288.38333 25.633333 280.03333 30.1 275.1 Z M 92.7 411.25 C 91.46667 399.25 92.16667 390.2 94.8 384.1 C 97.86667 376.93335 104.450005 370.93335 114.55 366.1 L 124.3 378.35 C 114.53333 384.65 108.26666 389.03333 105.5 391.5 C 99.666664 396.80002 95.399994 403.38336 92.7 411.25 Z"/>
			<path fill="#BCBCBC" stroke-linecap="round" stroke-linejoin="round" d="M 633.4 216.3 L 634.65 215.05 C 639.18335 218.68333 645.4167 219.33333 653.35 217.0 L 663.25 213.6 C 667.18335 212.3 670.4167 211.56667 672.95 211.4 C 671.95 214.53334 670.8333 218.38335 669.6 222.95 L 666.5 234.65 C 660.6667 236.05 653.0667 236.05 643.7 234.65 C 633.93335 233.21666 627.4 230.68333 624.1 227.05 L 623.3 226.1 L 633.4 216.3 Z M 588.05 208.4 L 586.55 211.85 C 578.48334 208.18333 569.5833 205.7 559.85 204.4 L 533.05 203.15 C 521.05 203.45 512.0333 203.56667 506.0 203.5 C 497.66666 203.36667 490.16666 202.78334 483.5 201.75 C 484.5 196.78334 485.11667 191.73334 485.35 186.6 C 490.95 184.53334 498.40002 183.15001 507.7 182.45 C 517.0333 181.78333 526.45 181.84999 535.95 182.65 C 539.95 182.98332 549.31665 184.29999 564.05 186.6 C 575.68335 188.40001 585.0667 189.26668 592.2 189.2 L 592.5 190.65 L 588.05 208.4 Z M 479.8 214.9 C 485.8 212.56667 494.35 211.41667 505.45 211.45 C 514.85 211.45 524.25 212.21666 533.65 213.75 C 537.48334 214.38333 546.7167 216.4 561.35 219.8 C 572.81665 222.43333 582.11664 223.98334 589.25 224.45 L 589.4 225.9 L 583.65 243.4 L 581.95 246.65 C 574.15 242.38333 565.45 239.25 555.85 237.25 C 548.7833 235.75 539.9 234.65 529.2 233.95 L 502.2 232.25 C 491.86667 231.34999 482.85 229.79999 475.15 227.6 L 476.05 223.8 L 479.8 214.9 Z M 628.3 254.55 L 629.65 253.4 C 633.9167 257.36667 640.0834 258.46667 648.15 256.7 L 658.3 254.1 C 662.3 253.1 665.5833 252.61667 668.15 252.65 L 667.1 255.3 L 666.15 255.15 L 660.9 269.9 L 661.75 270.1 L 659.95 275.3 C 654.05 276.26666 646.4667 275.71667 637.2 273.65 C 627.56665 271.48334 621.23334 268.46667 618.2 264.6 L 617.5 263.55 L 628.3 254.55 Z M 464.4 242.6 L 475.1 243.75 C 484.1 245.15001 492.96667 247.31668 501.7 250.25 C 505.30002 251.45 513.85 254.83333 527.35 260.4 C 537.95 264.73334 546.63336 267.65 553.4 269.15 L 553.35 270.6 L 546.0 285.9 C 544.8 287.63333 543.85 289.13333 543.15 290.4 C 536.3167 285.0 528.4667 280.56668 519.6 277.1 C 513.0333 274.56665 504.68332 272.18332 494.55 269.95 L 468.9 264.3 C 461.8333 262.53333 455.4833 260.53333 449.85 258.3 C 455.31665 253.26666 460.16666 248.03334 464.4 242.6 Z M 586.4 305.2 L 587.85 304.25 C 591.31665 308.85 597.05 310.86667 605.05 310.3 L 615.15 309.15 C 619.15 308.71667 622.3667 308.7 624.8 309.1 C 623.2 311.96667 621.3167 315.55002 619.15 319.85 L 613.65 330.75 C 607.85004 330.85 600.6667 329.1667 592.1 325.7 C 583.2 322.1 577.60004 318.13333 575.3 313.8 L 574.75 312.7 L 586.4 305.2 Z M 441.55 265.2 C 446.15 266.03336 451.4 267.46667 457.3 269.5 C 466.19998 272.56668 474.8333 276.35 483.2 280.85 C 486.73334 282.71667 494.81668 287.61667 507.45 295.55 C 517.45 301.78333 525.75 306.26666 532.35 309.0 L 532.05 310.45 L 521.8 323.9 C 520.3667 325.3 519.18335 326.53333 518.25 327.6 C 512.2833 321.03333 505.0833 315.25 496.65 310.25 C 490.45 306.51666 482.40002 302.6 472.5 298.5 C 461.33334 294.06668 452.98334 290.61667 447.45 288.15 C 438.31668 284.0833 430.53336 279.84998 424.1 275.45 C 430.43335 272.55002 436.25 269.13336 441.55 265.2 Z M 559.5 350.15 L 561.15 349.5 C 563.88336 354.63333 569.3667 357.68332 577.6 358.65 L 588.0 359.5 C 592.13336 359.83334 595.4 360.4167 597.8 361.25 L 595.15 364.4 L 594.9 364.3 L 585.15 376.55 L 585.4 376.7 L 582.7 380.05 C 576.76666 379.05 569.76666 376.06665 561.7 371.1 C 553.3334 365.9 548.3334 360.98334 546.7 356.35 L 546.35 355.15 L 559.5 350.15 Z M 284.7 272.55 L 288.2 274.7 C 281.66666 279.26666 273.5833 283.78333 263.95 288.25 C 252.65001 293.15 244.18333 296.8333 238.55 299.3 C 228.51666 303.69998 220.33333 307.8333 214.0 311.7 C 205.46666 316.93332 198.2 322.8333 192.2 329.4 L 189.55 326.8 L 178.4 312.15 L 178.1 310.8 C 184.7 308.03333 193.0 303.53333 203.0 297.3 C 215.7 289.36667 223.78333 284.46667 227.25 282.6 C 236.84999 277.46667 244.59999 273.75 250.5 271.45 C 260.36667 267.65 268.55 266.06665 275.05 266.7 L 280.7 270.35 L 278.0 269.0 L 284.7 272.55 Z M 163.8 358.15 C 162.16667 362.78333 157.15001 367.69998 148.75 372.9 C 140.68333 377.86667 133.68333 380.85 127.75 381.85 L 120.3 372.35 L 112.65 363.05 C 115.05 362.21664 118.316666 361.61664 122.45 361.25 L 132.85 360.4 C 141.08333 359.43335 146.56667 356.40002 149.3 351.3 L 150.95 351.95 L 164.1 356.95 L 163.8 358.15 Z M 256.95 250.15 L 261.7 256.2 C 254.63335 259.56668 246.85 262.25 238.35 264.25 L 216.8 268.45 C 208.4 270.08334 201.4 272.0 195.8 274.2 C 188.13333 277.2 180.88333 281.4167 174.05 286.85 L 171.75 283.45 L 163.95 267.15 L 163.85 265.6 C 170.61667 264.1 179.3 261.16666 189.9 256.8 C 203.36667 251.23332 211.90001 247.84999 215.5 246.65 L 232.15 241.1 C 237.28334 239.76668 242.73334 239.3 248.5 239.7 C 251.09999 243.26666 253.86665 246.7 256.8 250.0 L 256.95 250.15 Z M 141.95 310.25 C 139.61667 314.58334 134.0 318.55002 125.1 322.15 C 116.566666 325.61667 109.38333 327.30002 103.55 327.2 L 101.7 323.45 L 104.05 322.45 L 96.85 308.35 L 94.4 309.1 L 92.4 305.5 C 94.833336 305.13333 98.05 305.15 102.05 305.55 L 112.15 306.7 C 120.15 307.26666 125.9 305.25 129.4 300.65 L 130.85 301.6 L 142.5 309.1 L 141.95 310.25 Z M 243.55 232.45 L 243.65 232.95 C 237.05 234.85 228.88333 236.11667 219.15 236.75 L 192.85 238.0 C 170.25 239.3 151.58333 243.96667 136.85 252.0 L 135.2 248.7 L 129.4 231.35 L 129.55 229.8 C 136.68333 229.33334 145.98334 227.78334 157.45 225.15 C 172.08333 221.75 181.31667 219.73334 185.15 219.1 C 194.55 217.56667 203.93333 216.8 213.3 216.8 C 222.7 216.76666 230.3 217.59999 236.1 219.3 L 237.15 221.35 C 239.11667 225.15001 241.25 228.85 243.55 232.45 Z M 104.35 274.15 C 101.38333 278.11667 94.98333 281.21667 85.15 283.45 C 75.91667 285.55002 68.333336 286.11667 62.4 285.15 L 58.45 273.75 L 54.2 262.45 C 56.766666 262.41666 60.05 262.9 64.05 263.9 L 74.2 266.5 C 82.299995 268.26666 88.46666 267.16666 92.7 263.2 L 100.15 269.4 L 104.85 273.35 L 104.35 274.15 Z M 231.2 208.05 L 231.45 209.75 C 223.61667 211.34999 214.5 212.23332 204.1 212.4 L 177.05 212.05 L 150.2 213.3 C 140.5 214.6 131.6 217.08334 123.5 220.75 L 122.0 217.15 L 117.65 199.6 L 117.9 198.1 C 125.03334 198.16667 134.41667 197.31667 146.05 195.55 C 160.81667 193.25 170.18333 191.93333 174.15 191.6 C 183.61667 190.76668 193.03334 190.68335 202.4 191.35 C 213.33333 192.11667 221.71666 193.86667 227.55 196.6 C 228.51666 200.36667 229.73332 204.18333 231.2 208.05 Z M 86.05 235.95 C 82.75 239.58333 76.2 242.11667 66.4 243.55 C 57.033333 244.95 49.43333 244.95 43.6 243.55 L 40.5 231.85 L 38.35 224.25 L 37.9 222.7 L 37.1 220.3 C 39.666668 220.46667 42.9 221.20001 46.8 222.5 L 56.75 225.9 C 64.683334 228.23332 70.916664 227.58333 75.45 223.95 L 76.75 225.2 L 86.8 235.0 L 86.05 235.95 Z M 37.9 222.7 L 37.85 222.7 Z M 181.65 164.7 C 162.81667 156.93333 150.3 149.26666 144.1 141.7 C 133.56667 128.86667 138.09999 114.98334 157.7 100.05 C 158.26666 103.916664 159.59999 107.549995 161.7 110.95 C 165.36667 116.916664 170.73334 121.049995 177.8 123.35 C 180.4 124.21667 183.09999 124.666664 185.9 124.7 L 187.1 125.9 L 186.25 124.7 L 186.7 124.7 C 191.06667 128.56667 194.8 131.6 197.9 133.8 L 197.55 133.9 C 193.08334 135.63333 188.86667 140.18333 184.9 147.55 C 181.26666 154.25 180.18333 159.96666 181.65 164.7 Z M 509.3 132.55 C 512.3333 129.15 516.95 125.68333 523.15 122.15 C 529.75 118.41667 535.86664 115.76667 541.5 114.2 C 545.73334 114.73333 549.76666 114.36666 553.6 113.1 C 560.6667 110.8 566.0334 106.66667 569.7 100.7 C 573.0 95.333336 574.4167 89.350006 573.95 82.75 L 574.9 81.75 C 585.5 87.11667 591.35 96.083336 592.45 108.65 C 592.95 114.183334 592.3 119.666664 590.5 125.1 C 588.6667 130.6 585.85004 135.36667 582.05 139.4 C 574.5833 147.3 565.3 153.63333 554.2 158.4 C 543.6667 162.96666 533.60004 165.11667 524.0 164.85 C 525.89996 159.05 524.69995 152.16667 520.4 144.2 C 517.5 138.83333 513.8 134.95 509.3 132.55 Z"/>
			<path fill="#ACABAB" stroke-linecap="round" stroke-linejoin="round" d="M 624.1 227.05 L 620.55 231.65 C 616.48334 225.51666 611.8333 220.58333 606.6 216.85 C 600.76666 212.65001 594.48334 210.20001 587.75 209.5 L 588.05 208.4 L 592.5 190.65 L 592.55 190.3 C 597.1167 192.66667 604.45 196.3 614.55 201.2 C 623.1167 205.93333 629.4 210.96667 633.4 216.3 L 623.3 226.1 L 624.1 227.05 Z M 589.4 225.9 L 589.5 225.6 C 593.86664 228.3 600.9166 232.46667 610.65 238.1 C 618.8167 243.46666 624.7 248.95 628.3 254.55 L 617.5 263.55 L 618.2 264.6 L 614.35 268.9 C 610.7833 262.46667 606.51666 257.2 601.55 253.1 C 596.05 248.5 589.9667 245.58333 583.3 244.35 L 583.65 243.4 L 589.4 225.9 Z M 553.35 270.6 L 553.45 270.35 L 571.85 286.0 C 578.95 292.6 583.80005 299.0 586.4 305.2 L 574.75 312.7 L 575.3 313.8 L 570.95 317.6 C 568.48334 310.6 565.18335 304.66666 561.05 299.8 C 556.4166 294.36667 550.99994 290.55002 544.8 288.35 L 546.0 285.9 L 553.35 270.6 Z M 532.05 310.45 L 532.2 310.2 L 548.1 328.85 C 554.13336 336.58334 557.93335 343.68335 559.5 350.15 L 546.35 355.15 L 546.7 356.35 L 541.65 359.2 C 540.35004 351.96667 538.0334 345.6 534.7 340.1 C 530.9667 333.96667 526.15 329.23334 520.25 325.9 L 521.8 323.9 L 532.05 310.45 Z M 189.55 326.8 L 190.2 327.7 C 184.3 331.03336 179.48334 335.7667 175.75 341.9 C 172.41667 347.36667 170.1 353.73334 168.8 361.0 L 163.8 358.15 L 164.1 356.95 L 150.95 351.95 C 152.51666 345.45 156.31667 338.33334 162.35 330.6 L 178.25 311.95 L 178.4 312.15 L 189.55 326.8 Z M 171.75 283.45 L 172.4 284.8 C 166.2 287.0 160.8 290.81668 156.2 296.25 C 152.06667 301.11667 148.76666 307.05 146.3 314.05 L 141.95 310.25 L 142.5 309.1 L 130.85 301.6 C 133.45 295.43335 138.28333 289.05002 145.35 282.45 L 163.75 266.8 L 163.95 267.15 L 171.75 283.45 Z M 135.2 248.7 L 135.5 249.7 C 128.83333 250.93333 122.74999 253.85 117.25 258.45 C 112.28333 262.55002 108.01666 267.81668 104.45 274.25 L 104.35 274.15 L 104.85 273.35 L 100.15 269.4 C 96.45 265.36667 93.23333 262.2 90.5 259.9 C 94.1 254.3 99.98333 248.81667 108.15 243.45 C 117.88333 237.81667 124.916664 233.65 129.25 230.95 L 129.4 231.35 L 135.2 248.7 Z M 122.0 217.15 L 122.3 218.4 C 115.566666 219.13333 109.28333 221.58333 103.45 225.75 C 98.21667 229.48334 93.583336 234.41667 89.55 240.55 L 86.05 235.95 L 86.8 235.0 L 76.75 225.2 C 80.71667 219.86667 86.98334 214.85 95.55 210.15 C 105.683334 205.25 113.01667 201.61667 117.55 199.25 L 117.65 199.6 L 122.0 217.15 Z M 226.75 193.45 C 223.45 190.61667 218.58333 187.78334 212.15 184.95 L 194.05 176.95 C 187.81667 173.65 183.84999 170.0 182.15 166.0 L 181.65 164.7 C 180.18333 159.96667 181.26666 154.25002 184.9 147.55 C 188.86667 140.18333 193.08334 135.63333 197.55 133.9 L 197.9 133.8 C 201.56667 132.5 205.75 132.98334 210.45 135.25 C 212.81667 136.38333 217.38333 139.3 224.15 144.0 C 228.51666 147.03334 232.31667 149.36667 235.55 151.0 C 232.45 157.06667 230.91666 164.71666 230.95 173.95 C 229.68333 172.01666 228.76666 169.59999 228.2 166.7 C 227.83333 164.8 227.51666 162.01668 227.25 158.35 C 224.34999 167.48334 223.9 177.75 225.9 189.15 L 226.75 193.45 Z M 157.7 100.05 C 157.26666 97.21667 157.25 94.25 157.65 91.15 L 157.65 89.8 C 159.55 88.066666 163.03334 84.316666 168.1 78.55 C 173.63333 72.21667 177.96666 67.5 181.1 64.4 C 192.53334 53.13333 202.06667 48.55 209.7 50.65 L 209.95 50.75 L 209.8 51.0 L 233.9 72.4 L 234.1 71.95 C 238.26668 76.11666 242.38335 78.43333 246.45 78.9 C 251.71667 79.5 257.83334 77.3 264.8 72.3 C 270.43332 68.26667 274.71664 62.983337 277.65 56.45 C 280.78333 49.416668 281.43332 42.75 279.6 36.45 C 281.9 42.716667 283.05 49.516666 283.05 56.85 C 283.05 64.183334 281.9 71.28333 279.6 78.15 C 274.46667 93.61667 265.45 104.03333 252.55 109.4 C 248.15 111.23334 241.56667 112.61667 232.8 113.55 C 223.26666 114.55 216.56667 115.683334 212.7 116.95 C 205.06667 120.049995 199.38333 122.149994 195.65 123.25 C 192.55 124.15 189.56667 124.63333 186.7 124.7 L 186.25 124.7 L 185.9 124.7 C 183.09999 124.666664 180.4 124.21667 177.8 123.35 C 170.73334 121.05 165.36667 116.91667 161.7 110.95 C 159.6 107.549995 158.26668 103.916664 157.7 100.05 Z M 462.65 139.35 L 462.6 139.25 L 478.15 133.35 C 484.25 131.28334 489.53333 130.06667 494.0 129.7 C 499.83334 129.23334 504.93335 130.18333 509.3 132.55 C 513.8 134.95 517.5 138.83333 520.4 144.2 C 524.7 152.16666 525.9 159.04999 524.0 164.85 C 522.7 168.81667 519.9167 172.26666 515.65 175.2 C 511.38333 178.13333 506.01666 180.2 499.55 181.4 C 494.88333 182.26666 490.18335 182.59999 485.45 182.4 C 485.45 174.43333 484.53336 166.23334 482.7 157.8 C 482.4 159.16667 481.78333 160.73334 480.85 162.5 L 478.6 166.85 C 477.63333 162.91667 476.8 159.90001 476.1 157.8 C 474.96667 154.46667 473.6667 151.55 472.2 149.05 L 471.95 152.8 L 471.65 156.55 C 469.61667 151.71667 467.91666 148.0 466.55 145.4 C 465.28333 143.0 463.98334 140.98334 462.65 139.35 Z M 541.5 114.2 L 535.75 113.0 C 528.4167 110.1 522.73334 108.0 518.7 106.7 C 514.8334 105.433334 508.13336 104.3 498.6 103.3 C 489.83334 102.36667 483.25 100.98334 478.85 99.15 C 465.95 93.78333 456.93335 83.36667 451.8 67.9 C 449.5 61.033333 448.35 53.95 448.35 46.65 C 448.35 39.283333 449.5 32.483334 451.8 26.25 C 449.96664 32.516666 450.61664 39.166668 453.75 46.2 C 456.68332 52.733334 460.96664 58.016666 466.6 62.05 C 473.56665 67.05 479.66666 69.25 484.9 68.65 C 488.96667 68.183334 493.1 65.86667 497.3 61.7 L 497.5 62.15 L 521.55 40.75 L 521.45 40.5 L 521.7 40.4 C 529.3334 38.3 538.8667 42.88333 550.3 54.15 C 553.43335 57.25 557.7833 61.966667 563.35 68.3 C 568.38336 74.066666 571.85004 77.816666 573.75 79.55 L 573.75 80.9 L 573.95 82.75 C 574.4167 89.35 573.0 95.33333 569.7 100.7 C 566.0333 106.666664 560.6666 110.799995 553.6 113.1 C 549.76666 114.36667 545.73334 114.73334 541.5 114.2 Z"/>
			<path fill="#787778" stroke-linecap="round" stroke-linejoin="round" d="M 483.5 201.75 C 482.6 206.15001 481.38333 210.46667 479.85 214.7 L 479.8 214.9 L 476.05 223.8 C 472.91666 230.3 469.03333 236.56667 464.4 242.6 C 460.16666 248.03334 455.31665 253.26666 449.85 258.3 L 446.25 261.45 L 441.55 265.2 C 436.25 269.13333 430.43335 272.55 424.1 275.45 C 415.13333 279.51666 405.11667 282.55 394.05 284.55 C 377.88333 287.44998 358.53333 288.18332 336.0 286.75 C 325.63333 286.05002 315.63333 284.2 306.0 281.2 C 298.96667 279.0 291.86667 276.11667 284.7 272.55 L 278.0 269.0 L 280.7 270.35 L 275.05 266.7 C 268.88333 262.30002 262.85 256.78336 256.95 250.15 L 256.8 250.0 C 253.86665 246.7 251.09999 243.26666 248.5 239.7 L 243.55 232.45 C 241.25 228.85 239.11667 225.15001 237.15 221.35 L 236.1 219.3 C 234.23334 215.5 232.6 211.75 231.2 208.05 C 229.73334 204.18333 228.51668 200.36667 227.55 196.6 L 226.75 193.45 L 225.9 189.15 C 223.9 177.75 224.34999 167.48334 227.25 158.35 C 227.51666 162.01668 227.83333 164.8 228.2 166.7 C 228.76666 169.6 229.68333 172.01668 230.95 173.95 C 230.91666 164.71667 232.45 157.06668 235.55 151.0 C 236.95 148.26666 238.66666 145.84999 240.7 143.75 C 240.56667 144.78334 240.55 146.43333 240.65 148.7 C 240.71666 150.86667 240.66666 152.5 240.5 153.6 C 242.16667 149.6 244.73334 145.31667 248.2 140.75 L 257.45 128.95 C 256.81668 130.38333 256.25 132.13333 255.75 134.2 L 254.5 139.45 C 258.03333 135.21667 261.69998 131.76668 265.5 129.1 C 268.16666 127.23334 272.3 124.9 277.9 122.1 L 276.25 124.65 L 274.5 127.35 C 277.80002 126.51666 282.5167 124.78333 288.65 122.15 C 295.61667 119.15 300.36667 117.23334 302.9 116.4 C 299.16666 119.1 296.38333 122.75 294.55 127.35 C 298.91666 124.48334 304.36667 121.91667 310.9 119.65 L 316.8 117.65 L 327.45 114.3 L 328.35 114.0 C 327.78333 114.86667 327.0 116.4 326.0 118.6 C 325.1 120.666664 324.31668 122.13333 323.65 123.0 C 326.41666 121.700005 331.81665 119.450005 339.85 116.25 C 346.61667 113.549995 351.9 111.13333 355.7 109.0 C 355.06668 110.96667 353.90002 113.933334 352.2 117.9 C 350.53336 121.7 349.38336 124.649994 348.75 126.75 C 352.41666 124.950005 355.44998 122.00001 357.85 117.9 C 359.51666 115.0 361.1 111.0 362.6 105.9 C 362.93335 108.53333 364.03336 111.666664 365.9 115.3 L 370.65 124.5 C 371.71667 121.333336 372.40002 118.26667 372.7 115.3 C 373.0 111.76667 372.71667 108.65 371.85 105.95 C 376.68335 107.416664 381.5167 109.5 386.35 112.2 L 387.8 113.0 C 390.33334 114.46667 392.55002 115.95 394.45 117.45 C 397.21667 119.65 399.33334 121.86667 400.8 124.1 C 400.26666 122.86667 399.65 121.01667 398.95 118.55 L 397.2 112.65 C 400.76666 114.38333 404.5 116.88333 408.4 120.15 L 418.55 129.45 C 418.91666 124.549995 418.48334 119.95 417.25 115.65 C 422.01666 118.85 425.68332 121.7 428.25 124.2 C 430.41666 126.299995 433.41666 129.83333 437.25 134.8 C 436.78333 131.4 437.0833 127.13332 438.15 122.0 C 441.01666 125.1 444.51666 129.25 448.65 134.45 L 458.65 146.85 C 458.41666 145.51668 458.38333 143.65001 458.55 141.25 L 458.8 135.75 C 460.1 136.61667 461.38333 137.81667 462.65 139.35 C 463.98334 140.98334 465.28333 143.0 466.55 145.4 C 467.91666 148.0 469.61667 151.71667 471.65 156.55 L 471.95 152.8 L 472.2 149.05 C 473.66666 151.55 474.96664 154.46667 476.1 157.8 C 476.8 159.9 477.63333 162.91666 478.6 166.85 L 480.85 162.5 C 481.78333 160.73334 482.4 159.16667 482.7 157.8 C 484.53336 166.23334 485.45 174.43333 485.45 182.4 L 485.35 186.6 C 485.11667 191.73334 484.5 196.78334 483.5 201.75 Z"/>
			<path fill="#373535" stroke-linecap="round" stroke-linejoin="round" d="M 316.8 117.65 C 315.46664 112.816666 315.36664 108.83333 316.5 105.7 C 317.6 102.666664 319.45 101.066666 322.05 100.9 C 324.58334 100.76666 326.43335 101.99999 327.6 104.6 C 328.8 107.23334 328.75 110.466675 327.45 114.3 L 316.8 117.65 Z M 386.35 112.2 C 386.18335 108.333336 386.7 105.06667 387.9 102.4 C 389.06665 99.933334 390.38333 98.75 391.85 98.85 C 393.38333 98.95 394.44998 100.48333 395.05 103.45 C 395.71664 106.88333 395.51666 111.549995 394.45 117.45 C 392.55002 115.95 390.33334 114.46667 387.8 113.0 L 386.35 112.2 Z"/>
		</g>
	</g>
</svg>
