<?xml version="1.0" encoding="utf-8"?>
<!DOCTYPE svg PUBLIC "-//W3C//DTD SVG 1.1//EN" "http://www.w3.org/Graphics/SVG/1.1/DTD/svg11.dtd">
<svg version="1.1" xmlns="http://www.w3.org/2000/svg" xmlns:xlink="http://www.w3.org/1999/xlink" xmlns:ev="http://www.w3.org/2001/xml-events" width="550.0px" height="400.0px" overflow="visible" viewBox="0.0 0.0 550.0 400.0" enable-background="new 0.0 0.0 550.0 400.0">
	<defs/>
	<rect width="550.0px" height="400.0px" x="0px" y="0px" fill="#FFFFFF"/>
	<g>
		<g transform="matrix(1.0 0.0 0.0 1.0 0.0 0.0)">
			<path fill="#919191" stroke-linecap="round" stroke-linejoin="round" d="M 491.75 497.9 C 492.21667 515.43335 492.33334 529.06665 492.1 538.8 L 491.9 544.7 C 483.6 545.1667 474.6 545.18335 464.9 544.75 L 465.25 536.7 C 465.75 522.5333 465.65 509.51666 464.95 497.65 C 463.95 480.35 461.6667 464.86667 458.1 451.2 L 457.5 448.9 C 456.56668 445.73334 455.38336 442.4167 453.95 438.95 L 449.7 429.6 L 439.1 409.75 C 437.3 406.35 435.71664 403.15 434.35 400.15 C 433.11667 410.18335 431.93332 423.1167 430.8 438.95 L 430.1 448.9 L 429.95 451.15 C 429.28336 461.95 429.21667 477.53336 429.75 497.9 C 430.25 516.5 430.35 530.7167 430.05 540.55 L 429.9 544.7 C 421.6 545.1667 412.6 545.18335 402.9 544.75 L 403.2 538.0 L 403.3 535.0 C 403.73334 521.5 403.61667 509.05 402.95 497.65 C 401.95 480.35 399.6667 464.86667 396.1 451.2 L 395.5 448.9 C 394.56668 445.73334 393.38336 442.4167 391.95 438.95 L 387.7 429.6 L 377.1 409.75 C 374.4 404.68332 372.19998 400.05 370.5 395.85 C 363.6 395.98334 356.36667 395.86667 348.8 395.5 C 344.33334 395.30002 337.86667 395.2667 329.4 395.4 L 307.8 395.7 C 290.33334 395.66666 277.2 394.13333 268.4 391.1 L 258.7 409.7 C 255.3 417.13333 253.28333 424.38333 252.65 431.45 C 252.45 433.58334 252.36667 436.08334 252.4 438.95 C 252.43333 441.88333 252.6 445.19998 252.9 448.9 L 253.4 454.35 C 254.59999 466.18335 254.66666 481.58334 253.6 500.55 C 252.56667 519.7167 251.95 533.35004 251.75 541.45 L 251.65 546.9 L 236.4 545.85 C 230.3 545.14996 225.5 543.9333 222.0 542.2 L 222.9 537.0 L 223.25 534.2 C 223.81667 528.93335 224.05 522.9667 223.95 516.3 L 222.9 490.0 C 222.43333 478.76666 221.56667 465.06665 220.3 448.9 L 219.85 443.55 L 219.45 438.95 C 217.85 420.71667 216.70001 406.88333 216.0 397.45 L 215.3 387.0 L 204.35 385.3 L 193.7 405.7 C 190.3 413.13333 188.28334 420.38333 187.65 427.45 C 187.34999 430.55002 187.31667 434.38336 187.55 438.95 C 187.68333 441.95 187.91667 445.26666 188.25 448.9 L 188.4 450.35 C 189.59999 462.18335 189.66666 477.58334 188.6 496.55 C 187.43333 518.25 186.8 532.8667 186.7 540.4 L 186.65 542.9 L 171.4 541.85 C 165.3 541.14996 160.5 539.9333 157.0 538.2 L 157.45 536.0 L 157.55 535.3 L 157.65 534.7 C 158.61667 528.5 159.05 521.0333 158.95 512.3 L 157.9 486.0 C 157.5 475.69998 156.73334 463.3333 155.6 448.9 L 154.85 439.55 L 154.8 438.95 C 153.03333 418.71667 151.76666 403.55002 151.0 393.45 C 150.40001 385.18332 149.91667 377.2333 149.55 369.6 C 137.61667 362.73334 127.950005 353.25 120.55 341.15 C 111.28333 325.98334 107.11667 309.28333 108.05 291.05 C 108.450005 283.01666 110.25 272.46667 113.45 259.4 C 117.25 243.8 119.53333 233.3 120.3 227.9 C 121.9 216.56667 122.183334 204.15 121.15 190.65 C 120.41667 180.95 118.75001 168.61667 116.15 153.65 L 115.75 152.25 L 116.75 151.65 L 133.05 142.0 C 139.01666 138.06667 143.71666 133.88333 147.15 129.45 C 154.11667 120.48333 158.13333 109.45 159.2 96.35 C 165.13333 118.049995 170.45 133.68333 175.15 143.25 C 183.81667 160.88333 195.41667 173.25 209.95 180.35 C 225.31667 187.85 243.06667 192.35 263.2 193.85 C 277.13333 194.88333 295.51666 194.48332 318.35 192.65 C 333.68335 191.41667 351.96667 192.86667 373.2 197.0 L 400.0 202.65 C 410.83334 204.95 419.95 206.63333 427.35 207.7 L 480.95 214.6 C 503.11667 217.43333 520.85 220.15 534.15 222.75 C 546.5833 225.18333 553.75 239.0 555.65 264.2 C 556.25 272.16666 556.43335 283.38333 556.2 297.85 C 555.9 314.4167 555.8334 325.05002 556.0 329.75 C 551.4667 327.75 546.51666 326.71667 541.15 326.65 C 544.11664 316.81665 545.7666 309.19998 546.1 303.8 C 546.5 296.8 545.2833 289.36667 542.45 281.5 C 539.81665 301.4 536.14996 318.19998 531.45 331.9 C 523.81665 354.1 514.3833 365.1667 503.15 365.1 C 500.98334 372.76666 499.15 381.31665 497.65 390.75 C 495.95 401.51666 494.33334 417.58334 492.8 438.95 L 492.1 448.9 L 491.95 451.15 C 491.28336 461.95 491.21667 477.53336 491.75 497.9 Z M 215.3 387.0 L 215.25 387.0 Z M 223.25 534.2 L 223.25 534.15 Z"/>
			<path fill="#808080" stroke-linecap="round" stroke-linejoin="round" d="M 159.2 96.35 C 158.13333 109.45 154.11667 120.48333 147.15 129.45 C 143.71666 133.88333 139.01666 138.06667 133.05 142.0 L 116.75 151.65 L 115.75 152.25 C 110.61667 155.38333 105.76667 159.03333 101.2 163.2 C 96.799995 167.23334 92.416664 171.98334 88.05 177.45 C 77.38334 190.78333 68.9 199.79999 62.6 204.5 C 49.5 214.26666 39.1 213.83333 31.4 203.2 C 28.133333 198.7 26.55 192.83333 26.65 185.6 C 26.716667 180.96666 27.616667 174.83333 29.35 167.2 L 34.95 144.35 C 37.183334 135.21666 38.75 127.516655 39.65 121.25 L 42.0 98.75 L 42.8 91.7 C 43.566666 85.7 44.466667 80.61666 45.5 76.45 C 47.5 68.35 49.516666 62.083332 51.55 57.65 C 54.55 51.083332 58.433334 46.1 63.2 42.7 L 64.15 42.4 C 66.083336 41.7 69.816666 39.95 75.35 37.15 L 76.05 36.75 C 80.78333 34.316666 84.86667 32.75 88.3 32.05 C 92.700005 31.15 96.98334 30.633333 101.15 30.5 C 107.083336 30.333334 111.01667 31.166668 112.95 33.0 L 113.3 33.15 C 109.1 36.916668 104.78333 41.016666 100.35 45.45 L 99.45 44.55 C 101.049995 48.516666 104.549995 51.05 109.95 52.15 L 116.95 53.2 C 119.78333 53.6 122.0 54.13333 123.6 54.8 C 126.799995 56.1 130.38333 57.93333 134.35 60.3 C 137.61667 61.533333 141.45 60.833332 145.85 58.2 L 146.8 58.2 C 148.3 54.966667 150.0 52.11667 151.9 49.65 L 153.95 55.75 C 158.15 68.950005 159.95 81.61667 159.35 93.75 L 159.2 96.35 Z"/>
			<path fill="#373535" stroke-linecap="round" stroke-linejoin="round" d="M 157.65 534.7 L 157.55 535.3 L 157.35 535.95 L 157.45 536.0 L 157.0 538.2 C 160.5 539.93335 165.3 541.15 171.4 541.85 L 186.65 542.9 L 186.7 540.4 C 187.7 541.86664 188.46666 543.7166 189.0 545.95 C 189.59999 548.51666 190.33333 552.48334 191.2 557.85 L 169.25 559.25 C 159.65001 559.2833 152.46667 558.55 147.7 557.05 L 153.25 545.1 L 157.15 535.95 L 157.65 534.7 Z M 157.35 535.95 L 157.3 536.0 Z M 223.25 534.15 L 223.25 534.2 L 222.35 536.95 L 222.9 537.0 L 222.0 542.2 C 225.5 543.93335 230.3 545.15 236.4 545.85 L 251.65 546.9 L 251.75 541.45 C 252.71666 542.9167 253.46666 544.75 254.0 546.95 C 254.59999 549.51666 255.33333 553.48334 256.2 558.85 L 234.25 560.25 C 224.65001 560.2833 217.46667 559.55 212.7 558.05 L 218.25 546.1 L 222.15 536.95 L 223.25 534.15 Z M 222.35 536.95 L 222.3 537.0 Z M 403.2 538.0 L 402.9 544.75 C 412.6 545.18335 421.6 545.1667 429.9 544.7 L 430.05 540.55 C 431.91666 542.18335 433.23334 544.65 434.0 547.95 C 434.6 550.51666 435.33334 554.48334 436.2 559.85 L 414.25 561.25 C 404.65 561.2833 397.46667 560.55 392.7 559.05 L 398.25 547.1 L 402.15 537.95 L 403.3 535.0 L 402.35 537.95 L 403.2 538.0 Z M 402.35 537.95 L 402.3 538.0 Z M 465.25 536.7 L 464.9 544.75 C 474.6 545.18335 483.6 545.1667 491.9 544.7 L 492.1 538.8 C 494.46667 540.4 496.1 543.1167 497.0 546.95 C 497.6 549.51666 498.33334 553.48334 499.2 558.85 L 477.25 560.25 C 467.65 560.2833 460.46667 559.55 455.7 558.05 L 461.25 546.1 L 465.15 536.95 L 465.25 536.7 Z"/>
			<path fill="#C8C8C8" stroke-linecap="round" stroke-linejoin="round" d="M 113.3 33.15 C 128.7 19.316666 142.38333 9.983332 154.35 5.15 C 175.78334 -3.483334 197.0 -1.2166674 218.0 11.95 C 227.03334 17.616667 235.01668 25.083332 241.95 34.35 C 248.81667 43.483334 253.95 53.466667 257.35 64.3 C 260.88333 75.5 262.18332 86.5 261.25 97.3 C 260.28333 108.86667 256.81665 119.35 250.85 128.75 C 244.51668 138.68333 235.55 145.08333 223.95 147.95 C 215.38333 150.05 204.01666 150.35 189.85 148.85 C 189.21666 145.98334 189.23332 143.11667 189.9 140.25 L 198.1 138.8 C 203.93333 137.63333 207.83333 136.63333 209.8 135.8 C 228.36667 127.86667 237.76666 115.96667 238.0 100.1 C 238.09999 93.33333 236.43332 86.33333 233.0 79.1 C 229.76666 72.3 225.3 65.88334 219.6 59.85 C 213.96666 53.916668 207.78333 49.050003 201.05 45.25 C 194.05 41.316666 187.21667 38.966667 180.55 38.2 C 168.38333 36.8 158.83333 40.616665 151.9 49.65 C 150.0 52.116665 148.3 54.966663 146.8 58.2 L 145.85 58.2 C 141.45 60.833336 137.61667 61.533337 134.35 60.3 C 130.38333 57.933334 126.799995 56.100002 123.6 54.8 C 122.0 54.13333 119.78333 53.6 116.95 53.2 L 109.95 52.15 C 104.549995 51.05 101.049995 48.516666 99.45 44.55 L 100.35 45.45 C 104.78333 41.016666 109.1 36.916668 113.3 33.15 Z M 75.35 37.15 C 69.816666 39.95 66.083336 41.7 64.15 42.4 L 63.2 42.7 C 58.433334 46.1 54.55 51.083332 51.55 57.65 C 49.516666 62.083336 47.5 68.35 45.5 76.45 C 44.466667 80.61666 43.566666 85.7 42.8 91.7 L 41.3 94.2 C 40.2 106.933334 36.4 117.41667 29.9 125.65 C 22.3 135.35 12.533333 139.36667 0.6 137.7 C 0.19999999 136.1 -2.9802322E-8 134.11667 0.0 131.75 C 0.0 129.34999 0.20000002 127.36666 0.6 125.8 C 8.400001 124.433334 14.35 121.95 18.45 118.35 C 22.916668 114.48334 25.783335 108.833336 27.05 101.4 C 27.983334 95.96667 28.1 89.416664 27.4 81.75 L 24.7 61.2 C 23.566668 52.8 23.033335 46.0 23.1 40.8 C 23.2 33.533333 24.400002 27.166666 26.7 21.7 C 31.7 9.766666 40.083336 7.016666 51.85 13.45 C 56.383335 15.916666 60.950005 19.533333 65.55 24.3 C 69.61667 28.5 72.916664 32.7 75.45 36.9 L 75.35 37.15 Z"/>
		</g>
	</g>
</svg>
