<?xml version="1.0" encoding="utf-8"?>
<!DOCTYPE svg PUBLIC "-//W3C//DTD SVG 1.1//EN" "http://www.w3.org/Graphics/SVG/1.1/DTD/svg11.dtd">
<svg version="1.1" xmlns="http://www.w3.org/2000/svg" xmlns:xlink="http://www.w3.org/1999/xlink" xmlns:ev="http://www.w3.org/2001/xml-events" width="550.0px" height="400.0px" overflow="visible" viewBox="0.0 0.0 550.0 400.0" enable-background="new 0.0 0.0 550.0 400.0">
	<defs/>
	<rect width="550.0px" height="400.0px" x="0px" y="0px" fill="#FFFFFF"/>
	<g>
		<g transform="matrix(1.0 0.0 0.0 1.0 0.0 0.0)">
			<path fill="#535354" stroke-linecap="round" stroke-linejoin="round" d="M 368.75 435.6 L 368.65 435.45 C 375.18335 426.68332 378.2 416.65 377.7 405.35 C 377.16666 393.98334 373.13333 384.11667 365.6 375.75 L 372.7 353.05 C 374.93332 344.44998 375.8833 336.78333 375.55 330.05 C 374.85 317.38333 369.76666 302.05 360.3 284.05 C 358.3 280.25 354.18332 272.88333 347.95 261.95 C 342.88333 253.01668 339.15 246.01668 336.75 240.95 C 334.91666 237.08333 332.43332 232.5 329.3 227.2 L 327.7 226.55 C 331.23334 227.81667 337.11667 230.08333 345.35 233.35 C 352.71667 236.08333 358.58334 237.68332 362.95 238.15 C 375.31668 239.48332 379.81668 232.36665 376.45 216.8 C 374.41666 207.33334 372.18332 201.55 369.75 199.45 C 367.18332 197.18333 361.55 196.33333 352.85 196.9 C 345.9167 197.33333 338.71667 197.38333 331.25 197.05 C 323.15 196.68333 316.0 195.91667 309.8 194.75 L 309.3 194.4 L 308.4 189.1 C 329.7 180.6 354.93335 174.15001 384.1 169.75 L 395.8 188.95 C 414.36667 218.78333 425.23334 236.43332 428.4 241.9 C 434.96667 253.36667 447.31668 268.31668 465.45 286.75 L 488.05 309.35 C 496.91666 318.21667 503.86667 325.48334 508.9 331.15 C 532.26666 357.15 552.43335 386.25 569.4 418.45 C 588.4 454.48334 597.9 484.83334 597.9 509.5 C 597.9 524.7 597.0333 539.6667 595.3 554.4 C 593.5333 569.3 590.81665 584.5833 587.15 600.25 C 584.88336 609.85004 581.76666 619.3334 577.8 628.7 C 566.76666 623.9 559.2833 621.1667 555.35 620.5 C 489.91666 609.5 444.46667 582.5833 419.0 539.75 C 412.56668 528.98334 404.2667 511.25 394.1 486.55 C 384.76666 463.81668 376.31665 446.83334 368.75 435.6 Z M 309.3 194.4 L 309.3 194.35 Z M 365.6 375.75 L 365.6 375.7 Z M 362.65 385.75 C 366.5833 391.51666 368.69998 398.06665 369.0 405.4 C 369.36667 413.7 367.4 421.15002 363.1 427.75 C 358.6667 421.98334 353.88336 416.68335 348.75 411.85 L 354.8 411.55 L 359.65 411.05 C 359.21667 403.61667 360.2 395.25 362.6 385.95 L 362.65 385.75 Z"/>
			<path fill="#C8C7C7" stroke-linecap="round" stroke-linejoin="round" d="M 309.3 194.35 L 309.3 194.4 C 306.3 201.46666 301.85 206.31667 295.95 208.95 C 290.65 211.35 284.84998 211.75 278.55 210.15 C 272.48334 208.58333 267.13333 205.53333 262.5 201.0 C 257.66666 196.26666 254.59999 190.86667 253.3 184.8 L 252.35 182.3 L 252.25 182.4 C 251.91667 182.8 251.88333 182.63333 252.15 181.9 L 251.9 181.85 C 248.59999 169.85 245.11665 158.51668 241.45 147.85 C 231.45 118.75 220.11667 94.51666 207.45 75.15 C 200.95 65.25 193.96666 56.38333 186.5 48.55 C 181.93333 43.783333 176.08333 38.4 168.95 32.4 C 157.75 22.933334 149.93333 16.566666 145.5 13.3 C 134.63333 5.3999996 125.96667 0.98333263 119.5 0.05 C 143.16667 -0.28333333 161.68333 1.3666667 175.05 5.0 C 185.05 7.7000003 197.03334 13.316668 211.0 21.85 C 225.86667 30.883335 240.23334 45.15 254.1 64.65 C 262.23334 76.083336 273.03333 94.100006 286.5 118.7 C 292.66666 129.9 297.5833 142.16666 301.25 155.5 C 303.51666 163.66667 305.9 174.86667 308.4 189.1 L 309.3 194.35 Z M 122.05 261.2 C 104.183334 254.13335 86.76666 243.41667 69.8 229.05 C 52.766666 214.61667 38.366665 198.33333 26.6 180.2 C 14.1 160.96667 5.9833336 141.75002 2.25 122.55 C -1.8500004 101.51666 -0.35000038 82.01666 6.75 64.05 C 13.85 97.28334 27.05 127.93334 46.35 156.0 C 67.98334 187.53334 93.433334 209.38335 122.7 221.55 C 119.7 233.28333 119.48333 246.5 122.05 261.2 Z"/>
			<path fill="#878787" stroke-linecap="round" stroke-linejoin="round" d="M 309.3 194.4 L 309.8 194.75 C 316.0 195.91667 323.15 196.68333 331.25 197.05 C 338.71667 197.38333 345.9167 197.33333 352.85 196.9 C 361.55 196.33333 367.18332 197.18333 369.75 199.45 C 372.18332 201.55 374.41666 207.33334 376.45 216.8 C 379.81668 232.36667 375.31668 239.48334 362.95 238.15 C 358.58334 237.68333 352.71667 236.08334 345.35 233.35 C 337.11667 230.08333 331.23334 227.81667 327.7 226.55 L 329.3 227.2 C 332.43332 232.5 334.91666 237.08333 336.75 240.95 C 339.15 246.01666 342.88333 253.01666 347.95 261.95 C 354.18332 272.88333 358.3 280.25 360.3 284.05 C 369.76666 302.05 374.85 317.38333 375.55 330.05 C 375.88333 336.78333 374.93335 344.44998 372.7 353.05 L 365.6 375.7 L 365.2 375.3 L 359.75 370.2 L 359.8 370.1 C 361.86667 366.83334 363.28333 362.9167 364.05 358.35 C 364.81668 353.75 364.73334 349.4 363.8 345.3 C 361.6 335.26666 355.83334 330.63333 346.5 331.4 C 338.6 332.03333 329.58334 337.21667 319.45 346.95 L 307.4 359.2 C 302.8 363.93332 299.0 367.3833 296.0 369.55 C 284.76666 377.81668 276.61667 384.21667 271.55 388.75 C 268.01666 391.94998 265.31668 394.74997 263.45 397.15 C 249.21667 378.68335 238.21667 365.13336 230.45 356.5 C 216.85 341.30002 205.13335 332.7 195.3 330.7 C 193.26666 330.30002 190.48332 330.35 186.95 330.85 L 177.7 331.85 C 174.33333 331.81665 170.95 331.0833 167.55 329.65 L 132.6 296.75 L 134.0 298.65 L 130.9 294.5 C 123.9 284.56668 120.01667 275.0 119.25 265.8 L 122.05 261.2 C 119.48333 246.5 119.7 233.28333 122.7 221.55 C 125.7 209.75 131.53333 199.46666 140.2 190.7 C 154.1 176.63333 176.76668 165.38333 208.2 156.95 C 210.1 156.45 215.48334 154.61667 224.35 151.45 C 230.25 149.31667 235.83333 148.03334 241.1 147.6 L 241.45 147.85 C 245.11667 158.51668 248.6 169.85 251.9 181.85 L 252.15 181.9 C 251.88333 182.63333 251.91667 182.8 252.25 182.4 L 252.35 182.3 L 253.3 184.8 C 254.6 190.86667 257.6667 196.26666 262.5 201.0 C 267.13333 205.53334 272.48334 208.58334 278.55 210.15 C 284.85 211.75 290.65002 211.35 295.95 208.95 C 301.85 206.31667 306.3 201.46666 309.3 194.4 Z M 365.6 375.7 L 365.6 375.75 Z M 357.35 379.5 C 359.38333 381.46667 361.15 383.55002 362.65 385.75 L 362.6 385.95 C 360.2 395.25 359.21667 403.61667 359.65 411.05 L 354.8 411.55 L 348.75 411.85 L 348.65 411.85 C 338.68335 412.18335 332.1667 413.1 329.1 414.6 C 323.63333 417.3 320.61667 423.21664 320.05 432.35 C 310.68332 431.71667 303.36667 430.23334 298.1 427.9 C 296.5 425.43335 295.21667 422.85 294.25 420.15 C 297.15 418.55 300.35 416.05 303.85 412.65 L 312.1 404.35 C 320.0 396.88333 328.13333 390.94998 336.5 386.55 L 345.45 381.95 C 348.88333 380.11667 351.69998 378.31665 353.9 376.55 L 357.35 379.5 Z M 353.9 376.55 L 353.95 376.55 Z M 294.25 420.15 L 294.3 420.1 Z M 298.1 427.9 L 298.05 427.9 Z"/>
			<path fill="#A8A6A7" stroke-linecap="round" stroke-linejoin="round" d="M 365.6 375.75 C 373.13333 384.11667 377.16666 393.98334 377.7 405.35 C 378.2 416.65 375.18335 426.68332 368.65 435.45 L 365.3 439.5 C 356.43332 449.19998 345.44998 454.3333 332.35 454.9 C 319.25 455.46667 307.86667 451.33334 298.2 442.5 C 292.0 436.83334 287.66666 430.28336 285.2 422.85 C 283.80002 418.68335 283.0 414.25 282.8 409.55 C 282.69998 406.51666 282.84998 403.53333 283.25 400.6 L 291.3 397.25 L 293.7 396.25 L 293.6 396.6 C 292.43335 400.56665 291.95 404.6333 292.15 408.8 C 292.31665 412.83334 293.01666 416.61667 294.25 420.15 C 295.21667 422.85 296.48334 425.43335 298.05 427.9 C 299.85 430.6 302.03336 433.13333 304.6 435.5 C 312.43335 442.66666 321.6667 446.01666 332.3 445.55 C 342.9 445.08334 351.78333 440.93335 358.95 433.1 C 360.51666 431.4 361.9 429.61667 363.1 427.75 C 367.4 421.15 369.36667 413.69998 369.0 405.4 C 368.69998 398.06665 366.5833 391.51666 362.65 385.75 C 361.15 383.55002 359.38333 381.46667 357.35 379.5 L 353.95 376.55 C 347.38333 371.41666 339.8 368.78333 331.2 368.65 L 336.3 361.05 L 336.7 360.4 L 336.85 360.45 C 345.51666 361.65 353.15 364.9 359.75 370.2 L 365.2 375.3 L 365.6 375.75 Z"/>
			<path fill="#585959" stroke-linecap="round" stroke-linejoin="round" d="M 285.2 422.85 C 280.7 423.01666 276.15 421.11667 271.55 417.15 C 270.38333 416.15 266.83334 412.38333 260.9 405.85 L 260.55 405.2 C 259.78333 403.33334 260.75 400.65 263.45 397.15 C 265.31668 394.75 268.01666 391.95 271.55 388.75 C 276.61667 384.21667 284.76666 377.81668 296.0 369.55 C 299.0 367.38333 302.8 363.93335 307.4 359.2 L 319.45 346.95 C 329.58334 337.21667 338.6 332.03333 346.5 331.4 C 355.83334 330.63333 361.6 335.26666 363.8 345.3 C 364.73334 349.4 364.81668 353.75 364.05 358.35 C 363.28333 362.9167 361.86667 366.83334 359.8 370.1 L 359.75 370.2 C 353.15 364.9 345.51666 361.65 336.85 360.45 L 336.7 360.4 L 336.3 361.05 L 331.2 368.65 C 339.80002 368.78333 347.38336 371.41666 353.95 376.55 C 351.71667 378.31668 348.88333 380.1167 345.45 381.95 L 336.5 386.55 C 328.13333 390.94998 320.0 396.88333 312.1 404.35 L 303.85 412.65 C 300.35 416.05 297.16666 418.53333 294.3 420.1 C 293.03333 416.6 292.31665 412.83334 292.15 408.8 C 291.95 404.63333 292.43335 400.56668 293.6 396.6 L 293.7 396.25 L 291.3 397.25 L 283.25 400.6 C 282.85 403.53333 282.7 406.51666 282.8 409.55 C 283.0 414.25 283.80002 418.68335 285.2 422.85 Z M 353.95 376.55 L 353.9 376.55 Z M 294.3 420.1 L 294.25 420.15 Z"/>
			<path fill="#7A7B7B" stroke-linecap="round" stroke-linejoin="round" d="M 167.55 329.65 L 167.6 329.7 L 171.0 337.25 C 172.59999 340.61667 173.73332 343.35 174.4 345.45 C 176.43333 351.98334 175.55 356.91666 171.75 360.25 C 167.51666 363.94998 160.03333 364.09998 149.3 360.7 C 143.16667 358.76666 136.05 355.66666 127.95 351.4 C 130.95 349.5 133.36667 345.98334 135.2 340.85 C 136.9 336.21667 137.93333 330.83334 138.3 324.7 C 138.63333 318.80002 138.31667 313.31668 137.35 308.25 C 136.55 304.18332 135.43333 300.9833 134.0 298.65 L 132.6 296.75 L 167.55 329.65 Z"/>
			<path fill="none" stroke="#373535" stroke-width="4.0" stroke-linecap="round" stroke-linejoin="round" d="M 293.6 396.6 L 291.3 397.25"/>
			<path fill="none" stroke="#373535" stroke-width="4.0" stroke-linecap="round" stroke-linejoin="round" d="M 336.85 360.45 C 338.81665 358.31668 340.8333 356.63333 342.9 355.4 C 346.5 353.26666 349.93335 352.7 353.2 353.7 C 354.23334 355.73334 354.81668 357.9 354.95 360.2 M 336.3 361.05 L 336.85 360.45 M 334.9 362.65 L 336.3 361.05 M 329.6 372.35 C 330.6 368.98334 332.36667 365.75 334.9 362.65 M 335.5 374.45 C 330.33334 377.28336 328.36667 376.58334 329.6 372.35 M 296.95 396.2 C 298.98334 396.96667 299.95 398.51666 299.85 400.85 C 299.78333 402.98334 298.96664 404.78333 297.4 406.25 M 293.6 396.6 L 296.95 396.2 M 277.3 404.85 C 280.33334 402.05 283.75 399.93332 287.55 398.5 L 291.3 397.25 M 277.0 413.85 C 273.06668 411.61667 273.1667 408.61667 277.3 404.85"/>
		</g>
	</g>
</svg>
