<?xml version="1.0" encoding="utf-8"?>
<!DOCTYPE svg PUBLIC "-//W3C//DTD SVG 1.1//EN" "http://www.w3.org/Graphics/SVG/1.1/DTD/svg11.dtd">
<svg version="1.1" xmlns="http://www.w3.org/2000/svg" xmlns:xlink="http://www.w3.org/1999/xlink" xmlns:ev="http://www.w3.org/2001/xml-events" width="550.0px" height="400.0px" overflow="visible" viewBox="0.0 0.0 550.0 400.0" enable-background="new 0.0 0.0 550.0 400.0">
	<defs/>
	<rect width="550.0px" height="400.0px" x="0px" y="0px" fill="#FFFFFF"/>
	<g>
		<g transform="matrix(1.0 0.0 0.0 1.0 0.0 0.0)">
			<path fill="#9D9E9E" stroke-linecap="round" stroke-linejoin="round" d="M 423.2 269.55 L 423.05 269.5 L 420.85 268.75 L 420.75 268.95 C 417.35 268.05002 414.1667 266.71667 411.2 264.95 C 405.26666 261.41666 401.75 256.68332 400.65 250.75 C 399.78333 245.91667 400.5 239.85 402.8 232.55 L 403.4 229.95 C 390.26666 231.45 377.03333 231.75 363.7 230.85 C 349.9 229.91667 336.8333 227.75 324.5 224.35 C 320.30002 223.18333 315.80002 220.38333 311.0 215.95 C 309.03333 214.11667 304.93332 209.73334 298.7 202.8 L 294.85 198.65 L 303.15 172.9 C 305.75 174.9 308.73334 177.45 312.1 180.55 L 323.55 191.45 C 330.25 197.68333 339.15 201.81667 350.25 203.85 C 356.75 205.05 366.75 206.05 380.25 206.85 L 409.25 208.3 C 421.61667 209.16667 430.81668 211.3 436.85 214.7 C 440.11667 216.53333 443.06668 219.63333 445.7 224.0 C 448.2 228.16667 450.03336 232.83334 451.2 238.0 C 452.43332 243.3 452.7333 248.25 452.1 252.85 C 451.43335 257.85 449.75 261.78333 447.05 264.65 C 445.25 266.5833 443.05002 268.01666 440.45 268.95 C 437.35 270.05002 433.7 270.5 429.5 270.3 L 423.2 269.55 Z M 223.3 181.45 C 226.1 178.85 228.65001 176.63335 230.95 174.8 L 238.7 198.45 L 235.05 202.35 C 228.85 209.25 224.73334 213.63333 222.7 215.5 C 217.93333 219.93333 213.43333 222.73334 209.2 223.9 C 196.9 227.3 183.84999 229.46667 170.05 230.4 C 156.71667 231.26666 143.46667 230.96666 130.3 229.5 L 132.55 233.45 C 134.88333 240.75 135.59999 246.81667 134.7 251.65 C 133.6 257.55 130.08334 262.28333 124.15 265.85 L 122.5 266.8 L 122.4 266.85 L 120.15 267.7 L 120.25 267.9 C 115.88333 269.8333 111.1 270.93332 105.9 271.2 L 103.6 271.25 L 101.25 270.45 L 101.0 271.15 C 95.6 270.65 91.36667 268.8 88.3 265.6 C 85.6 262.7 83.916664 258.75 83.25 253.75 C 82.65 249.15001 82.950005 244.20001 84.15 238.9 C 85.316666 233.73332 87.15 229.06665 89.65 224.9 C 92.28333 220.53334 95.23333 217.43335 98.5 215.6 C 104.53333 212.2 113.73333 210.06667 126.1 209.2 L 155.1 207.75 L 170.2 206.55 L 185.1 204.75 C 196.2 202.75 205.11667 198.61667 211.85 192.35 L 223.3 181.45 Z M 122.4 266.85 L 122.35 266.85 Z"/>
			<path fill="#848384" stroke-linecap="round" stroke-linejoin="round" d="M 303.15 172.9 L 294.85 198.65 L 286.65 224.05 L 279.8 224.05 L 256.65 224.05 L 247.1 224.05 L 238.7 198.45 L 230.95 174.8 L 221.2 145.0 L 246.1 145.0 L 282.45 145.0 L 312.1 145.0 L 303.15 172.9 Z M 271.2 100.35 L 322.45 100.35 L 322.45 109.45 L 295.8 109.45 L 295.8 118.85 L 282.45 118.85 L 246.1 118.85 L 228.55 118.85 L 228.55 109.45 L 202.5 109.45 L 202.5 100.35 L 256.05 100.35 L 271.2 100.35 Z"/>
			<path fill="#C1C0C0" stroke-linecap="round" stroke-linejoin="round" d="M 420.75 268.95 L 420.85 268.75 L 423.05 269.5 L 425.6 270.35 L 392.4 368.45 L 392.15 369.25 L 389.75 368.45 L 387.4 367.65 L 420.75 268.95 Z M 474.6 368.45 L 438.1 269.85 L 442.8 268.1 L 479.6 367.6 L 477.25 368.45 L 474.9 369.35 L 474.6 368.45 Z M 101.0 271.15 L 101.25 270.45 L 103.6 271.25 L 106.0 272.05 L 74.9 363.95 L 74.65 364.75 L 72.25 363.95 L 69.9 363.15 L 101.0 271.15 Z M 120.25 267.9 L 120.15 267.7 L 122.35 266.85 L 122.5 266.8 L 124.85 265.95 L 160.85 363.1 L 158.5 363.95 L 156.15 364.85 L 155.85 363.95 L 120.25 267.9 Z M 122.35 266.85 L 122.4 266.85 Z"/>
			<path fill="#656666" stroke-linecap="round" stroke-linejoin="round" d="M 392.4 368.45 L 474.6 368.45 L 474.9 369.35 L 477.25 368.45 L 509.7 368.45 C 509.7 380.01666 502.4 389.88333 487.8 398.05 C 473.19998 406.21664 455.5833 410.3 434.95 410.3 C 414.31668 410.3 396.7 406.21664 382.1 398.05 C 367.5 389.88333 360.2 380.01666 360.2 368.45 L 389.75 368.45 L 392.15 369.25 L 392.4 368.45 Z M 158.5 363.95 L 189.75 363.95 C 189.75 375.48334 182.45 385.33334 167.85 393.5 C 153.25 401.66666 135.63333 405.75 115.0 405.75 C 94.36667 405.75 76.75 401.66666 62.15 393.5 C 47.55 385.33334 40.25 375.48334 40.25 363.95 L 72.25 363.95 L 74.65 364.75 L 74.9 363.95 L 155.85 363.95 L 156.15 364.85 L 158.5 363.95 Z"/>
			<path fill="#494A4A" stroke-linecap="round" stroke-linejoin="round" d="M 256.05 100.35 C 253.58333 99.51666 251.45 98.23333 249.65 96.5 C 245.78334 92.76667 243.85 87.38334 243.85 80.35 C 243.85 72.58333 245.36667 62.549995 248.4 50.25 C 251.83333 36.316666 255.6 27.433332 259.7 23.6 L 259.65 23.5 C 257.28333 22.666666 255.34999 21.216665 253.85 19.15 C 252.31667 17.05 251.55 14.699999 251.55 12.1 C 251.55 8.766666 252.73334 5.916666 255.1 3.55 C 257.46667 1.1833332 260.31668 -2.3841858E-7 263.65 0.0 C 266.98334 0.0 269.83334 1.1833334 272.2 3.55 C 274.56668 5.916667 275.75 8.766667 275.75 12.1 C 275.75 14.766667 274.96667 17.133335 273.4 19.2 C 271.86667 21.2 269.86667 22.6 267.4 23.4 L 267.45 23.55 C 271.58334 27.35 275.36667 36.233334 278.8 50.2 C 281.83334 62.533333 283.35 72.58333 283.35 80.35 C 283.35 87.38333 281.41666 92.76666 277.55 96.5 C 275.75 98.23333 273.63333 99.51666 271.2 100.35 L 256.05 100.35 Z M 282.45 118.85 L 282.45 145.0 L 246.1 145.0 L 246.1 118.85 L 282.45 118.85 Z M 256.65 240.75 L 256.65 224.05 L 279.8 224.05 L 279.8 240.75 L 256.65 240.75 Z M 281.2 444.8 L 281.2 507.6 L 253.9 507.85 L 253.9 444.8 L 281.2 444.8 Z"/>
			<path fill="#C3C0C1" stroke-linecap="round" stroke-linejoin="round" d="M 253.9 444.8 L 245.2 444.8 L 245.2 240.75 L 256.65 240.75 L 279.8 240.75 L 291.55 240.75 L 291.55 444.8 L 281.2 444.8 L 253.9 444.8 Z"/>
			<path fill="#636263" stroke-linecap="round" stroke-linejoin="round" d="M 281.2 507.6 L 300.35 507.4 C 322.18335 522.26666 346.11667 531.5333 372.15 535.2 L 372.45 535.7 L 372.45 558.4 L 164.3 558.4 L 164.3 535.7 L 164.35 535.85 C 177.38333 533.98334 190.01666 530.6667 202.25 525.9 C 214.18333 521.23334 225.46667 515.26666 236.1 508.0 L 253.9 507.85 L 281.2 507.6 Z"/>
		</g>
	</g>
</svg>
