<?xml version="1.0" encoding="utf-8"?>
<!DOCTYPE svg PUBLIC "-//W3C//DTD SVG 1.1//EN" "http://www.w3.org/Graphics/SVG/1.1/DTD/svg11.dtd">
<svg version="1.1" xmlns="http://www.w3.org/2000/svg" xmlns:xlink="http://www.w3.org/1999/xlink" xmlns:ev="http://www.w3.org/2001/xml-events" width="550.0px" height="400.0px" overflow="visible" viewBox="0.0 0.0 550.0 400.0" enable-background="new 0.0 0.0 550.0 400.0">
	<defs/>
	<rect width="550.0px" height="400.0px" x="0px" y="0px" fill="#FFFFFF"/>
	<g>
		<g transform="matrix(1.0 0.0 0.0 1.0 0.0 0.0)">
			<path fill="#686768" stroke-linecap="round" stroke-linejoin="round" d="M 214.4 135.9 L 208.95 136.7 C 207.45 133.5 206.41667 130.7 205.85 128.3 C 205.11667 125.3 204.95 122.333336 205.35 119.4 C 205.45 118.63333 206.29999 115.183334 207.9 109.05 C 208.93333 104.98333 209.2 101.45 208.7 98.45 L 206.7 90.15 C 206.06667 87.183334 206.05 84.333336 206.65 81.6 L 209.75 71.15 C 210.98334 67.083336 211.48334 63.500004 211.25 60.4 L 210.5 53.45 C 210.36667 51.11667 210.7 48.800003 211.5 46.5 L 213.9 39.6 L 216.0 32.75 L 217.15 28.05 C 218.11667 23.05 221.06667 19.15 226.0 16.35 C 226.66667 15.95 228.95001 14.799999 232.85 12.9 C 235.78334 11.5 238.15001 10.133333 239.95 8.8 C 246.58333 3.9333334 250.58333 1.25 251.95 0.75 C 256.31665 -0.95000005 260.65 0.1500001 264.95 4.05 L 266.95 2.7 C 275.78336 -0.53333354 283.73334 2.0166667 290.8 10.35 C 297.1 17.716667 300.55002 26.3 301.15 36.1 L 301.6 42.9 C 301.96667 44.933334 302.96667 46.86667 304.6 48.7 C 306.03333 50.3 307.66666 51.8 309.5 53.2 C 310.46667 54.433334 310.55002 56.716667 309.75 60.05 C 309.28333 62.11667 308.35 64.816666 306.95 68.15 C 306.08334 71.05 306.30002 73.78333 307.6 76.35 C 308.23334 77.65 309.6 79.41667 311.7 81.65 C 313.73334 83.85 315.08334 85.65 315.75 87.05 C 317.01666 89.65 317.46667 92.433334 317.1 95.4 L 315.9 103.7 C 315.8 105.86666 315.96664 108.73333 316.4 112.3 C 316.46667 114.53333 316.11667 116.6 315.35 118.5 C 313.11667 116.700005 310.08334 114.8 306.25 112.8 C 304.55002 111.9 301.06668 110.85 295.8 109.65 L 294.85 109.45 L 294.95 109.1 C 294.01666 106.933334 291.78333 105.63333 288.25 105.2 L 278.95 105.45 C 277.91666 106.25 277.0 107.23334 276.2 108.4 L 276.25 106.8 C 275.31668 105.23333 274.7 100.13333 274.4 91.5 C 274.23334 85.700005 274.33334 81.833336 274.7 79.9 C 275.73334 78.1 276.66666 76.13333 277.5 74.0 L 279.3 68.85 L 273.05 63.35 C 272.81668 59.983334 272.2 57.683334 271.2 56.45 C 269.73334 55.11667 268.45 53.583336 267.35 51.85 C 266.35 50.316666 265.88333 48.066666 265.95 45.1 C 266.25 41.8 266.36667 39.416668 266.3 37.95 C 266.06668 33.05 264.53336 29.683332 261.7 27.85 C 258.66666 25.883333 255.08331 26.416666 250.95 29.45 L 250.45 29.95 C 249.45 29.283335 248.65 28.333334 248.05 27.1 L 246.85 24.2 C 246.35 23.066668 245.55 22.5 244.45 22.5 L 241.45 23.4 C 239.05 24.666666 237.53334 27.383333 236.9 31.55 C 236.56667 33.716667 236.48334 35.75 236.65 37.65 C 231.58333 42.25 228.13333 45.716667 226.3 48.05 C 226.4 57.95 226.7 64.73334 227.2 68.4 C 228.43333 77.7 231.26666 84.85 235.7 89.85 C 239.63333 94.316666 244.35 96.5 249.85 96.4 C 251.48334 97.4 251.01666 99.48334 248.45 102.65 C 246.31667 105.25 244.23334 107.13333 242.2 108.3 L 242.25 108.1 L 242.95 107.45 C 240.88333 107.916664 238.66667 108.88333 236.3 110.35 C 233.7 111.98334 231.7 113.083336 230.3 113.65 L 230.15 113.65 C 229.08333 113.583336 227.56667 114.183334 225.6 115.45 C 219.63333 119.28333 215.96666 125.63333 214.6 134.5 L 214.4 135.9 Z M 230.25 113.45 L 230.1 113.65 L 230.25 113.45 Z"/>
			<path fill="#D0D0D0" stroke-linecap="round" stroke-linejoin="round" d="M 315.35 118.5 L 318.25 121.3 C 320.94998 124.566666 322.71664 129.33333 323.55 135.6 C 324.05 139.43333 324.36667 144.96666 324.5 152.2 C 324.6 159.63333 324.86667 165.13333 325.3 168.7 C 326.03333 174.66666 328.16666 184.56665 331.7 198.4 C 334.83334 210.66667 336.58334 220.61667 336.95 228.25 C 337.25 233.84999 337.98334 239.88333 339.15 246.35 L 342.85 263.55 C 343.55 264.41666 344.46664 265.3 345.6 266.2 L 349.25 269.05 L 349.9 269.6 L 348.35 269.8 C 345.55 270.5 343.75 272.16666 342.95 274.8 L 342.55 273.3 L 342.15 271.75 C 339.65 271.78333 337.73334 272.3333 336.4 273.4 C 335.06665 274.46667 334.13333 276.23334 333.6 278.7 L 330.35 278.55 C 329.4167 279.05 328.71667 279.88333 328.25 281.05 L 327.85 282.5 L 327.05 280.5 C 326.65 276.0 326.16666 272.53333 325.6 270.1 C 323.56665 261.23334 321.1333 253.35 318.3 246.45 C 315.73334 240.21667 313.21667 232.23334 310.75 222.5 C 309.94998 219.36667 309.66666 215.36667 309.9 210.5 L 310.25 198.45 C 309.85 191.35 307.18335 182.63335 302.25 172.3 L 300.75 169.15 L 300.95 167.85 L 296.45 157.6 C 296.25 157.76668 296.01666 157.48334 295.75 156.75 C 295.41666 155.91667 295.0833 155.53334 294.75 155.6 C 293.18332 151.83333 292.13333 148.9 291.6 146.8 C 291.06665 142.96667 291.1333 138.41667 291.8 133.15 L 293.65 121.1 C 294.31665 116.566666 294.5833 113.05 294.45 110.55 L 294.85 109.45 L 295.8 109.65 C 301.06668 110.85 304.55002 111.9 306.25 112.8 C 310.08334 114.8 313.11667 116.700005 315.35 118.5 Z M 332.55 286.35 L 331.95 286.1 L 332.25 285.65 L 332.55 286.35 Z M 212.35 271.25 L 210.25 272.8 C 208.84999 270.13333 208.26666 266.4 208.5 261.6 C 208.63333 259.0 209.15 255.18333 210.05 250.15 C 210.48334 247.75 212.08334 242.01666 214.85 232.95 C 217.01668 225.85 218.15001 220.01668 218.25 215.45 L 219.7 195.5 C 220.13333 187.06667 219.43333 180.6 217.6 176.1 L 216.7 169.65 C 217.7 171.65 219.08333 173.75 220.85 175.95 L 228.25 184.1 L 226.25 183.45 C 228.08333 192.55 228.93333 201.53334 228.8 210.4 C 228.66667 220.9 227.1 229.71666 224.1 236.85 C 220.06667 246.45 216.83333 255.36667 214.4 263.6 C 213.63333 266.1667 212.95 268.71667 212.35 271.25 Z M 215.15 158.65 L 214.95 157.45 C 213.85 148.88333 213.66667 141.7 214.4 135.9 L 214.6 134.5 C 215.96666 125.63333 219.63333 119.28333 225.6 115.45 C 227.56667 114.183334 229.06667 113.583336 230.1 113.65 C 227.16667 116.316666 225.11667 120.11667 223.95 125.05 C 223.65 126.316666 223.03333 130.71666 222.1 138.25 C 221.86667 140.25 221.2 142.58333 220.1 145.25 L 217.15 152.15 C 216.18333 154.48332 215.51666 156.65 215.15 158.65 Z M 230.15 113.65 L 230.3 113.65 L 230.05 113.75 L 230.15 113.65 Z M 242.2 108.3 C 244.23334 107.13334 246.31667 105.25001 248.45 102.65 C 251.01666 99.48334 251.48334 97.4 249.85 96.4 L 254.5 95.75 C 261.23334 94.15 267.0 90.3 271.8 84.2 C 272.83334 82.9 273.80002 81.46667 274.7 79.9 C 274.33334 81.833336 274.23334 85.700005 274.4 91.5 C 274.7 100.13333 275.31668 105.23333 276.25 106.8 L 276.2 108.4 C 273.66666 112.0 272.06665 117.46667 271.4 124.8 C 270.9 130.13333 270.69998 137.43333 270.8 146.7 C 259.1 147.2 247.61668 146.75 236.35 145.35 C 236.31667 139.58333 236.91666 133.29999 238.15 126.5 C 238.84999 122.666664 240.2 116.6 242.2 108.3 Z"/>
			<path fill="#5F5D5E" stroke-linecap="round" stroke-linejoin="round" d="M 349.9 269.6 C 351.9 269.63333 353.16666 270.94998 353.7 273.55 C 356.5 273.31668 358.58334 274.85 359.95 278.15 C 360.51666 279.51666 360.63333 280.7 360.3 281.7 C 359.93332 282.86667 359.05 283.55 357.65 283.75 C 359.21667 285.98334 359.56668 288.38333 358.7 290.95 C 357.76666 293.68332 355.81665 294.44998 352.85 293.25 C 353.95 295.55002 353.43335 297.45 351.3 298.95 C 350.23334 299.71667 348.15 300.61667 345.05 301.65 C 342.75 302.38333 340.53333 302.38333 338.4 301.65 C 336.13333 300.91666 336.43332 299.56665 339.3 297.6 C 337.1 299.03333 335.31668 298.55 333.95 296.15 C 332.61667 293.75 332.5 291.36667 333.6 289.0 L 332.55 286.35 L 332.25 285.65 L 331.95 286.1 L 331.4 286.9 L 330.25 287.7 C 328.21667 286.46667 327.4167 284.73334 327.85 282.5 L 328.25 281.05 C 328.71667 279.88333 329.4167 279.05 330.35 278.55 L 333.6 278.7 C 334.13333 276.23334 335.06665 274.46667 336.4 273.4 C 337.73334 272.3333 339.65 271.78333 342.15 271.75 L 342.55 273.3 L 342.95 274.8 C 343.75 272.16666 345.55 270.5 348.35 269.8 L 349.9 269.6 Z"/>
			<path fill="#909090" stroke-linecap="round" stroke-linejoin="round" d="M 300.75 169.15 C 300.15 172.51666 298.51666 178.9 295.85 188.3 C 293.18335 197.63333 291.96667 204.51666 292.2 208.95 C 292.4 213.41666 293.8 218.38333 296.4 223.85 C 297.9 227.01668 300.38333 231.61667 303.85 237.65 C 310.4167 249.88333 315.30002 264.86667 318.5 282.6 C 320.03333 291.06665 321.93332 306.8 324.2 329.8 C 325.4 341.69998 328.31665 353.13333 332.95 364.1 L 331.6 362.1 L 335.05 369.85 C 338.71664 378.71667 341.9 392.05002 344.6 409.85 L 347.0 424.35 L 345.85 425.9 C 342.21667 429.23334 338.0 431.76666 333.2 433.5 C 328.6 435.1 322.38333 436.38333 314.55 437.35 L 242.75 442.9 L 221.55 442.9 C 212.65 441.3333 205.93332 439.3 201.4 436.8 C 195.09999 433.23334 191.11665 428.05002 189.45 421.25 L 195.9 396.3 C 199.09999 382.86667 201.5 370.7 203.1 359.8 C 204.3 351.8 205.26666 340.43332 206.0 325.7 C 206.8 309.86667 207.63333 298.48334 208.5 291.55 C 209.33333 284.88333 210.61667 278.11667 212.35 271.25 C 212.95 268.71667 213.63333 266.1667 214.4 263.6 C 216.83333 255.36667 220.06667 246.45 224.1 236.85 C 227.1 229.71666 228.66667 220.9 228.8 210.4 C 228.93333 201.53334 228.08333 192.55 226.25 183.45 L 228.25 184.1 L 220.85 175.95 C 219.08333 173.75 217.7 171.65 216.7 169.65 C 216.13333 168.55 215.68333 167.48334 215.35 166.45 C 214.65001 164.18333 214.58334 161.58333 215.15 158.65 C 215.51666 156.65 216.18333 154.48332 217.15 152.15 L 220.1 145.25 C 221.2 142.58333 221.86667 140.25 222.1 138.25 C 223.03334 130.71666 223.65001 126.31666 223.95 125.05 C 225.11667 120.11667 227.16667 116.316666 230.1 113.65 L 230.05 113.75 L 230.3 113.65 C 231.7 113.083336 233.7 111.98334 236.3 110.35 C 238.66667 108.88333 240.88333 107.916664 242.95 107.45 L 242.25 108.1 L 242.2 108.3 C 240.2 116.6 238.84999 122.666664 238.15 126.5 C 236.91667 133.3 236.31668 139.58334 236.35 145.35 C 247.61667 146.75 259.1 147.2 270.8 146.7 C 270.69998 137.43333 270.9 130.13333 271.4 124.8 C 272.06665 117.46667 273.66666 112.0 276.2 108.4 C 277.0 107.23334 277.91666 106.25 278.95 105.45 L 288.25 105.2 C 291.78333 105.63333 294.01666 106.933334 294.95 109.1 L 294.85 109.45 L 294.45 110.55 C 294.58334 113.05 294.31668 116.566666 293.65 121.1 L 291.8 133.15 C 291.13333 138.41667 291.06668 142.96667 291.6 146.8 C 292.1 150.36667 293.13333 153.3 294.7 155.6 C 295.06668 155.53334 295.4167 155.91667 295.75 156.75 C 296.01666 157.48334 296.25 157.76668 296.45 157.6 L 300.95 167.85 L 300.75 169.15 Z M 230.1 113.65 L 230.25 113.45 L 230.15 113.65 Z M 294.7 155.6 L 294.75 155.6 Z"/>
			<path fill="#DDDCDC" stroke-linecap="round" stroke-linejoin="round" d="M 249.85 96.4 C 244.35 96.5 239.63333 94.316666 235.7 89.85 C 231.26666 84.85 228.43333 77.7 227.2 68.4 C 226.7 64.73334 226.4 57.950005 226.3 48.05 C 228.13333 45.716667 231.58333 42.25 236.65 37.65 C 236.48332 35.75 236.56665 33.716667 236.9 31.55 C 237.53334 27.383331 239.05 24.666664 241.45 23.4 L 244.45 22.5 C 245.55 22.5 246.35 23.066668 246.85 24.2 L 248.05 27.1 C 248.65 28.333334 249.45 29.283335 250.45 29.95 L 250.95 29.45 C 255.08333 26.416666 258.66666 25.883333 261.7 27.85 C 264.53336 29.683334 266.06668 33.050003 266.3 37.95 C 266.36667 39.416668 266.25 41.8 265.95 45.1 C 265.88333 48.066666 266.35 50.316666 267.35 51.85 C 268.45 53.583332 269.73334 55.116665 271.2 56.45 C 272.2 57.683334 272.81668 59.983334 273.05 63.35 L 279.3 68.85 L 277.5 74.0 C 276.66666 76.13333 275.73334 78.1 274.7 79.9 C 273.80002 81.46667 272.83334 82.9 271.8 84.2 C 267.0 90.299995 261.23334 94.149994 254.5 95.75 L 249.85 96.4 Z"/>
		</g>
	</g>
</svg>
