<?xml version="1.0" encoding="utf-8"?>
<!DOCTYPE svg PUBLIC "-//W3C//DTD SVG 1.1//EN" "http://www.w3.org/Graphics/SVG/1.1/DTD/svg11.dtd">
<svg version="1.1" xmlns="http://www.w3.org/2000/svg" xmlns:xlink="http://www.w3.org/1999/xlink" xmlns:ev="http://www.w3.org/2001/xml-events" width="550.0px" height="400.0px" overflow="visible" viewBox="0.0 0.0 550.0 400.0" enable-background="new 0.0 0.0 550.0 400.0">
	<defs/>
	<rect width="550.0px" height="400.0px" x="0px" y="0px" fill="#FFFFFF"/>
	<g>
		<g transform="matrix(1.0 0.0 0.0 1.0 0.0 0.0)">
			<path fill="#6E6F6F" stroke-linecap="round" stroke-linejoin="round" d="M 639.8 200.15 L 639.45 200.05 L 637.0 199.15 C 634.76666 197.05 629.51666 193.98334 621.25 189.95 C 611.45 185.15 603.68335 180.78333 597.95 176.85 C 597.45 177.71666 596.4167 178.73332 594.85 179.9 L 592.35 181.9 C 592.45 180.96666 592.38336 179.41666 592.15 177.25 C 591.9167 175.11667 591.85004 173.56667 591.95 172.6 L 587.85 176.85 C 586.11664 178.71666 584.89996 180.41666 584.2 181.95 C 584.5 180.91666 584.7 179.15 584.8 176.65 C 584.8667 173.95 585.00006 172.13333 585.2 171.2 L 577.75 175.45 C 574.68335 177.25 571.88336 177.98334 569.35 177.65 C 577.1833 166.81667 583.85 154.16667 589.35 139.7 C 591.7833 133.26666 593.8 126.93333 595.4 120.7 C 597.43335 112.799995 598.81665 105.066666 599.55 97.5 L 600.95 96.1 C 595.5834 89.2 590.9167 80.83333 586.95 71.0 C 583.18335 61.566666 580.6667 52.3 579.4 43.2 C 588.93335 49.333336 596.26666 55.133335 601.4 60.6 C 605.0667 64.46667 607.88336 68.38333 609.85 72.35 C 610.38336 75.683334 610.7834 79.11667 611.05 82.65 L 611.35 89.1 C 611.4167 90.13333 611.5334 90.166664 611.7 89.2 L 615.45 91.85 C 618.65 93.48334 622.01666 93.91667 625.55 93.15 C 630.55 92.083336 634.18335 90.98334 636.45 89.85 C 637.55 89.28333 638.1666 88.816666 638.3 88.45 L 637.85 86.8 L 641.95 86.45 C 646.95 85.38333 650.5833 84.28333 652.85 83.15 L 654.7 81.75 L 652.7 75.1 L 654.35 74.65 C 657.14996 79.71667 665.1333 85.23333 678.3 91.2 L 693.95 98.15 C 699.6167 100.78333 703.8167 103.11667 706.55 105.15 C 714.68335 111.21667 723.4167 119.86667 732.75 131.1 L 756.1 159.6 L 756.1 160.05 C 759.39996 165.85 760.06665 172.43333 758.1 179.8 C 756.3 186.7 752.81665 192.38333 747.65 196.85 C 744.01666 198.65001 740.36664 200.43333 736.7 202.2 C 742.9 207.06667 746.30005 212.63333 746.9 218.9 C 747.5333 225.4 744.9333 231.34999 739.1 236.75 L 736.1 239.25 C 736.0 242.05 735.65 244.90001 735.05 247.8 C 734.4166 251.06667 732.85 256.48334 730.35 264.05 C 730.7833 257.75 731.6667 253.06667 733.0 250.0 C 731.73334 252.7 729.9667 256.78333 727.7 262.25 C 725.4667 267.18332 723.2167 271.09998 720.95 274.0 L 724.6 263.85 L 727.75 253.7 C 724.31665 259.63333 721.56665 264.11667 719.5 267.15 C 715.86664 272.45 712.2166 276.11667 708.55 278.15 C 713.1167 271.55 717.2 264.06665 720.8 255.7 C 718.7 257.9 715.0667 262.28333 709.9 268.85 C 705.4667 274.45 701.7 278.65002 698.6 281.45 C 701.4667 278.38333 704.0667 274.46667 706.4 269.7 C 708.5667 265.23334 710.15 260.8 711.15 256.4 C 707.8167 258.96667 704.95 262.4167 702.55 266.75 C 700.51666 270.48334 698.9 274.68335 697.7 279.35 C 697.8 273.4167 698.1 268.88336 698.6 265.75 C 699.39996 260.68332 700.89996 256.44998 703.1 253.05 C 696.6667 260.55 691.9667 269.26666 689.0 279.2 C 688.6667 273.9 689.6667 267.73334 692.0 260.7 C 694.13336 254.23334 696.85004 248.51666 700.15 243.55 C 695.3167 246.98334 689.9834 253.63333 684.15 263.5 C 685.38336 256.9 688.9667 249.43333 694.9 241.1 C 697.26666 237.76668 699.61664 234.93335 701.95 232.6 L 690.9 225.05 L 674.95 214.15 C 662.31665 206.05 650.6 201.38333 639.8 200.15 Z"/>
			<path fill="#9E9D9D" stroke-linecap="round" stroke-linejoin="round" d="M 652.7 75.1 L 654.7 81.75 L 652.85 83.15 C 650.5833 84.28333 646.95 85.38333 641.95 86.45 L 637.85 86.8 L 638.3 88.45 C 638.1666 88.816666 637.55 89.28333 636.45 89.85 C 634.18335 90.98334 630.55 92.083336 625.55 93.15 C 622.01666 93.91667 618.65 93.48334 615.45 91.85 L 611.7 89.2 C 611.5333 90.166664 611.4166 90.13333 611.35 89.1 L 611.05 82.65 C 610.7833 79.11667 610.3833 75.683334 609.85 72.35 C 609.01666 67.21667 607.8667 62.3 606.4 57.6 C 597.9 30.266665 580.23334 13.33333 553.4 6.8 C 577.5 5.7666664 596.98334 14.266666 611.85 32.3 C 615.05 36.2 618.1 40.666668 621.0 45.7 C 611.93335 21.433332 594.85004 6.2333317 569.75 0.1 C 593.88336 -0.9333334 613.38336 7.5666666 628.25 25.6 C 637.68335 37.066666 645.8334 53.566666 652.7 75.1 Z M 595.4 120.7 C 593.8 126.933334 591.7833 133.26666 589.35 139.7 C 583.85 154.16666 577.1833 166.81665 569.35 177.65 C 571.88336 177.98332 574.68335 177.24998 577.75 175.45 L 585.2 171.2 C 585.0 172.13333 584.86664 173.95 584.8 176.65 C 584.7 179.15 584.5 180.91666 584.2 181.95 C 584.9 180.41666 586.1167 178.71666 587.85 176.85 L 591.95 172.6 C 591.85 173.56667 591.9166 175.11667 592.15 177.25 C 592.38336 179.41667 592.45 180.96667 592.35 181.9 L 594.85 179.9 C 596.4167 178.73332 597.45 177.71666 597.95 176.85 C 603.68335 180.78334 611.45 185.15001 621.25 189.95 C 629.51666 193.98334 634.76666 197.05 637.0 199.15 L 639.45 200.05 L 640.2 201.7 C 636.5333 217.43333 635.45 235.03334 636.95 254.5 C 637.75 265.0 640.25 282.55 644.45 307.15 L 647.7 328.05 C 649.1 337.25 650.4666 344.95 651.8 351.15 C 655.7 369.48334 660.9 383.18335 667.4 392.25 C 666.0333 391.61667 664.01666 391.0 661.35 390.4 C 658.25 389.7 656.26666 389.2 655.4 388.9 C 655.93335 391.26666 656.95 394.71667 658.45 399.25 C 659.55 403.35 659.85 406.98334 659.35 410.15 C 659.0833 407.35 658.3 404.86667 657.0 402.7 C 655.60004 400.43332 653.7167 398.6333 651.35 397.3 C 651.1833 400.3 651.1833 405.18332 651.35 411.95 C 651.25 417.91666 650.3667 422.44998 648.7 425.55 C 647.8334 422.81668 647.30005 419.45 647.1 415.45 L 646.7 405.2 L 640.65 418.35 C 637.98334 423.45 635.18335 427.46667 632.25 430.4 C 631.7167 427.9 631.63336 424.85 632.0 421.25 L 633.15 412.4 C 629.95 415.86667 625.55 418.85 619.95 421.35 C 617.31665 422.51666 612.2833 424.3333 604.85 426.8 C 607.45 423.4 610.13336 418.45 612.9 411.95 L 602.45 412.4 C 600.51666 416.86667 596.6 420.76666 590.7 424.1 C 583.8334 427.96667 574.85004 430.75 563.75 432.45 C 552.85004 434.08334 534.2167 434.4167 507.85 433.45 C 481.15 432.45 462.65 432.55002 452.35 433.75 L 452.95 433.5 C 452.05002 430.33334 451.6 426.83334 451.6 423.0 C 451.6 421.43332 451.68335 419.93332 451.85 418.5 C 452.05 416.26666 452.43332 414.15 453.0 412.15 C 449.46667 411.98334 445.03336 412.05002 439.7 412.35 L 437.4 412.5 L 435.65 412.65 L 435.1 412.65 L 421.75 413.3 L 420.4 413.3 L 419.8 414.85 C 419.3 416.35 418.98334 418.0 418.85 419.8 L 391.8 420.9 C 390.23334 415.73334 388.4167 410.61667 386.35 405.55 C 382.78333 396.85 378.16666 388.86667 372.5 381.6 C 367.16666 374.76666 360.65 368.28333 352.95 362.15 L 352.1 362.8 C 357.2 354.36667 361.06668 346.0 363.7 337.7 C 366.46667 328.96667 368.0 319.9 368.3 310.5 C 368.9 291.83334 366.46667 273.53336 361.0 255.6 C 355.4 237.36667 347.21667 221.35 336.45 207.55 C 331.01666 200.58334 325.11667 194.46667 318.75 189.2 C 324.81668 186.06667 330.2667 183.36667 335.1 181.1 C 349.96667 174.1 364.25 168.56667 377.95 164.5 C 387.81668 161.56667 403.1667 157.75 424.0 153.05 C 442.5 148.31667 457.2 142.83333 468.1 136.6 C 472.63333 134.0 478.13333 130.26666 484.6 125.4 C 493.3 118.86667 498.55 114.98334 500.35 113.75 C 512.95 105.11667 525.1167 100.6 536.85 100.2 C 546.35 99.9 557.85 102.950005 571.35 109.35 L 587.8 117.4 C 590.4667 118.63333 593.0 119.73333 595.4 120.7 Z M 214.4 255.55 L 214.25 254.95 C 223.15001 249.85 236.45001 241.03334 254.15 228.5 C 268.85 218.09999 280.83334 210.18332 290.1 204.75 C 297.23334 218.61667 300.88333 235.48334 301.05 255.35 C 301.25 277.08334 297.38333 295.4 289.45 310.3 C 282.95 322.53333 273.80002 332.3 262.0 339.6 L 215.6 254.9 L 214.4 255.55 Z"/>
			<path fill="#373535" stroke-linecap="round" stroke-linejoin="round" d="M 452.35 433.75 C 446.08334 436.11667 441.4167 437.96667 438.35 439.3 C 432.81665 441.66666 428.6333 444.68332 425.8 448.35 C 423.0 442.15 421.01666 436.36667 419.85 431.0 C 418.95 426.76666 418.61667 423.03333 418.85 419.8 C 418.98334 418.0 419.3 416.35 419.8 414.85 L 420.4 413.3 L 421.75 413.3 L 435.1 412.65 L 435.65 412.65 L 437.4 412.5 L 439.7 412.35 C 445.03336 412.05 449.46667 411.9833 453.0 412.15 C 452.43332 414.15 452.05 416.26666 451.85 418.5 C 451.68335 419.93332 451.6 421.43332 451.6 423.0 C 451.6 426.83334 452.05002 430.33334 452.95 433.5 L 452.35 433.75 Z"/>
			<path fill="#737373" stroke-linecap="round" stroke-linejoin="round" d="M 391.8 420.9 C 395.56668 433.43335 397.83334 446.31668 398.6 459.55 C 399.7 478.61667 397.6 496.48334 392.3 513.15 C 386.66666 530.8167 377.86667 545.7 365.9 557.8 C 353.53333 570.23334 338.44998 579.01666 320.65 584.15 C 350.75 558.0833 358.03333 523.5833 342.5 480.65 C 335.1 460.21667 325.1 444.40002 312.5 433.2 C 298.43332 420.66666 281.4 414.13333 261.4 413.6 L 260.65 415.05 C 240.11667 421.55 222.03334 432.68332 206.4 448.45 C 200.0 454.88333 193.21667 462.81665 186.05 472.25 C 182.25 477.31668 175.75 486.40002 166.55 499.5 C 148.25 525.5 130.3 543.8 112.7 554.4 C 87.96666 569.23334 64.2 568.86664 41.4 553.3 C 30.166666 545.6333 21.066666 535.75 14.1 523.65 C 7.5666666 512.2833 3.2833328 499.65 1.25 485.75 C -0.6833334 472.31668 -0.3666667 458.80002 2.2 445.2 C 4.766667 431.5 9.416667 418.96667 16.15 407.6 C 25.616667 391.63333 40.216667 376.16666 59.95 361.2 C 66.316666 356.33334 75.1 350.13333 86.3 342.6 L 112.85 324.5 C 134.91666 308.19998 151.65 296.01666 163.05 287.95 C 182.45 274.21667 199.56667 263.4167 214.4 255.55 L 215.6 254.9 L 262.0 339.6 C 273.80002 332.3 282.95 322.53333 289.45 310.3 C 297.38333 295.4 301.25 277.08334 301.05 255.35 C 300.88333 235.48334 297.23334 218.61667 290.1 204.75 C 280.8 186.78334 265.63333 173.85 244.6 165.95 C 263.06665 164.55 280.24997 167.53334 296.15 174.9 C 304.21667 178.63333 311.75 183.4 318.75 189.2 C 325.11667 194.46667 331.01666 200.58334 336.45 207.55 C 347.21667 221.35 355.4 237.36667 361.0 255.6 C 366.46667 273.53333 368.9 291.8333 368.3 310.5 C 368.0 319.9 366.46667 328.96667 363.7 337.7 C 361.06668 346.0 357.2 354.36667 352.1 362.8 L 352.95 362.15 C 360.65 368.28333 367.16666 374.76666 372.5 381.6 C 378.16666 388.86667 382.78333 396.85 386.35 405.55 C 388.4167 410.61667 390.23334 415.73334 391.8 420.9 Z M 320.65 584.15 L 318.2 586.2 L 317.7 584.95 L 320.65 584.15 Z M 73.9 447.4 C 76.3 446.8 79.05 445.68332 82.15 444.05 C 85.316666 442.38333 89.1 440.03333 93.5 437.0 L 93.7 436.9 L 89.65 436.8 L 80.15 437.05 L 78.15 437.3 C 72.01666 438.23334 66.916664 440.48334 62.85 444.05 C 64.916664 447.58334 68.6 448.7 73.9 447.4 Z"/>
			<path fill="none" stroke="#666666" stroke-width="1.0" stroke-linecap="round" stroke-linejoin="round" d="M 493.7 340.3 L 523.45 350.65 C 547.7833 359.31665 566.39996 367.66666 579.3 375.7 C 589.2 381.86667 596.15 388.16666 600.15 394.6 C 603.9167 400.7 604.75 406.45 602.65 411.85 M 465.45 329.4 C 472.88333 332.63333 482.3 336.26666 493.7 340.3 M 401.1 400.85 C 406.53333 409.01666 417.03333 412.98334 432.6 412.75 L 433.05 412.75 L 440.65 411.8 C 456.71667 409.43332 473.25 408.96664 490.25 410.4 C 499.71667 411.2 511.81668 412.9167 526.55 415.55 L 539.35 417.95 M 401.6 350.1 C 394.7 374.1 394.53336 391.01666 401.1 400.85"/>
			<path fill="none" stroke="#373535" stroke-width="2.0" stroke-linecap="round" stroke-linejoin="round" d="M 82.6 436.6 L 92.1 436.35 L 96.2 436.45 L 104.4 430.7 L 137.95 409.35 C 150.51666 401.18335 161.45 393.61667 170.75 386.65 C 184.18333 376.68335 195.41667 369.00003 204.45 363.6 C 223.78333 352.0 241.59999 344.45 257.9 340.95 M 96.0 436.55 L 96.2 436.45 M 84.6 443.6 C 87.76666 441.93335 91.566666 439.58334 96.0 436.55 M 73.9 447.4 C 76.833336 447.06665 80.4 445.8 84.6 443.6 M 65.3 443.6 C 67.03333 446.56665 69.9 447.8333 73.9 447.4 M 78.15 437.3 L 82.6 436.6 M 78.15 437.3 C 73.083336 438.4 68.8 440.5 65.3 443.6"/>
		</g>
	</g>
</svg>
