<?xml version="1.0" encoding="utf-8"?>
<!DOCTYPE svg PUBLIC "-//W3C//DTD SVG 1.1//EN" "http://www.w3.org/Graphics/SVG/1.1/DTD/svg11.dtd">
<svg version="1.1" xmlns="http://www.w3.org/2000/svg" xmlns:xlink="http://www.w3.org/1999/xlink" xmlns:ev="http://www.w3.org/2001/xml-events" width="550.0px" height="400.0px" overflow="visible" viewBox="0.0 0.0 550.0 400.0" enable-background="new 0.0 0.0 550.0 400.0">
	<defs/>
	<rect width="550.0px" height="400.0px" x="0px" y="0px" fill="#FFFFFF"/>
	<g>
		<g transform="matrix(1.0 0.0 0.0 1.0 0.0 0.0)">
			<path fill="#C5C3C4" stroke-linecap="round" stroke-linejoin="round" d="M 436.05 4.8 L 448.4 3.6 C 452.8 3.4666667 458.94998 3.5 466.85 3.7 C 473.65 3.5333333 479.66666 2.3 484.9 0.0 C 484.5 1.1666667 483.66666 2.3500001 482.4 3.55 L 479.0 6.3 L 475.15 9.75 C 473.41666 11.216666 472.01666 12.049999 470.95 12.25 L 470.15 12.5 L 480.2 11.3 C 484.46667 11.1 487.76666 11.6 490.1 12.8 L 489.1 13.05 C 485.1667 13.683333 482.31668 14.4 480.55 15.2 C 477.58334 16.466667 475.53336 18.433334 474.4 21.1 C 473.63333 22.9 473.05 25.516666 472.65 28.95 C 472.25 32.783333 471.8 35.45 471.3 36.95 C 469.69998 41.88333 467.3333 46.88333 464.2 51.95 C 461.96667 55.516666 459.71667 58.55 457.45 61.05 L 453.65 64.6 C 449.41666 68.03333 444.26666 71.35 438.2 74.55 L 435.0 76.2 C 430.5 78.433334 425.93332 80.36667 421.3 82.0 C 408.1 86.73333 394.93335 88.03333 381.8 85.9 C 374.26666 84.7 366.9 84.78333 359.7 86.15 L 355.75 76.1 L 365.15 68.3 C 369.45 64.700005 373.71667 60.51667 377.95 55.75 L 378.7 54.9 C 382.2 50.833332 386.11667 45.8 390.45 39.8 C 392.65 36.8 395.75 32.083332 399.75 25.65 C 403.55002 20.216667 407.45 16.216667 411.45 13.65 C 416.58334 10.416666 422.51666 7.9499993 429.25 6.25 L 436.05 4.8 Z M 161.9 224.0 L 156.65 226.5 L 154.25 221.0 C 152.28334 216.33333 149.6 212.0 146.2 208.0 L 146.0 207.8 C 148.66667 206.7 151.1 206.4 153.3 206.9 C 156.1 213.33333 158.96667 219.03333 161.9 224.0 Z M 140.8 202.45 L 140.05 201.8 C 134.08334 196.56667 127.233345 192.48334 119.5 189.55 C 106.566666 184.61667 95.4 176.63333 86.0 165.6 C 82.700005 161.73334 79.600006 157.63333 76.7 153.3 L 74.65 150.15 C 70.85 144.11667 67.916664 138.46667 65.85 133.2 C 65.25 131.63333 64.73334 129.91667 64.3 128.05 C 63.533337 124.61667 63.083336 120.71667 62.95 116.35 C 62.75 110.183334 63.2 104.46667 64.3 99.2 C 64.63334 97.566666 65.600006 94.916664 67.2 91.25 C 68.666664 87.950005 69.5 85.3 69.7 83.3 C 70.066666 80.333336 69.25 77.5 67.25 74.8 C 65.98333 73.1 63.766663 71.0 60.6 68.5 L 59.85 67.7 C 62.55 67.833336 65.78333 69.083336 69.55 71.45 L 78.0 77.75 L 77.35 77.1 C 76.51666 76.4 75.71666 74.933334 74.95 72.7 L 73.25 67.65 L 71.6 63.4 C 71.03333 61.633335 70.88333 60.133335 71.15 58.9 C 74.683334 63.666668 79.46667 67.9 85.5 71.6 L 102.15 81.05 C 105.91667 83.35 109.41667 85.83333 112.65 88.5 C 114.55 90.03333 116.350006 91.63333 118.05 93.3 C 123.183334 98.333336 127.23333 103.63333 130.2 109.2 C 132.5 113.566666 133.95 119.166664 134.55 126.0 L 135.6 143.55 C 136.40001 151.21667 137.33334 157.76668 138.4 163.2 L 138.65 164.4 C 139.95 170.86667 141.6 176.83334 143.6 182.3 C 145.96666 188.7 147.98332 193.96666 149.65 198.1 C 146.91667 199.0 144.08334 200.45 141.15 202.45 L 140.8 202.45 Z M 333.05 98.95 L 329.85 94.35 C 334.95 91.45 340.38333 87.86666 346.15 83.6 L 348.4 89.45 C 344.53333 91.049995 340.96667 93.066666 337.7 95.5 L 333.05 98.95 Z M 447.4 13.5 L 447.4 13.55 C 447.06665 15.116667 447.34998 16.6 448.25 18.0 C 449.15 19.366667 450.4 20.233334 452.0 20.6 C 453.6 20.9 455.1 20.6 456.5 19.7 C 457.86667 18.766666 458.73334 17.516666 459.1 15.95 C 459.4 14.316667 459.1 12.816667 458.2 11.45 C 457.30002 10.05 456.05002 9.2 454.45 8.9 C 452.85 8.533334 451.36667 8.8 450.0 9.7 C 448.6 10.566667 447.73334 11.833333 447.4 13.5 Z M 452.0 20.6 L 452.05 20.6 Z M 459.1 15.95 L 459.1 15.9 Z M 454.45 8.9 L 454.5 8.9 Z M 434.6 36.6 C 431.53333 34.966667 429.18332 34.4 427.55 34.9 L 426.55 35.2 C 427.01666 40.066666 425.7 44.783333 422.6 49.35 C 420.4 52.55 416.91666 56.13333 412.15 60.1 C 413.35 61.399998 415.93335 61.88333 419.9 61.55 C 422.96667 61.283333 425.76666 60.716667 428.3 59.85 C 430.56668 59.116665 432.68335 58.033333 434.65 56.6 L 440.0 52.1 C 440.26666 50.566666 440.41666 48.833332 440.45 46.9 C 440.48334 44.5 440.3 42.649998 439.9 41.35 C 439.43335 39.783333 437.6667 38.2 434.6 36.6 Z M 86.6 91.25 L 86.6 91.3 C 87.33333 92.8 88.533325 93.816666 90.2 94.35 C 91.76667 94.85 93.31667 94.73333 94.85 94.0 C 96.35 93.26667 97.36667 92.083336 97.9 90.45 C 98.4 88.85 98.28333 87.28333 97.55 85.75 C 96.816666 84.21667 95.63333 83.2 94.0 82.7 C 92.36667 82.13333 90.8 82.26666 89.3 83.1 C 87.8 83.83333 86.8 84.99999 86.3 86.6 C 85.76667 88.166664 85.86667 89.71667 86.6 91.25 Z M 89.3 83.1 L 89.35 83.05 Z M 91.15 142.05 C 92.98334 144.11667 95.21667 146.06667 97.85 147.9 C 101.25 150.3 103.833336 151.21667 105.6 150.65 C 103.33333 144.65 102.049995 139.61667 101.75 135.55 C 101.316666 129.81667 102.566666 124.88333 105.5 120.75 L 104.7 119.95 C 103.5 118.65 101.1 117.933334 97.5 117.8 C 93.933334 117.700005 91.53333 118.23334 90.3 119.4 C 89.23333 120.4 88.1 121.96667 86.9 124.1 C 85.933334 125.86667 85.183334 127.48334 84.65 128.95 C 85.583336 131.98334 86.41667 134.28334 87.15 135.85 C 88.183334 138.11667 89.51667 140.18333 91.15 142.05 Z"/>
			<path fill="#7D7C7D" stroke-linecap="round" stroke-linejoin="round" d="M 457.45 61.05 C 458.65 64.649994 457.01666 68.98333 452.55 74.05 C 448.78333 78.316666 444.5 81.83333 439.7 84.6 C 439.4 83.3 439.26666 82.350006 439.3 81.75 L 438.5 81.6 L 438.9 80.45 C 438.96667 79.95 439.08334 79.58333 439.25 79.35 L 437.75 79.25 L 437.2 78.45 L 436.25 77.95 C 435.75 77.549995 435.25 77.316666 434.75 77.25 L 435.0 76.2 L 438.2 74.55 C 444.26666 71.35 449.41666 68.03333 453.65 64.6 L 457.45 61.05 Z M 164.25 222.95 L 161.9 224.0 C 158.96666 219.03334 156.09999 213.33334 153.3 206.9 C 155.53333 207.4 157.49998 208.75 159.2 210.95 C 161.2 213.58333 162.88333 217.58333 164.25 222.95 Z M 156.65 226.5 L 156.35 226.7 L 155.75 226.85 C 152.55 227.35 149.25 229.41667 145.85 233.05 C 143.28334 235.75 140.91667 239.01666 138.75 242.85 L 134.05 251.3 C 132.15 255.13333 131.21666 258.13333 131.25 260.3 L 130.85 259.9 C 129.78334 255.3 129.06667 251.58334 128.7 248.75 C 127.63333 240.51666 128.5 232.88333 131.3 225.85 C 133.53333 220.25 136.81665 215.53333 141.15 211.7 C 141.95 211.86667 142.65 211.63333 143.25 211.0 L 144.6 209.0 L 145.8 208.15 L 146.2 208.0 C 149.6 212.0 152.28334 216.33333 154.25 221.0 L 156.65 226.5 Z M 76.7 153.3 C 76.53333 153.66667 76.416664 154.01668 76.35 154.35 L 75.35 154.2 L 74.65 154.25 L 73.55 154.2 C 73.35 154.2 73.049995 154.33333 72.65 154.6 L 71.25 153.95 L 71.0 155.1 L 70.75 156.35 L 69.95 156.05 L 69.05 157.25 L 68.1 158.45 C 65.2 153.45 63.166664 148.06667 62.0 142.3 C 60.600002 135.43333 61.36667 130.68333 64.3 128.05 C 64.73333 129.91667 65.24999 131.63333 65.85 133.2 C 67.916664 138.46667 70.85 144.11667 74.65 150.15 L 76.7 153.3 Z M 112.65 88.5 C 124.01666 91.23333 133.04999 95.73333 139.75 102.0 C 141.01666 103.23333 141.76666 104.1 142.0 104.6 C 142.33333 105.4 142.16666 106.41667 141.5 107.65 L 139.75 110.15 C 139.55 110.51666 139.71667 111.533325 140.25 113.2 C 140.75 114.7 140.88333 115.71667 140.65 116.25 L 139.2 118.9 C 138.86667 119.76666 138.75 120.68333 138.85 121.65 L 139.25 124.45 C 139.31667 125.95 139.1 128.3 138.6 131.5 C 138.40001 134.36667 138.86667 136.6 140.0 138.2 C 138.26666 139.03333 138.26666 140.56667 140.0 142.8 C 138.63333 143.5 138.2 144.85 138.7 146.85 C 139.26666 149.18333 139.36667 150.61667 139.0 151.15 L 139.45 152.2 L 139.9 153.25 C 138.76666 153.81667 138.25 155.11667 138.35 157.15 C 138.41667 158.84999 138.78334 160.29999 139.45 161.5 L 138.95 163.7 L 138.65 164.4 L 138.4 163.2 C 137.33333 157.76666 136.4 151.21666 135.6 143.55 L 134.55 126.0 C 133.95 119.166664 132.5 113.566666 130.2 109.2 C 127.23333 103.63333 123.183334 98.333336 118.05 93.3 C 116.35 91.63334 114.549995 90.03334 112.65 88.5 Z M 171.5 205.05 L 173.1 205.4 C 178.0 206.56667 184.9 208.93333 193.8 212.5 C 197.66667 214.06667 200.53334 215.75 202.4 217.55 C 199.43333 214.85 192.8 214.65001 182.5 216.95 L 178.85 217.85 C 176.78334 212.68333 174.33334 208.41667 171.5 205.05 Z M 354.85 107.6 L 354.55 110.6 C 353.48334 117.83333 350.53336 124.63333 345.7 131.0 C 343.96667 133.3 341.58334 136.05 338.55 139.25 L 338.05 139.35 C 339.08334 137.55 339.75 134.6 340.05 130.5 L 340.2 121.2 C 340.2 116.96667 339.78336 113.11667 338.95 109.65 C 337.81668 104.95 336.03336 101.63333 333.6 99.7 L 333.2 99.25 C 332.96667 99.11667 332.91666 99.01667 333.05 98.95 L 337.7 95.5 C 340.96667 93.066666 344.53333 91.049995 348.4 89.45 L 350.0 93.55 C 352.1 98.75 353.58334 102.916664 354.45 106.05 L 354.85 107.6 Z M 329.85 94.35 C 328.08334 91.75 325.93335 89.0 323.4 86.1 C 320.93335 83.33333 318.48334 80.83333 316.05 78.6 C 308.55 71.73334 302.91666 68.700005 299.15 69.5 C 301.65 68.9 304.83334 68.88333 308.7 69.45 C 317.93332 70.75 324.84998 72.083336 329.45 73.45 C 332.18332 74.25 335.24997 75.683334 338.65 77.75 L 345.6 82.1 L 346.15 83.6 C 340.38333 87.86667 334.95 91.450005 329.85 94.35 Z M 377.95 55.75 L 378.0 55.0 L 378.6 52.9 C 379.73334 52.266666 380.75 51.25 381.65 49.85 C 382.68335 48.216667 382.8667 46.86667 382.2 45.8 L 383.1 45.15 L 384.0 44.5 C 383.93332 43.866665 384.68332 42.73333 386.25 41.1 C 387.61667 39.633335 387.9 38.283337 387.1 37.05 C 389.6667 36.05 390.4167 34.766666 389.35 33.2 C 391.08334 32.4 392.53336 30.750002 393.7 28.25 L 396.55 22.1 L 398.25 19.95 C 398.81668 19.183332 399.1667 18.366665 399.3 17.5 L 399.35 14.55 C 399.38333 14.016666 399.98334 13.233333 401.15 12.2 C 402.38333 11.066667 403.01666 10.3 403.05 9.9 C 402.81668 9.133333 402.71667 8.15 402.75 6.95 C 402.78333 5.583333 403.13333 4.6499996 403.8 4.15 C 404.26666 3.8166668 405.31668 3.4666667 406.95 3.1 C 415.38333 1.0666666 425.0833 1.6333334 436.05 4.8 L 429.25 6.25 C 422.51666 7.9500003 416.58334 10.416667 411.45 13.65 C 407.45 16.216667 403.55002 20.216667 399.75 25.65 C 395.75 32.083332 392.65 36.8 390.45 39.8 C 386.11667 45.8 382.2 50.833332 378.7 54.9 L 377.95 55.75 Z"/>
			<path fill="#959494" stroke-linecap="round" stroke-linejoin="round" d="M 359.7 86.15 C 362.26666 92.95 363.98334 98.36666 364.85 102.4 C 366.95 111.7 367.1667 121.683334 365.5 132.35 C 364.53333 138.58333 363.06665 146.16666 361.1 155.1 L 356.0 177.85 C 352.03333 196.28334 350.06665 211.61667 350.1 223.85 C 350.1667 235.85 350.68335 253.26668 351.65 276.1 C 351.91666 296.03333 350.43332 313.48334 347.2 328.45 L 341.65 352.4 C 339.5833 361.66666 338.31665 369.75 337.85 376.65 C 337.45 382.68335 336.96667 391.73334 336.4 403.8 C 335.63333 414.36667 334.25 423.31668 332.25 430.65 C 329.28333 441.38333 324.15 450.71667 316.85 458.65 C 309.55 466.55 300.68332 472.36667 290.25 476.1 C 289.25 476.93335 288.58334 477.2667 288.25 477.1 C 283.31668 475.03333 279.0 471.03333 275.3 465.1 C 271.5 457.96667 268.30002 452.7 265.7 449.3 C 262.73334 445.43332 259.13333 439.8333 254.9 432.5 C 250.09999 424.16666 246.63333 418.44998 244.5 415.35 C 241.33333 410.81665 237.01666 405.8 231.55 400.3 L 217.65 386.2 C 214.08333 382.26666 210.45 376.75 206.75 369.65 C 202.81667 361.51666 199.81667 355.56665 197.75 351.8 C 192.58333 342.26666 189.56667 331.88333 188.7 320.65 L 187.45 306.2 C 186.65 300.23334 185.23332 294.26666 183.2 288.3 L 172.05 268.15 C 170.68333 265.71667 169.5 260.30002 168.5 251.9 C 166.96666 239.06667 165.98332 231.5 165.55 229.2 L 164.25 222.95 C 162.88333 217.58333 161.2 213.58333 159.2 210.95 C 157.5 208.75 155.53334 207.4 153.3 206.9 C 151.1 206.4 148.66667 206.7 146.0 207.8 L 145.25 208.1 L 144.75 208.6 L 144.6 209.0 L 143.25 211.0 C 142.65001 211.63333 141.95001 211.86667 141.15 211.7 L 140.8 211.55 C 141.2 209.55 140.63333 208.1 139.1 207.2 L 137.0 207.45 C 136.53334 207.25 136.13335 206.68333 135.8 205.75 L 137.7 204.35 L 138.55 203.7 L 140.05 202.75 L 140.8 202.45 L 141.15 202.45 C 144.08333 200.45 146.91666 199.0 149.65 198.1 C 156.61667 195.76668 162.90001 197.06668 168.5 202.0 L 171.5 205.05 C 174.33333 208.41667 176.78333 212.68333 178.85 217.85 C 180.21666 221.35 181.41666 225.28334 182.45 229.65 C 184.15 236.91667 184.75 243.21667 184.25 248.55 C 183.84999 252.88333 185.01666 259.11667 187.75 267.25 C 190.98334 276.81668 192.90001 282.05002 193.5 282.95 C 198.0 289.68332 201.06667 294.4833 202.7 297.35 C 205.6 302.45 207.96667 308.40002 209.8 315.2 C 210.66667 318.43332 212.0 324.55 213.8 333.55 C 215.3 341.18332 216.78334 347.18332 218.25 351.55 C 220.38333 357.98334 223.23334 363.61667 226.8 368.45 C 229.7 372.41666 234.26666 380.51666 240.5 392.75 C 248.59999 408.65 254.21666 419.36667 257.35 424.9 C 272.25 451.1 284.88333 462.5 295.25 459.1 C 305.51666 455.76666 313.73334 447.01666 319.9 432.85 C 324.6 421.98334 327.5 409.9 328.6 396.6 L 329.1 377.55 C 329.23334 369.85 329.93335 363.55002 331.2 358.65 L 336.25 341.0 C 337.94998 334.43332 338.69998 328.34998 338.5 322.75 C 338.16666 312.35 338.55 297.85 339.65 279.25 C 340.81665 258.95 341.38333 244.45001 341.35 235.75 C 341.08334 227.34999 340.93335 221.04999 340.9 216.85 C 340.86667 209.45 341.45 203.2 342.65 198.1 C 343.41666 194.76668 345.48334 187.95001 348.85 177.65 C 351.55 169.34999 353.26666 162.41666 354.0 156.85 C 355.56668 144.88333 356.46667 136.4 356.7 131.4 C 357.13333 122.2 356.51666 114.26666 354.85 107.6 L 354.45 106.05 C 353.58334 102.916664 352.1 98.75 350.0 93.55 L 348.4 89.45 L 346.15 83.6 L 345.6 82.1 L 345.25 81.1 L 344.9 80.1 C 344.1 77.4 344.05002 75.73334 344.75 75.1 C 345.41666 74.5 346.86667 74.816666 349.1 76.05 C 349.4 74.38334 350.1 73.16667 351.2 72.4 C 352.4 71.566666 353.5 71.95 354.5 73.55 L 355.0 74.35 L 355.75 76.1 L 359.7 86.15 Z M 447.4 13.55 L 447.4 13.5 C 447.73334 11.833333 448.6 10.566667 450.0 9.7 C 451.36667 8.8 452.86667 8.533334 454.5 8.9 C 456.06668 9.2 457.30002 10.05 458.2 11.45 C 459.1 12.816667 459.4 14.3 459.1 15.9 C 458.73334 17.5 457.86667 18.766666 456.5 19.7 C 455.1 20.6 453.61667 20.9 452.05 20.6 C 450.41666 20.233334 449.15 19.366667 448.25 18.0 C 447.35 16.6 447.06668 15.116667 447.4 13.55 Z M 452.05 20.6 L 452.0 20.6 Z M 459.1 15.9 L 459.1 15.95 Z M 454.5 8.9 L 454.45 8.9 Z M 456.15 15.3 L 456.15 15.35 C 456.28333 14.516667 456.13333 13.766667 455.7 13.1 C 455.26666 12.400001 454.66666 11.983334 453.9 11.85 C 453.06665 11.650001 452.31665 11.766667 451.65 12.2 C 450.95 12.666666 450.5167 13.316666 450.35 14.15 C 450.18335 14.916667 450.31668 15.650001 450.75 16.35 C 451.18332 17.016666 451.81665 17.449999 452.65 17.65 C 453.41666 17.783333 454.15 17.633333 454.85 17.2 C 455.51666 16.733334 455.94998 16.1 456.15 15.3 Z M 454.85 17.2 L 454.8 17.2 Z M 452.65 17.65 L 452.6 17.65 Z M 450.35 14.15 L 450.35 14.1 Z M 453.9 11.85 L 453.85 11.85 Z M 93.05 85.55 L 90.7 85.75 C 89.933334 86.11667 89.41667 86.71667 89.15 87.55 C 88.85 88.35 88.9 89.149994 89.3 89.95 C 89.700005 90.683334 90.31667 91.200005 91.15 91.5 L 93.5 91.3 C 94.23333 90.9 94.75 90.3 95.05 89.5 C 95.316666 88.666664 95.25 87.85 94.85 87.05 C 94.45 86.316666 93.85 85.816666 93.05 85.55 Z M 94.85 87.05 L 94.85 87.1 Z M 86.6 91.3 L 86.6 91.25 C 85.86667 89.71667 85.76667 88.166664 86.3 86.6 C 86.8 85.0 87.816666 83.816666 89.35 83.05 C 90.816666 82.25 92.36667 82.13333 94.0 82.7 C 95.63333 83.2 96.816666 84.21667 97.55 85.75 C 98.28333 87.28333 98.4 88.85 97.9 90.45 C 97.36667 92.083336 96.35 93.26667 94.85 94.0 C 93.316666 94.73333 91.76666 94.85 90.2 94.35 C 88.53333 93.816666 87.333336 92.8 86.6 91.3 Z M 89.35 83.05 L 89.3 83.1 Z"/>
			<path fill="#E1E1E1" stroke-linecap="round" stroke-linejoin="round" d="M 456.15 15.35 L 456.15 15.3 C 455.95 16.1 455.5 16.733334 454.8 17.2 C 454.13333 17.633333 453.4 17.783333 452.6 17.65 C 451.8 17.45 451.18332 17.016668 450.75 16.35 C 450.31668 15.650001 450.18335 14.900001 450.35 14.1 C 450.51666 13.3 450.94998 12.666667 451.65 12.2 C 452.31665 11.766666 453.05 11.65 453.85 11.85 C 454.65 11.983334 455.26666 12.400001 455.7 13.1 C 456.13333 13.766667 456.28333 14.516667 456.15 15.35 Z M 454.8 17.2 L 454.85 17.2 Z M 452.6 17.65 L 452.65 17.65 Z M 450.35 14.1 L 450.35 14.15 Z M 453.85 11.85 L 453.9 11.85 Z M 90.7 85.75 L 93.05 85.55 C 93.85 85.816666 94.45 86.33333 94.85 87.1 C 95.25 87.86667 95.316666 88.66667 95.05 89.5 C 94.75 90.299995 94.23333 90.899994 93.5 91.3 L 91.15 91.5 C 90.316666 91.200005 89.7 90.683334 89.3 89.95 C 88.9 89.15 88.85 88.350006 89.15 87.55 C 89.41667 86.71667 89.933334 86.11667 90.7 85.75 Z M 94.85 87.1 L 94.85 87.05 Z"/>
			<path fill="#A2A1A2" stroke-linecap="round" stroke-linejoin="round" d="M 427.55 34.9 C 429.18332 34.4 431.53333 34.966667 434.6 36.6 C 437.6667 38.2 439.43335 39.783333 439.9 41.35 C 440.3 42.649998 440.48334 44.5 440.45 46.9 C 440.41666 48.833332 440.26666 50.566666 440.0 52.1 L 434.65 56.6 C 432.68335 58.033333 430.56668 59.116665 428.3 59.85 C 425.76666 60.716667 422.96667 61.283333 419.9 61.55 C 415.93335 61.88333 413.35 61.399998 412.15 60.1 C 416.91666 56.133335 420.4 52.550003 422.6 49.35 C 425.7 44.783333 427.01666 40.066666 426.55 35.2 L 427.55 34.9 Z M 97.85 147.9 C 95.21667 146.06667 92.98334 144.11667 91.15 142.05 C 89.51666 140.18333 88.18333 138.11667 87.15 135.85 C 86.41667 134.28334 85.583336 131.98334 84.65 128.95 C 85.183334 127.48333 85.933334 125.86666 86.9 124.1 C 88.1 121.96667 89.23333 120.4 90.3 119.4 C 91.53333 118.23334 93.933334 117.700005 97.5 117.8 C 101.1 117.933334 103.5 118.65 104.7 119.95 L 105.5 120.75 C 102.566666 124.88333 101.316666 129.81667 101.75 135.55 C 102.049995 139.61667 103.33333 144.65 105.6 150.65 C 103.83333 151.21666 101.24999 150.29999 97.85 147.9 Z"/>
		</g>
	</g>
</svg>
