<?xml version="1.0" encoding="utf-8"?>
<!DOCTYPE svg PUBLIC "-//W3C//DTD SVG 1.1//EN" "http://www.w3.org/Graphics/SVG/1.1/DTD/svg11.dtd">
<svg version="1.1" xmlns="http://www.w3.org/2000/svg" xmlns:xlink="http://www.w3.org/1999/xlink" xmlns:ev="http://www.w3.org/2001/xml-events" width="550.0px" height="400.0px" overflow="visible" viewBox="0.0 0.0 550.0 400.0" enable-background="new 0.0 0.0 550.0 400.0">
	<defs/>
	<rect width="550.0px" height="400.0px" x="0px" y="0px" fill="#FFFFFF"/>
	<g>
		<g transform="matrix(1.0 0.0 0.0 1.0 0.0 0.0)">
			<path fill="#373535" stroke-linecap="round" stroke-linejoin="round" d="M 819.8 177.55 C 821.4667 184.78333 822.85004 191.95 823.95 199.05 C 826.31665 214.48334 827.2833 229.6 826.85 244.4 C 826.64996 251.83333 825.9833 259.0833 824.85 266.15 C 821.6833 285.48334 814.99994 303.35 804.8 319.75 C 791.7 340.81668 772.98334 359.13336 748.65 374.7 C 759.7167 364.7 769.0 355.18335 776.5 346.15 L 777.5 346.45 L 778.2 344.05 L 778.45 343.75 C 787.8833 331.98334 795.2833 319.76666 800.65 307.1 C 805.9167 294.73334 809.9167 281.75 812.65 268.15 L 813.15 265.75 L 813.2 265.45 C 814.3334 259.25 815.2167 252.93333 815.85 246.5 C 817.51666 229.83333 817.2833 213.68333 815.15 198.05 C 814.4167 192.91667 813.5 187.83334 812.4 182.8 C 807.63336 161.1 799.4167 142.35 787.75 126.55 C 776.0833 110.78333 761.55 98.816666 744.15 90.65 L 742.4 88.9 L 741.75 89.55 L 739.2 88.45 L 728.7 85.45 C 743.93335 86.75 756.2 89.26667 765.5 93.0 C 777.5333 97.833336 787.2 105.46667 794.5 115.9 C 805.4667 131.5 813.9 152.05 819.8 177.55 Z M 506.8 57.95 C 507.73334 51.583336 508.13333 47.333336 508.0 45.2 C 507.83334 41.833336 505.4167 38.250004 500.75 34.45 C 492.85 28.05 483.4167 23.883331 472.45 21.95 C 461.78336 20.050001 451.81668 20.616667 442.55 23.65 C 432.71664 26.883333 425.56665 32.333332 421.1 40.0 C 416.13333 48.633335 415.23334 59.133335 418.4 71.5 C 415.53333 64.066666 411.65 60.149998 406.75 59.75 C 402.44998 59.416668 398.36664 61.65 394.5 66.45 C 390.66666 71.15 388.48334 76.5 387.95 82.5 C 387.35 89.23333 389.2 94.73333 393.5 99.0 C 396.4 101.9 400.56665 104.21667 406.0 105.95 C 407.76666 106.95 408.81665 108.316666 409.15 110.05 C 409.55 112.083336 409.0833 115.083336 407.75 119.05 C 406.48334 122.816666 403.13333 128.16667 397.7 135.1 L 385.25 149.95 L 390.75 147.45 C 391.61667 155.11667 390.23334 163.51666 386.6 172.65 C 383.1 181.51666 378.48334 188.61667 372.75 193.95 L 371.25 187.95 C 358.85 176.68333 346.15 172.61667 333.15 175.75 C 321.85 178.51666 312.38333 185.88333 304.75 197.85 C 297.35 209.45 294.08334 221.29999 294.95 233.4 C 295.75 244.9 300.36667 253.48332 308.8 259.15 C 308.53333 261.25 308.44998 263.26666 308.55 265.2 C 304.05 276.36667 304.88333 291.2 311.05 309.7 C 312.05 312.80002 315.19998 321.2 320.5 334.9 C 324.33334 344.8 326.81668 352.53333 327.95 358.1 C 332.21667 378.73334 334.81668 394.68335 335.75 405.95 C 336.75 417.75 336.58334 428.1 335.25 437.0 L 330.35 439.4 C 318.35 445.4 308.83334 449.93332 301.8 453.0 L 287.7 426.4 C 282.26666 416.36667 278.86667 406.83334 277.5 397.8 L 275.25 416.05 C 274.48334 423.08334 274.16666 429.23334 274.3 434.5 C 273.03333 430.9 270.88333 426.23334 267.85 420.5 C 264.18335 413.5 261.83334 408.85 260.8 406.55 C 259.36667 403.28333 257.58334 396.21667 255.45 385.35 C 253.65 376.05 251.41666 369.59998 248.75 366.0 C 247.38333 372.33334 244.43333 381.28336 239.9 392.85 C 236.83333 400.68335 234.65 407.45 233.35 413.15 C 233.68333 409.5833 233.51666 405.4 232.85 400.6 C 231.45 390.8 230.86667 383.36664 231.1 378.3 C 231.40001 372.36667 233.05 365.48334 236.05 357.65 C 238.45 351.35 240.25 346.38333 241.45 342.75 C 239.55 347.15 236.11667 350.61667 231.15 353.15 C 229.55 353.95 226.41667 355.23334 221.75 357.0 C 217.58333 358.63333 214.36667 360.1 212.1 361.4 C 207.43333 364.1 198.21666 368.23334 184.45 373.8 C 176.88333 376.86667 172.13333 378.9167 170.2 379.95 C 190.4 361.51666 211.4 337.26666 233.2 307.2 C 258.59998 272.2 273.6333 243.95001 278.3 222.45 C 288.66666 174.65 300.5 135.25 313.8 104.25 C 330.8 64.649994 350.96664 36.383324 374.3 19.45 C 389.19998 8.65 406.0833 2.3333325 424.95 0.5 C 444.35 -1.4 461.9 1.8833336 477.6 10.35 C 495.26666 19.883333 505.35 30.683334 507.85 42.75 C 508.98334 48.083332 508.63333 53.149998 506.8 57.95 Z"/>
			<path fill="#979696" stroke-linecap="round" stroke-linejoin="round" d="M 741.75 89.55 L 742.4 88.9 L 744.15 90.65 L 745.95 92.4 L 643.75 196.75 L 641.1 199.45 L 639.3 197.7 L 637.55 195.95 L 741.75 89.55 Z M 778.2 344.05 L 777.5 346.45 L 776.5 346.15 L 604.5 294.55 L 604.0 294.4 L 604.7 292.0 L 605.45 289.6 L 778.95 341.65 L 778.2 344.05 Z M 508.0 45.2 C 508.13333 47.333336 507.73334 51.583336 506.8 57.95 L 506.4 60.4 L 504.35 71.65 C 503.48334 76.25 503.46667 79.98333 504.3 82.85 C 504.86667 84.71667 506.76666 87.36667 510.0 90.8 C 513.0333 93.96667 514.68335 96.683334 514.95 98.95 C 515.35 102.61666 514.3333 105.68333 511.9 108.15 L 508.4 111.35 C 506.96667 112.683334 505.85 114.03333 505.05 115.4 C 503.18332 118.53333 501.98334 122.0 501.45 125.8 C 500.58334 131.9 500.0 135.48332 499.7 136.55 C 497.63333 144.31667 494.0 149.63333 488.8 152.5 C 484.0 155.13333 477.31668 155.95 468.75 154.95 C 461.58334 154.08333 456.26666 158.41666 452.8 167.95 C 451.93332 170.28333 451.13333 173.09999 450.4 176.4 L 453.7 176.3 L 454.05 176.3 L 455.4 176.25 L 476.7 177.05 C 484.96667 178.68333 492.75 183.2 500.05 190.6 C 506.21664 196.8 511.14996 204.83333 514.85 214.7 C 517.7833 222.46667 519.86664 231.13335 521.1 240.7 C 520.86664 243.06667 520.75 245.63333 520.75 248.4 C 520.68335 252.0 520.7833 255.93333 521.05 260.2 L 521.6 269.5 L 502.45 267.45 L 480.6 263.7 C 471.86667 262.2 464.68332 260.45 459.05 258.45 C 455.71664 257.28336 449.06665 254.65002 439.1 250.55 C 430.23334 246.88333 423.08334 244.2 417.65 242.5 C 412.68335 240.93333 407.95 239.76666 403.45 239.0 C 402.75 235.53334 401.38333 231.73334 399.35 227.6 C 396.78333 222.43333 393.5 217.56667 389.5 213.0 C 385.66666 208.66667 382.09998 205.6 378.8 203.8 C 358.96664 193.06667 337.46664 205.61667 314.3 241.45 L 314.25 241.95 C 311.31668 248.25 309.5 253.98334 308.8 259.15 C 300.36667 253.48332 295.75 244.9 294.95 233.4 C 294.08334 221.3 297.35 209.45001 304.75 197.85 C 312.38333 185.88333 321.85 178.51666 333.15 175.75 C 346.15 172.61667 358.85 176.68333 371.25 187.95 L 372.75 193.95 C 378.48334 188.61667 383.1 181.51666 386.6 172.65 C 390.23334 163.51666 391.61667 155.11667 390.75 147.45 L 385.25 149.95 L 397.7 135.1 C 403.13333 128.16667 406.48334 122.81667 407.75 119.05 C 409.08334 115.083336 409.55002 112.083336 409.15 110.05 C 408.81665 108.316666 407.76666 106.95 406.0 105.95 C 400.56668 104.21667 396.40002 101.9 393.5 99.0 C 389.19998 94.73333 387.34998 89.23333 387.95 82.5 C 388.48334 76.5 390.66666 71.15 394.5 66.45 C 398.36667 61.649998 402.45 59.416664 406.75 59.75 C 411.65 60.149998 415.53333 64.066666 418.4 71.5 C 415.23334 59.13333 416.13333 48.63333 421.1 40.0 C 425.56665 32.333332 432.71664 26.883331 442.55 23.65 C 451.81668 20.616667 461.78336 20.050001 472.45 21.95 C 483.41666 23.883333 492.84998 28.05 500.75 34.45 C 505.41666 38.25 507.8333 41.833332 508.0 45.2 Z M 521.1 240.7 L 521.25 238.95 L 521.3 242.45 L 521.1 240.7 Z M 335.25 437.0 C 336.58334 428.1 336.75 417.75 335.75 405.95 C 334.81668 394.68332 332.21667 378.7333 327.95 358.1 C 326.81668 352.53333 324.33334 344.8 320.5 334.9 C 315.19998 321.2 312.05 312.80002 311.05 309.7 C 304.88333 291.2 304.05 276.36667 308.55 265.2 C 308.78333 270.36667 310.38333 274.85 313.35 278.65 C 319.11667 286.05 329.91666 290.81665 345.75 292.95 L 346.25 292.9 C 350.38333 301.36667 356.46667 307.91666 364.5 312.55 C 374.66666 318.41666 388.26666 321.36667 405.3 321.4 C 417.1 321.4 432.58334 319.83334 451.75 316.7 C 474.55002 312.96667 487.9167 310.93335 491.85 310.6 L 513.55 309.75 C 511.85 312.21667 509.9167 314.61667 507.75 316.95 L 507.75 313.95 C 502.41666 330.81668 498.81665 342.55002 496.95 349.15 C 492.85 363.81665 489.95 376.96664 488.25 388.6 C 483.65 419.96667 487.15 444.58334 498.75 462.45 L 496.55 462.2 L 494.75 461.95 C 493.11667 460.11667 491.03333 458.25 488.5 456.35 L 481.55 451.5 C 481.65 452.46667 481.53333 454.18335 481.2 456.65 C 480.86667 458.98334 480.78333 460.7 480.95 461.8 L 474.85 455.55 L 468.8 448.85 C 468.73334 449.81665 468.26666 451.4 467.4 453.6 C 466.53333 455.76666 466.05 457.4 465.95 458.5 C 464.35 456.93332 462.2 454.5833 459.5 451.45 L 453.05 444.35 C 449.38333 448.35 447.18335 453.06668 446.45 458.5 L 439.25 450.15 C 436.31668 446.78333 434.1667 443.75 432.8 441.05 C 430.36667 444.15 428.51666 448.98334 427.25 455.55 C 422.31668 448.44998 418.9167 443.2333 417.05 439.9 C 415.35 442.2 413.63333 445.23334 411.9 449.0 L 407.8 458.6 C 405.03333 455.33334 402.65 450.61667 400.65 444.45 C 398.55 446.55002 396.94998 448.30002 395.85 449.7 C 394.25 451.76666 393.08334 453.8333 392.35 455.9 L 388.7 448.5 C 387.06668 445.43332 385.43335 443.05 383.8 441.35 C 381.66666 443.38333 379.76666 446.06665 378.1 449.4 C 376.93335 451.66666 375.68335 454.69998 374.35 458.5 C 373.28333 454.1 372.31665 449.30002 371.45 444.1 C 369.58334 445.4 367.35 447.28333 364.75 449.75 L 358.55 455.8 C 358.48334 453.96664 358.01666 451.76666 357.15 449.2 L 354.95 442.9 C 352.28336 445.53333 348.45 449.71667 343.45 455.45 C 344.11667 454.18332 344.63333 452.41666 345.0 450.15 L 346.0 444.8 C 343.36667 446.66666 341.03333 448.1 339.0 449.1 C 336.4 450.4 333.93332 451.18332 331.6 451.45 C 333.23334 447.15 334.45 442.3333 335.25 437.0 Z M 331.6 451.45 L 330.75 453.45 L 331.25 451.45 L 331.6 451.45 Z"/>
			<path fill="#494A4A" stroke-linecap="round" stroke-linejoin="round" d="M 815.15 198.05 C 817.2833 213.68333 817.51666 229.83333 815.85 246.5 C 815.2167 252.93333 814.3334 259.25 813.2 265.45 C 804.2 265.31668 797.9667 264.46667 794.5 262.9 C 788.39996 260.1 785.9666 254.45001 787.2 245.95 L 791.2 241.45 C 769.0333 250.35 742.76666 255.90001 712.4 258.1 C 694.36664 259.46667 680.19995 258.88333 669.9 256.35 C 667.3 255.68333 664.25 254.65 660.75 253.25 L 652.15 249.75 C 645.35004 247.18333 639.1667 246.33333 633.6 247.2 C 629.6667 247.8 623.9167 249.55 616.35 252.45 C 608.51666 255.48334 602.68335 257.35 598.85 258.05 L 592.25 259.15 C 589.7167 256.85 587.2167 254.93333 584.75 253.4 C 577.11664 248.56667 569.86664 247.25 563.0 249.45 C 558.0 251.08333 553.7833 254.33333 550.35 259.2 C 539.31665 257.36667 529.61664 253.95 521.25 248.95 L 520.75 248.4 C 520.75 245.63333 520.86664 243.06667 521.1 240.7 C 519.86664 231.13333 517.7833 222.46666 514.85 214.7 C 511.15 204.83333 506.21667 196.8 500.05 190.6 C 492.75 183.2 484.96667 178.68333 476.7 177.05 L 455.4 176.25 C 456.13333 175.95 456.95 175.7 457.85 175.5 L 462.25 174.2 C 464.05002 173.63333 465.56668 173.23334 466.8 173.0 L 476.7 171.25 C 480.66666 170.75 484.06665 170.78334 486.9 171.35 C 491.36667 172.25 495.41666 174.16667 499.05 177.1 C 500.71664 178.46666 503.51666 181.31665 507.45 185.65 C 510.71664 189.21666 513.5833 191.7 516.05 193.1 C 519.65 195.16667 523.8334 196.01666 528.6 195.65 C 534.89996 195.21666 543.55 192.61667 554.55 187.85 C 566.0833 182.88333 574.6833 180.05 580.35 179.35 C 585.64996 178.68333 591.0333 179.28333 596.5 181.15 C 600.2 182.38333 604.8667 184.61667 610.5 187.85 C 617.0333 191.61667 621.43335 193.98334 623.7 194.95 C 628.6 197.11667 633.14996 198.1 637.35 197.9 L 639.3 197.7 L 641.1 199.45 L 643.75 196.75 C 646.5833 195.98334 650.05 194.88333 654.15 193.45 C 661.3167 190.88333 667.4167 189.81667 672.45 190.25 C 678.1167 190.71666 685.0667 192.09999 693.3 194.4 L 713.85 200.15 C 722.81665 202.31667 736.01666 205.3 753.45 209.1 L 786.95 216.6 L 792.7 217.95 C 795.76666 214.18333 797.68335 211.58333 798.45 210.15 L 801.05 206.85 C 804.7833 202.28334 809.1667 199.31667 814.2 197.95 L 815.15 198.05 Z M 521.25 238.95 L 521.1 240.7 L 521.3 242.45 L 521.25 238.95 Z M 824.85 266.15 C 825.98334 259.08334 826.65 251.83334 826.85 244.4 C 827.2833 229.59999 826.31665 214.48332 823.95 199.05 L 827.7 199.45 C 832.5 202.55 835.86664 208.45 837.8 217.15 C 839.6666 225.38333 839.81665 233.86667 838.25 242.6 C 836.55 251.83334 833.3 258.75 828.5 263.35 L 824.85 266.15 Z M 454.05 176.3 L 453.7 176.3 L 453.75 175.95 L 454.05 176.3 Z M 301.8 453.0 C 308.83334 449.93332 318.35 445.4 330.35 439.4 L 335.25 437.0 C 334.44998 442.33334 333.2333 447.15002 331.6 451.45 C 333.93335 451.18332 336.40002 450.4 339.0 449.1 C 341.03333 448.1 343.36667 446.66666 346.0 444.8 L 345.0 450.15 C 344.63333 452.41666 344.11667 454.18332 343.45 455.45 C 348.45 449.71667 352.28336 445.53333 354.95 442.9 L 357.15 449.2 C 358.01666 451.76666 358.48334 453.96664 358.55 455.8 L 364.75 449.75 C 367.35 447.28333 369.58334 445.4 371.45 444.1 C 372.31668 449.3 373.28336 454.09998 374.35 458.5 C 375.68335 454.69998 376.93335 451.66666 378.1 449.4 C 379.76666 446.06665 381.66666 443.38333 383.8 441.35 C 385.43332 443.05 387.06665 445.43332 388.7 448.5 L 392.35 455.9 C 393.08334 453.8333 394.25 451.76666 395.85 449.7 C 396.95 448.30002 398.55002 446.55002 400.65 444.45 C 402.65 450.61667 405.03333 455.33334 407.8 458.6 L 411.9 449.0 C 413.63333 445.23334 415.35 442.2 417.05 439.9 C 418.91666 443.23334 422.31665 448.45 427.25 455.55 C 428.51666 448.98334 430.36667 444.15 432.8 441.05 C 434.16666 443.75 436.31665 446.78333 439.25 450.15 L 446.45 458.5 C 447.18332 453.06668 449.3833 448.35 453.05 444.35 L 459.5 451.45 C 462.19998 454.58334 464.34998 456.93335 465.95 458.5 C 466.05002 457.4 466.53336 455.76666 467.4 453.6 C 468.26666 451.4 468.73334 449.81665 468.8 448.85 L 474.85 455.55 L 480.95 461.8 C 480.78336 460.69998 480.8667 458.9833 481.2 456.65 C 481.53336 454.18335 481.65002 452.46667 481.55 451.5 L 488.5 456.35 C 491.03333 458.25 493.11667 460.11667 494.75 461.95 L 496.55 462.2 C 509.48334 480.5 516.60004 501.51666 517.9 525.25 C 519.2 549.61664 517.73334 570.1666 513.5 586.9 C 507.73334 609.5667 496.81668 626.5667 480.75 637.9 L 481.85 636.5 C 473.35 640.3333 457.55002 647.85 434.45 659.05 C 414.58334 668.65 398.6667 675.98334 386.7 681.05 C 361.86667 691.55 335.86667 699.75 308.7 705.65 C 279.9 711.9167 251.65 715.18335 223.95 715.45 C 160.58333 716.01666 107.783325 701.3833 65.55 671.55 C 46.88333 658.3833 31.43333 639.7333 19.2 615.6 C 7.166666 591.8 0.7833319 567.81665 0.05 543.65 C -0.6833333 517.68335 5.466667 496.46667 18.5 480.0 C 33.233334 461.4 55.35 451.06665 84.85 449.0 C 98.75 448.03333 109.65 447.76666 117.55 448.2 C 130.28333 448.86667 140.74998 451.18332 148.95 455.15 C 147.68333 457.98334 162.40001 461.05002 193.1 464.35 C 223.3 467.58334 242.2 468.43335 249.8 466.9 L 273.2 462.15 C 282.03336 460.15 289.63336 457.9 296.0 455.4 L 301.8 453.0 Z M 330.75 453.45 L 331.6 451.45 L 331.25 451.45 L 330.75 453.45 Z"/>
			<path fill="#BCBCBC" stroke-linecap="round" stroke-linejoin="round" d="M 592.25 259.15 L 593.9 260.65 C 598.5 265.01666 601.68335 270.86667 603.45 278.2 C 604.55 282.80002 604.9667 287.40002 604.7 292.0 L 604.0 294.4 L 604.5 294.55 L 603.7 299.35 C 602.1333 306.71667 599.11664 312.63333 594.65 317.1 C 589.7167 322.03333 583.6 324.48334 576.3 324.45 C 571.2 324.41666 565.26666 322.68332 558.5 319.25 L 542.3 309.65 L 542.25 308.95 L 517.05 309.7 L 513.55 309.75 L 491.85 310.6 C 487.9167 310.93335 474.55002 312.96667 451.75 316.7 C 432.58334 319.83334 417.1 321.4 405.3 321.4 C 388.26666 321.36667 374.66666 318.41666 364.5 312.55 C 356.46667 307.91666 350.38333 301.36667 346.25 292.9 C 344.01666 288.43335 342.35 283.45 341.25 277.95 C 340.78333 275.95 340.68332 273.43335 340.95 270.4 C 341.51666 264.36667 343.73334 258.83334 347.6 253.8 C 351.23334 249.06667 356.76666 245.41667 364.2 242.85 C 367.9 241.58333 371.25 240.78333 374.25 240.45 C 382.58334 237.55 392.31668 237.06667 403.45 239.0 C 407.95 239.76666 412.68335 240.93333 417.65 242.5 C 423.0833 244.2 430.2333 246.88333 439.1 250.55 C 449.06665 254.65001 455.71664 257.28336 459.05 258.45 C 464.68332 260.45 471.86667 262.2 480.6 263.7 L 502.45 267.45 L 521.6 269.5 L 523.85 269.65 C 533.14996 270.38333 539.7833 271.65 543.75 273.45 C 545.48334 267.71667 547.68335 262.96667 550.35 259.2 C 553.7833 254.33333 558.0 251.08333 563.0 249.45 C 569.86664 247.25 577.11664 248.56667 584.75 253.4 C 587.2167 254.93333 589.7167 256.85 592.25 259.15 Z"/>
			<path fill="#ADACAC" stroke-linecap="round" stroke-linejoin="round" d="M 308.8 259.15 C 309.5 253.98332 311.31668 248.24998 314.25 241.95 L 314.3 241.45 C 337.46664 205.61667 358.96664 193.06667 378.8 203.8 C 382.1 205.6 385.6667 208.66667 389.5 213.0 C 393.5 217.56667 396.78333 222.43333 399.35 227.6 C 401.38333 231.73334 402.75 235.53334 403.45 239.0 C 392.31668 237.06667 382.58334 237.55 374.25 240.45 C 371.25 240.78333 367.9 241.58333 364.2 242.85 C 356.76666 245.41667 351.23334 249.06667 347.6 253.8 C 343.73334 258.83334 341.51666 264.36667 340.95 270.4 C 340.68332 273.43335 340.78333 275.95 341.25 277.95 C 342.35 283.45 344.01666 288.43335 346.25 292.9 L 345.75 292.95 C 329.91666 290.81668 319.11667 286.05002 313.35 278.65 C 310.38333 274.85 308.78333 270.36667 308.55 265.2 C 308.44998 263.26666 308.53333 261.25 308.8 259.15 Z"/>
			<path fill="none" stroke="#979696" stroke-width="5.0" stroke-linecap="round" stroke-linejoin="round" d="M 604.7 292.0 L 601.2 290.95"/>
			<path fill="none" stroke="#979696" stroke-width="5.0" stroke-linecap="round" stroke-linejoin="round" d="M 584.75 253.4 L 639.3 197.7"/>
		</g>
	</g>
</svg>
