<?xml version="1.0" encoding="utf-8"?>
<!DOCTYPE svg PUBLIC "-//W3C//DTD SVG 1.1//EN" "http://www.w3.org/Graphics/SVG/1.1/DTD/svg11.dtd">
<svg version="1.1" xmlns="http://www.w3.org/2000/svg" xmlns:xlink="http://www.w3.org/1999/xlink" xmlns:ev="http://www.w3.org/2001/xml-events" width="550.0px" height="400.0px" overflow="visible" viewBox="0.0 0.0 550.0 400.0" enable-background="new 0.0 0.0 550.0 400.0">
	<defs/>
	<rect width="550.0px" height="400.0px" x="0px" y="0px" fill="#FFFFFF"/>
	<g>
		<g transform="matrix(1.0 0.0 0.0 1.0 0.0 0.0)">
			<path fill="#525152" stroke-linecap="round" stroke-linejoin="round" d="M 542.9 93.4 L 540.3 96.6 C 534.6666 103.3 529.0833 108.53334 523.55 112.3 C 515.15 118.0 506.28336 120.066666 496.95 118.5 L 495.95 118.35 L 495.45 118.25 L 470.75 101.6 C 467.18332 96.6 465.05 91.21667 464.35 85.45 C 463.35 77.01667 465.80002 69.75001 471.7 63.65 C 480.63333 54.38333 491.88333 45.33333 505.45 36.5 C 520.3833 26.766666 535.8833 18.833332 551.95 12.7 C 591.9167 -2.5666666 626.8167 -4.05 656.65 8.25 C 661.01666 10.05 666.61664 13.883333 673.45 19.75 C 679.8833 25.316668 686.39996 31.800001 693.0 39.2 C 708.23334 56.333336 716.4167 69.183334 717.55 77.75 C 706.05 71.816666 697.1667 67.26666 690.9 64.1 C 679.60004 58.333332 669.9 53.816666 661.8 50.55 C 638.4667 41.083332 618.51666 37.766666 601.95 40.6 C 592.81665 42.133335 584.51666 45.86667 577.05 51.8 C 571.45 56.233334 565.45 62.733334 559.05 71.3 C 552.05 81.26667 546.6667 88.63334 542.9 93.4 Z M 457.35 143.85 L 460.7 145.55 C 459.36667 148.41667 458.33334 152.43333 457.6 157.6 L 456.45 165.65 C 445.78336 167.81667 434.30002 171.03334 422.0 175.3 L 416.35 176.15 C 414.55 167.15 414.7333 158.95 416.9 151.55 C 418.86667 144.65 422.75 137.76666 428.55 130.9 C 429.81668 134.13333 432.38336 137.41667 436.25 140.75 C 441.78333 145.48334 448.81665 146.51668 457.35 143.85 Z M 529.5 367.5 C 534.36664 372.96667 538.0333 378.05002 540.5 382.75 C 543.8333 389.01666 545.55 395.41666 545.65 401.95 L 545.5 402.15 C 531.63336 402.91666 527.60004 407.68332 533.4 416.45 L 531.4 418.75 C 521.7 419.75 513.3 415.65 506.2 406.45 C 504.03336 403.68332 501.2667 399.4 497.9 393.6 L 491.9 383.7 C 505.6 378.6 518.13336 373.2 529.5 367.5 Z M 591.1 406.75 C 591.06665 405.25 591.14996 403.75 591.35 402.25 C 591.85 398.38333 593.0 394.48334 594.8 390.55 C 598.0333 383.55 603.2 376.16666 610.3 368.4 C 614.4 363.93335 620.80005 357.43335 629.5 348.9 C 636.9667 341.2 642.43335 334.21667 645.9 327.95 C 649.8 320.95 652.0833 313.6 652.75 305.9 L 652.9 301.55 C 652.9667 284.78333 646.45 265.65 633.35 244.15 C 628.7833 236.68333 622.75 227.85 615.25 217.65 L 597.45 193.55 C 606.0834 193.28333 620.0834 199.26666 639.45 211.5 C 647.81665 216.8 655.26666 222.18333 661.8 227.65 C 668.7 233.41667 673.4 238.31668 675.9 242.35 C 692.86664 269.81665 697.06665 304.49997 688.5 346.4 C 685.0333 363.26666 679.7167 379.85 672.55 396.15 C 666.05 410.95 658.95 423.5167 651.25 433.85 C 646.18335 440.68335 639.4167 444.28336 630.95 444.65 C 624.95 444.91666 619.1167 443.5833 613.45 440.65 C 611.7167 439.75 610.0 438.71667 608.3 437.55 C 600.8667 432.41666 595.7667 425.85 593.0 417.85 C 591.73334 414.18335 591.1 410.48334 591.1 406.75 Z M 486.15 385.8 C 474.91666 402.36667 465.94998 415.05002 459.25 423.85 C 447.08334 439.78333 436.1 450.75 426.3 456.75 L 426.05 456.95 C 417.18332 462.28336 409.9 464.9167 404.2 464.85 C 397.5 464.78333 394.3 460.61667 394.6 452.35 L 394.8 449.65 C 395.76666 441.18335 402.21667 431.46667 414.15 420.5 C 417.75 417.16666 426.4 410.31665 440.1 399.95 L 440.8 399.75 C 457.06668 395.41666 472.18335 390.76666 486.15 385.8 Z M 385.85 412.3 C 380.85 416.76666 374.26666 424.26666 366.1 434.8 C 356.5 447.23334 348.96667 455.36667 343.5 459.2 C 333.26666 466.43332 322.33334 472.93332 310.7 478.7 L 309.3 479.35 C 292.86667 487.38333 281.73334 490.15 275.9 487.65 L 275.2 487.3 C 277.1 472.43332 284.35 458.93332 296.95 446.8 C 301.78336 442.13333 307.85 437.21667 315.15 432.05 C 317.55 430.35 323.01666 426.68335 331.55 421.05 C 350.18332 418.58334 368.28333 415.6667 385.85 412.3 Z M 283.05 426.2 L 261.65 442.6 C 250.18333 451.3 240.15001 458.15 231.55 463.15 C 223.85 467.65 216.76668 471.03333 210.3 473.3 C 195.0 478.6 183.16667 477.58334 174.8 470.25 C 175.33334 467.94998 176.00002 465.7333 176.8 463.6 C 180.66667 453.06665 187.51668 444.6333 197.35 438.3 C 204.58333 433.66666 214.04999 429.93332 225.75 427.1 L 238.05 427.6 L 283.05 426.2 Z M 45.4 103.95 C 45.966667 100.95 46.716667 97.71667 47.65 94.25 L 47.7 94.15 L 51.85 82.4 C 53.75 76.96667 55.86667 72.45 58.2 68.85 C 65.16667 57.98333 76.350006 51.083332 91.75 48.15 C 103.85 45.850002 116.03333 46.4 128.3 49.8 C 139.66667 52.966667 150.65001 58.4 161.25 66.1 C 165.98334 69.53333 172.55 76.583336 180.95 87.25 C 188.65 97.01667 195.43333 103.56667 201.3 106.9 C 205.43333 109.26666 210.88333 110.816666 217.65 111.55 L 237.8 110.95 C 245.0 109.75 251.06667 107.683334 256.0 104.75 C 260.19998 102.25 263.24997 99.316666 265.15 95.95 C 256.41666 115.316666 243.2 132.28334 225.5 146.85 C 205.59999 163.21666 184.26666 172.83333 161.5 175.7 C 145.86667 177.66666 127.35 175.38333 105.95 168.85 C 91.316666 164.38333 79.1 159.03333 69.3 152.8 C 64.433334 149.73334 60.166668 146.45 56.5 142.95 C 49.233334 136.05 45.11667 128.53334 44.15 120.4 C 43.65 116.13333 44.06667 110.649994 45.4 103.95 Z M 241.3 274.3 L 236.4 273.15 C 229.93333 271.71667 224.88333 270.25 221.25 268.75 L 221.05 268.65 C 210.61667 264.28333 208.25 258.3333 213.95 250.8 L 215.4 249.0 C 220.63333 243.16667 230.08333 241.90001 243.75 245.2 C 253.51666 247.53333 262.01666 250.95 269.25 255.45 L 268.5 255.9 C 259.16666 262.03333 250.09999 268.16666 241.3 274.3 Z M 294.65 239.2 C 292.18335 237.83333 289.6667 236.16666 287.1 234.2 C 284.83334 232.46667 282.81668 230.73334 281.05 229.0 C 278.81668 226.8 277.00003 224.6 275.6 222.4 C 274.1 220.03334 273.2 217.83334 272.9 215.8 C 272.73334 214.76666 272.71667 213.76666 272.85 212.8 C 272.98334 211.93333 273.23334 211.1 273.6 210.3 C 274.76666 207.83334 277.13333 205.8 280.7 204.2 C 282.83334 203.23334 285.4167 202.41667 288.45 201.75 C 293.28336 200.71666 300.96667 202.7 311.5 207.7 C 317.03333 210.36667 323.4 213.8 330.6 218.0 C 318.9 224.53334 306.91666 231.6 294.65 239.2 Z M 368.4 198.05 L 365.5 195.75 C 362.69998 193.38333 360.21664 190.95 358.05 188.45 C 355.65 185.65 353.78333 182.91666 352.45 180.25 C 351.65 178.61667 351.05 177.01666 350.65 175.45 C 349.78333 172.25 349.71667 169.11667 350.45 166.05 L 350.95 164.3 C 359.31668 164.03333 368.93335 166.63333 379.8 172.1 C 383.63333 174.06667 388.23334 176.68333 393.6 179.95 L 399.8 183.8 C 389.8 187.93333 379.3333 192.68333 368.4 198.05 Z"/>
			<path fill="#8D8C8C" stroke-linecap="round" stroke-linejoin="round" d="M 470.75 101.6 L 495.45 118.25 L 496.2 118.75 L 495.95 118.35 L 496.95 118.5 C 506.28336 120.066666 515.15 118.0 523.55 112.3 C 529.0833 108.53333 534.6666 103.299995 540.3 96.6 L 543.35 95.65 C 546.14996 100.85 551.8833 104.25 560.55 105.85 C 568.25 107.25 577.35 107.11667 587.85 105.45 C 597.75 103.916664 606.9 101.35 615.3 97.75 C 623.9667 94.049995 629.8334 90.11666 632.9 85.95 C 625.76666 100.38333 615.2167 113.35 601.25 124.85 C 586.98334 136.54999 572.06665 144.28333 556.5 148.05 C 551.60004 149.21667 545.68335 149.01668 538.75 147.45 C 532.0833 145.91666 525.48334 143.36665 518.95 139.8 C 512.2167 136.06667 506.63333 131.8 502.2 127.0 C 499.9 124.53333 498.05 122.05 496.65 119.55 C 494.21667 120.98333 489.78336 124.033325 483.35 128.7 C 476.68335 133.53333 471.38336 137.06667 467.45 139.3 C 463.88333 141.33334 460.51666 142.85 457.35 143.85 C 448.81665 146.51668 441.78333 145.48334 436.25 140.75 C 432.38333 137.41667 429.81665 134.13333 428.55 130.9 C 426.08334 124.63333 428.38336 118.53333 435.45 112.6 C 439.48334 109.2 444.73334 106.2 451.2 103.6 C 456.83334 101.3 462.1 99.78334 467.0 99.05 L 470.75 101.6 Z M 545.5 402.15 L 546.1 402.1 C 552.06665 401.83334 560.36664 402.28336 571.0 403.45 L 589.9 405.45 L 591.1 406.75 C 591.1 410.48334 591.73334 414.18335 593.0 417.85 C 595.76666 425.85 600.86664 432.41666 608.3 437.55 C 610.0 438.71664 611.7167 439.74997 613.45 440.65 C 603.01666 443.78333 591.7 444.5 579.5 442.8 C 564.13336 440.63333 551.7167 435.15 542.25 426.35 C 538.2167 422.61667 535.26666 419.31668 533.4 416.45 C 527.60004 407.68332 531.63336 402.91666 545.5 402.15 Z M 591.35 402.25 C 584.31665 393.91666 581.3 383.09998 582.3 369.8 C 583.26666 357.36667 587.45 345.11667 594.85 333.05 C 602.2167 320.94998 610.93335 312.0833 621.0 306.45 C 632.06665 300.28336 642.5833 299.4167 652.55 303.85 L 652.75 305.9 C 652.0833 313.6 649.8 320.95 645.9 327.95 C 642.43335 334.21667 636.9667 341.2 629.5 348.9 C 620.8 357.43335 614.39996 363.93335 610.3 368.4 C 603.2 376.16666 598.0333 383.55 594.8 390.55 C 593.0 394.48334 591.85 398.38333 591.35 402.25 Z"/>
			<path fill="#424242" stroke-linecap="round" stroke-linejoin="round" d="M 456.45 165.65 L 456.6 165.6 C 487.3 159.40001 510.51666 162.13335 526.25 173.8 C 529.9167 176.53333 533.2167 180.49998 536.15 185.7 L 536.8 186.85 C 538.7 190.41667 540.85004 195.3 543.25 201.5 L 546.3 209.25 L 550.1 218.65 C 553.0 225.08333 556.0833 230.38333 559.35 234.55 C 562.1833 238.15 565.31665 241.73332 568.75 245.3 C 571.2833 247.9 574.0 250.5 576.9 253.1 L 587.2 262.2 L 592.0 266.3 C 596.8 270.69998 600.05 274.65 601.75 278.15 C 603.85004 282.48334 604.3167 287.31668 603.15 292.65 C 597.9167 316.75 579.31665 338.41666 547.35 357.65 C 541.75 361.01666 535.8 364.3 529.5 367.5 C 518.13336 373.19998 505.60004 378.59998 491.9 383.7 L 486.15 385.8 C 472.18335 390.76666 457.06668 395.41666 440.8 399.75 L 440.1 399.95 C 422.6 404.58334 404.51666 408.7 385.85 412.3 C 368.28333 415.66666 350.18332 418.5833 331.55 421.05 L 324.15 422.0 L 283.05 426.2 L 238.05 427.6 L 225.75 427.1 C 207.08333 426.1667 191.98332 424.31668 180.45 421.55 C 172.58333 419.65 165.71666 417.3 159.85 414.5 C 147.11667 408.43332 139.11667 400.25 135.85 389.95 C 133.91667 383.81668 133.95 377.40002 135.95 370.7 C 138.55 361.86667 144.56667 352.55 154.0 342.75 C 159.5 337.01666 166.86667 330.43332 176.1 323.0 L 195.7 307.25 L 194.65 308.6 C 209.21666 297.2 224.76666 285.76666 241.3 274.3 C 250.1 268.16666 259.1667 262.03333 268.5 255.9 L 269.25 255.45 C 277.85 249.78333 286.31668 244.36665 294.65 239.2 C 306.91666 231.6 318.9 224.53334 330.6 218.0 C 341.73334 211.73334 352.61667 205.93333 363.25 200.6 L 368.4 198.05 C 379.3333 192.68333 389.8 187.93333 399.8 183.8 C 407.46664 180.6 414.86664 177.76668 422.0 175.3 C 434.30002 171.03333 445.78336 167.81665 456.45 165.65 Z"/>
			<path fill="#373535" stroke-linecap="round" stroke-linejoin="round" d="M 536.8 186.85 C 538.3 186.28334 539.9167 186.0 541.65 186.0 C 545.2167 186.0 548.2833 187.18333 550.85 189.55 C 553.38336 191.88333 554.65 194.7 554.65 198.0 C 554.65 201.33333 553.38336 204.16666 550.85 206.5 C 549.45 207.76666 547.93335 208.68333 546.3 209.25 L 543.25 201.5 C 540.85004 195.3 538.7 190.41667 536.8 186.85 Z M 568.75 245.3 C 571.2167 243.1 574.18335 242.0 577.65 242.0 C 581.2167 242.0 584.2833 243.18333 586.85 245.55 C 589.38336 247.88333 590.65 250.7 590.65 254.0 C 590.65 257.16666 589.5 259.9 587.2 262.2 L 576.9 253.1 C 574.0 250.5 571.2833 247.9 568.75 245.3 Z M 430.25 510.45 C 436.75 515.2167 443.85 518.6167 451.55 520.65 C 460.75 523.11664 468.9 522.9833 476.0 520.25 C 472.86667 525.68335 468.5 530.10004 462.9 533.5 C 457.63333 536.73334 451.78333 538.8 445.35 539.7 C 438.98334 540.56665 432.8 540.1833 426.8 538.55 C 420.73334 536.95 415.51666 534.23334 411.15 530.4 L 413.75 529.95 C 422.35 527.98334 427.85 521.48334 430.25 510.45 Z M 308.4 527.35 C 309.16666 532.61664 312.96664 538.26666 319.8 544.3 C 323.66666 547.73334 327.78333 550.51666 332.15 552.65 C 336.65 554.85004 340.56665 555.93335 343.9 555.9 C 339.86667 558.5 334.61667 559.5 328.15 558.9 C 322.18335 558.3333 316.00003 556.51666 309.6 553.45 C 303.23334 550.3833 297.81668 546.64996 293.35 542.25 C 291.58334 540.48334 290.08334 538.73334 288.85 537.0 C 291.15 537.5333 293.75 537.5333 296.65 537.0 C 301.91666 536.0333 305.8333 532.81665 308.4 527.35 Z M 195.45 511.0 C 194.61667 517.10004 195.08334 523.75006 196.85 530.95 C 199.88333 543.3833 205.61667 553.6333 214.05 561.7 C 208.68333 562.5333 202.71666 561.4667 196.15 558.5 C 189.88333 555.6667 184.18333 551.65 179.05 546.45 C 173.71667 541.0834 170.06668 535.4667 168.1 529.6 C 166.6 525.23334 166.2 521.15 166.9 517.35 L 168.65 518.8 C 178.41667 525.8667 187.35 523.2667 195.45 511.0 Z M 193.2 276.7 C 190.16666 280.1 187.96666 284.38333 186.6 289.55 C 185.3 294.35 184.5 301.78336 184.2 311.85 C 179.43333 305.78333 176.41667 299.51666 175.15 293.05 C 173.71666 285.68332 174.71666 278.36667 178.15 271.1 C 181.28334 274.9 186.3 276.76666 193.2 276.7 Z M 260.85 230.55 C 257.18335 236.61667 255.63335 242.63333 256.2 248.6 L 254.65 248.0 L 253.05 230.95 C 252.98334 227.05 253.41667 223.41667 254.35 220.05 L 254.4 221.2 C 254.93333 225.7 257.08334 228.81667 260.85 230.55 Z M 255.9 215.65 L 256.65 214.0 L 257.4 213.95 L 255.9 215.65 Z M 344.45 190.35 L 341.0 195.25 C 334.46667 204.71666 331.78336 210.4 332.95 212.3 L 332.65 212.0 C 330.28333 207.53334 330.16666 201.58334 332.3 194.15 L 335.1 185.05 C 336.1 181.51666 336.61667 178.5 336.65 176.0 L 337.0 176.0 C 336.63333 178.43333 337.26666 181.08333 338.9 183.95 C 340.3 186.38333 342.15 188.51666 344.45 190.35 Z"/>
			<path fill="#3C3C3C" stroke-linecap="round" stroke-linejoin="round" d="M 426.05 456.95 C 429.61667 470.45 431.46667 483.11667 431.6 494.95 C 431.63333 500.85 431.18332 506.01666 430.25 510.45 C 427.85 521.48334 422.35 527.98334 413.75 529.95 L 411.15 530.4 C 398.51666 531.86664 391.66666 521.55 390.6 499.45 C 390.0 486.81668 391.33334 471.11667 394.6 452.35 C 394.3 460.61667 397.5 464.78333 404.2 464.85 C 409.9 464.9167 417.18332 462.28336 426.05 456.95 Z M 310.7 478.7 C 310.76666 481.26666 310.93332 484.43332 311.2 488.2 C 311.83334 497.16666 312.08334 504.03333 311.95 508.8 C 311.71667 516.56665 310.53333 522.75 308.4 527.35 C 305.8333 532.81665 301.91666 536.0333 296.65 537.0 C 293.75 537.5333 291.15 537.5333 288.85 537.0 C 281.11667 535.1667 276.51666 527.4167 275.05 513.75 C 274.35 507.21667 274.45 499.95 275.35 491.95 L 275.9 487.65 C 281.73334 490.15 292.86667 487.38333 309.3 479.35 L 310.7 478.7 Z M 210.3 473.3 C 206.23334 488.33334 201.96667 499.78336 197.5 507.65 L 195.45 511.0 C 187.35 523.26666 178.41667 525.86664 168.65 518.8 L 166.9 517.35 C 161.3 511.85 160.61667 502.46667 164.85 489.2 C 167.48334 480.93332 171.46667 472.4 176.8 463.6 C 176.0 465.73334 175.33333 467.95 174.8 470.25 C 183.16667 477.58334 195.0 478.6 210.3 473.3 Z M 221.05 268.65 C 215.55 272.18335 208.7 274.63336 200.5 276.0 L 193.2 276.7 C 186.3 276.76666 181.28334 274.9 178.15 271.1 L 177.3 270.0 C 179.06667 265.83334 181.71666 262.68335 185.25 260.55 C 187.81667 258.94998 191.31667 257.71664 195.75 256.85 L 206.4 254.7 C 209.66667 253.83333 212.18333 252.53333 213.95 250.8 C 208.25 258.33334 210.61667 264.28333 221.05 268.65 Z M 281.05 229.0 C 276.65 231.56667 271.66666 232.53333 266.1 231.9 C 264.1 231.66667 262.35 231.21667 260.85 230.55 C 257.08334 228.81667 254.93333 225.7 254.4 221.2 L 254.35 220.05 C 254.38333 218.48334 254.9 217.01666 255.9 215.65 L 257.4 213.95 C 258.96667 212.45 261.18335 211.05 264.05 209.75 C 267.88333 208.05 273.41666 206.13333 280.65 204.0 L 280.7 204.2 C 277.13333 205.8 274.76666 207.83334 273.6 210.3 C 273.23334 211.1 272.98334 211.93333 272.85 212.8 C 272.71667 213.76666 272.73334 214.76666 272.9 215.8 C 273.2 217.83334 274.1 220.03334 275.6 222.4 C 277.0 224.59999 278.81665 226.79999 281.05 229.0 Z M 365.5 195.75 L 365.65 196.0 C 360.01666 196.90001 354.6 196.05 349.4 193.45 C 347.56665 192.55 345.91666 191.51668 344.45 190.35 C 342.15 188.51668 340.3 186.38335 338.9 183.95 C 337.26666 181.08333 336.63333 178.43333 337.0 176.0 C 337.13333 174.93333 337.46667 173.91667 338.0 172.95 C 339.9 169.31667 344.05 167.01666 350.45 166.05 C 349.71667 169.11667 349.78333 172.25 350.65 175.45 C 351.05 177.01666 351.65 178.61667 352.45 180.25 C 353.78336 182.91667 355.65002 185.65001 358.05 188.45 C 360.21664 190.95 362.69998 193.38333 365.5 195.75 Z"/>
			<path fill="#5F5F5F" stroke-linecap="round" stroke-linejoin="round" d="M 159.85 414.5 L 160.85 416.35 C 157.58333 421.01666 153.18332 424.81665 147.65 427.75 C 142.38333 430.55002 136.65 432.28336 130.45 432.95 C 124.21667 433.58334 118.26667 433.08334 112.6 431.45 C 106.63333 429.71667 101.63333 426.9 97.6 423.0 C 102.166664 420.96667 105.45 417.65 107.45 413.05 C 110.28333 406.61667 110.4 398.26666 107.8 388.0 C 106.566666 383.16666 104.86666 378.36667 102.7 373.6 L 115.95 370.5 C 125.88334 367.93332 131.95001 366.91666 134.15 367.45 L 135.95 370.7 C 133.95 377.4 133.91667 383.81665 135.85 389.95 C 139.11667 400.25 147.11667 408.43332 159.85 414.5 Z M 8.45 179.6 C 4.383333 174.3 2.1833332 168.48334 1.85 162.15 C 1.4833333 154.71666 3.716667 146.86667 8.55 138.6 C 12.716667 131.43333 18.466667 124.53333 25.8 117.9 C 32.2 112.1 38.733334 107.45 45.4 103.95 C 44.06667 110.65 43.65 116.13334 44.15 120.4 C 45.116665 128.53334 49.23333 136.05 56.5 142.95 C 60.166668 146.45 64.433334 149.73334 69.3 152.8 C 68.433334 158.5 66.55 164.2 63.65 169.9 C 60.75 175.56667 57.283333 180.35 53.25 184.25 L 50.8 186.45 C 45.166664 191.08333 39.333332 193.43333 33.3 193.5 C 26.433332 193.59999 19.816666 190.74998 13.45 184.95 C 11.55 183.21667 9.883333 181.43335 8.45 179.6 Z"/>
			<path fill="#767576" stroke-linecap="round" stroke-linejoin="round" d="M 97.6 423.0 C 94.76666 424.19998 91.48333 424.93332 87.75 425.2 C 79.85 425.80002 72.416664 424.08334 65.45 420.05 C 59.116665 416.41666 53.683334 411.18332 49.15 404.35 C 44.81667 397.81665 41.833336 390.68332 40.2 382.95 C 38.5 375.11667 38.433334 367.78333 40.0 360.95 L 44.4 358.45 L 46.75 358.9 C 56.350002 360.66666 64.66667 359.43332 71.7 355.2 C 76.13333 352.53336 79.7 348.98334 82.4 344.55 C 86.86667 348.58334 91.16667 353.81668 95.3 360.25 C 98.166664 364.68332 100.63333 369.13333 102.7 373.6 C 104.86666 378.36667 106.566666 383.16666 107.8 388.0 C 110.4 398.26666 110.28333 406.61667 107.45 413.05 C 105.45 417.65 102.166664 420.96667 97.6 423.0 Z M 11.0 242.1 C 5.633333 236.3 2.183333 227.71667 0.65 216.35 C -0.2166667 209.61667 -0.2166667 202.88333 0.65 196.15 C 1.4833333 189.48332 3.0333333 183.88333 5.3 179.35 L 8.45 179.6 C 9.883333 181.43333 11.55 183.21666 13.45 184.95 C 19.816666 190.75 26.433332 193.6 33.3 193.5 C 39.333332 193.43333 45.166664 191.08333 50.8 186.45 L 53.25 184.25 C 55.783333 189.55 57.183334 196.33334 57.45 204.6 C 57.65 211.0 57.133335 217.09999 55.9 222.9 C 55.333332 225.43333 54.649998 227.91667 53.85 230.35 C 50.883335 239.08333 46.633335 245.13333 41.1 248.5 C 34.733334 252.40001 27.25 252.18335 18.65 247.85 C 15.75 246.41667 13.2 244.5 11.0 242.1 Z"/>
			<path fill="#999898" stroke-linecap="round" stroke-linejoin="round" d="M 44.4 358.45 C 30.633333 355.38333 20.283333 348.3333 13.35 337.3 C 6.383333 326.16666 4.0999994 313.19998 6.5 298.4 L 9.85 298.15 C 11.85 301.41666 14.300001 304.15 17.2 306.35 C 23.233334 310.98334 30.95 312.96667 40.35 312.3 C 55.916668 311.23334 66.05 304.86667 70.75 293.2 L 74.15 292.9 C 80.55 298.93335 84.71667 306.21667 86.65 314.75 C 88.51666 322.81668 88.11666 330.56668 85.45 338.0 C 84.61666 340.36667 83.6 342.55 82.4 344.55 C 79.7 348.98334 76.13333 352.53336 71.7 355.2 C 64.666664 359.43332 56.35 360.66666 46.75 358.9 L 44.4 358.45 Z"/>
			<path fill="#929191" stroke-linecap="round" stroke-linejoin="round" d="M 9.85 298.15 C 8.150001 295.35 6.783334 292.1667 5.75 288.6 C 3.75 281.6667 3.1 273.9167 3.8 265.35 C 4.5 257.31668 6.25 249.83334 9.05 242.9 L 11.0 242.1 C 13.200001 244.5 15.750001 246.41667 18.65 247.85 C 27.25 252.18333 34.733334 252.4 41.1 248.5 C 46.633335 245.13333 50.883335 239.08333 53.85 230.35 C 54.649998 227.91667 55.333332 225.43333 55.9 222.9 L 58.45 221.8 C 62.716667 229.36667 66.25 237.71667 69.05 246.85 C 72.28333 257.45 73.85 267.13333 73.75 275.9 C 73.683334 282.56665 72.683334 288.3333 70.75 293.2 C 66.05 304.86667 55.916668 311.23334 40.35 312.3 C 30.949999 312.96664 23.233334 310.9833 17.2 306.35 C 14.3 304.15 11.85 301.41666 9.85 298.15 Z"/>
		</g>
	</g>
</svg>
