<?xml version="1.0" encoding="utf-8"?>
<!DOCTYPE svg PUBLIC "-//W3C//DTD SVG 1.1//EN" "http://www.w3.org/Graphics/SVG/1.1/DTD/svg11.dtd">
<svg version="1.1" xmlns="http://www.w3.org/2000/svg" xmlns:xlink="http://www.w3.org/1999/xlink" xmlns:ev="http://www.w3.org/2001/xml-events" width="550.0px" height="400.0px" overflow="visible" viewBox="0.0 0.0 550.0 400.0" enable-background="new 0.0 0.0 550.0 400.0">
	<defs/>
	<rect width="550.0px" height="400.0px" x="0px" y="0px" fill="#FFFFFF"/>
	<g>
		<g transform="matrix(1.0 0.0 0.0 1.0 0.0 0.0)">
			<path fill="#545253" stroke-linecap="round" stroke-linejoin="round" d="M 332.35 114.35 C 328.05 107.316666 325.15 97.88333 323.65 86.05 C 321.31665 67.78333 320.7333 54.699997 321.9 46.8 C 323.3333 36.933334 327.78333 26.75 335.25 16.25 L 335.95 15.45 L 338.9 11.65 L 339.15 10.85 C 338.88333 9.483334 338.3 8.066667 337.4 6.6 L 334.75 2.85 C 338.58334 1.55 344.11667 0.76666665 351.35 0.5 L 368.5 0.2 C 382.83334 -0.50000006 393.9167 0.65000004 401.75 3.65 C 400.71667 5.883333 398.73334 8.049999 395.8 10.15 C 400.4 22.216667 403.98334 32.416668 406.55 40.75 C 408.51666 47.149998 409.88333 52.449997 410.65 56.65 C 413.68335 73.35 412.33334 89.23333 406.6 104.3 C 404.5 109.73333 402.83334 113.51666 401.6 115.65 C 399.6 119.083336 396.9 122.13334 393.5 124.8 L 392.9 125.05 L 377.75 127.6 L 362.5 129.45 C 350.33334 130.21667 340.9167 126.11668 334.25 117.15 L 332.35 114.35 Z M 324.6 214.3 C 330.86667 220.3 336.28333 228.2 340.85 238.0 C 345.28333 247.59999 347.9 256.84998 348.7 265.75 C 349.43332 274.15 349.65 285.3333 349.35 299.3 C 348.98334 316.43332 348.88333 327.63333 349.05 332.9 C 349.58334 351.53333 350.28336 365.36667 351.15 374.4 C 352.55 389.66666 355.03333 403.26666 358.6 415.2 C 362.06665 426.93332 365.18332 438.44998 367.95 449.75 L 371.85 461.75 C 373.55 466.85 374.43332 470.93335 374.5 474.0 C 374.63333 479.9 372.63333 483.98334 368.5 486.25 C 366.06668 487.61667 361.61667 489.25 355.15 491.15 L 353.8 490.85 C 351.53333 488.9167 349.1 487.13336 346.5 485.5 C 341.36667 482.23334 335.58334 479.48334 329.15 477.25 C 326.55 476.35 322.76666 475.26666 317.8 474.0 L 301.65 470.05 C 293.01666 468.05 285.63333 465.48334 279.5 462.35 C 272.9 458.98334 266.61667 454.4 260.65 448.6 C 257.28333 445.3 253.06667 441.5833 248.0 437.45 L 238.85 430.25 L 216.5 412.6 C 212.59999 409.26666 209.38333 405.61667 206.85 401.65 C 200.91667 392.38333 198.68333 381.4 200.15 368.7 C 200.84999 362.63333 202.61665 354.56665 205.45 344.5 C 209.18333 331.4 211.41667 323.18332 212.15 319.85 L 213.15 318.15 C 215.11667 313.61667 217.21667 307.9 219.45 301.0 L 225.05 283.55 C 229.35 271.05 232.26668 259.69998 233.8 249.5 L 234.65 242.15 C 235.88333 227.88333 234.36667 213.83333 230.1 200.0 L 223.25 179.0 L 221.6 173.7 C 219.8 167.86667 218.46667 162.81667 217.6 158.55 C 214.36667 143.18333 214.88333 128.83333 219.15 115.5 L 218.5 116.2 L 219.2 114.45 L 220.5 112.2 C 221.63333 110.333336 222.73334 108.850006 223.8 107.75 C 225.23334 110.28333 227.01666 112.45 229.15 114.25 L 230.9 112.5 L 232.5 110.85 L 239.25 125.5 L 240.15 127.75 C 242.45 130.84999 244.61667 135.45 246.65 141.55 C 248.95 148.38333 250.88333 153.13333 252.45 155.8 C 258.61667 166.3 265.1667 174.78334 272.1 181.25 L 289.3 198.6 C 296.33334 205.86667 302.23334 211.43333 307.0 215.3 L 316.75 223.25 C 320.55002 226.18333 323.96667 228.48334 327.0 230.15 L 327.15 230.25 C 328.75 228.65001 329.11667 226.48334 328.25 223.75 C 327.61667 221.78334 326.51666 219.88335 324.95 218.05 L 324.5 217.5 L 324.5 214.2 L 324.6 214.3 Z M 225.05 73.8 L 222.5 74.85 L 223.15 74.15 C 221.34999 73.35 219.15 72.666664 216.55 72.1 C 217.48334 70.03333 218.95 68.45 220.95 67.35 L 218.2 66.5 L 215.3 66.05 C 217.53333 64.55 219.81665 63.31667 222.15 62.35 L 219.2 61.35 C 220.56667 60.116665 222.53334 59.0 225.1 58.0 C 223.90001 57.3 223.05 56.866665 222.55 56.7 C 223.41667 55.833336 223.95 55.100002 224.15 54.5 L 224.55 52.3 C 231.78333 46.266666 238.58333 42.216667 244.95 40.15 C 252.45001 37.683334 260.28336 37.61667 268.45 39.95 C 276.18332 42.15 282.5833 46.0 287.65 51.5 C 292.78333 57.100002 295.96667 63.833336 297.2 71.7 C 297.76666 75.166664 298.41666 78.2 299.15 80.8 C 299.21667 82.23333 297.95 84.73333 295.35 88.3 L 295.05 88.35 L 289.8 88.85 L 288.9 87.7 L 285.8 84.35 C 279.4 78.38333 270.3 74.299995 258.5 72.1 C 245.66667 69.7 234.51668 70.26666 225.05 73.8 Z M 296.15 93.35 L 298.05 92.9 L 300.3 92.25 C 301.86667 93.65 303.15 95.683334 304.15 98.35 C 305.21667 101.28333 305.4167 103.833336 304.75 106.0 C 304.25 107.73333 303.28333 109.0 301.85 109.8 L 298.3 110.1 L 293.4 110.25 C 292.2 110.049995 290.38336 109.299995 287.95 108.0 L 286.35 107.2 C 288.55 106.6 290.51666 105.316666 292.25 103.35 C 294.08334 101.21667 295.28336 98.700005 295.85 95.8 L 296.15 93.35 Z"/>
			<path fill="#B5B5B5" stroke-linecap="round" stroke-linejoin="round" d="M 406.55 40.75 L 407.15 40.15 C 414.15 42.05 418.28333 45.75 419.55 51.25 C 420.35 54.55 420.58334 60.333332 420.25 68.6 C 420.48334 73.03333 421.5 79.48333 423.3 87.95 C 425.16666 96.583336 426.23334 103.03334 426.5 107.3 C 427.23334 118.36667 427.25 126.066666 426.55 130.4 C 425.21664 138.56667 421.41666 145.16667 415.15 150.2 C 413.38333 151.63333 410.2 152.23334 405.6 152.0 L 395.45 150.9 L 386.0 150.5 L 376.55 150.85 L 367.75 150.0 L 359.1 148.8 C 353.63333 148.6 349.33334 149.20001 346.2 150.6 C 342.33334 152.86667 338.38333 154.76666 334.35 156.3 L 334.35 156.9 C 333.51666 159.46666 333.19998 161.04999 333.4 161.65 L 333.85 163.55 C 333.55 166.51666 332.75 170.36667 331.45 175.1 C 329.75 181.16667 328.73334 185.0 328.4 186.6 C 326.3333 196.43333 325.15 202.7 324.85 205.4 C 324.51666 208.53334 324.43332 211.50002 324.6 214.3 L 324.5 214.2 L 324.5 217.5 L 324.95 218.05 C 325.28336 220.21667 325.80002 222.26668 326.5 224.2 L 327.0 230.15 C 323.96667 228.48332 320.55002 226.18332 316.75 223.25 L 307.0 215.3 C 302.23334 211.43333 296.33334 205.86667 289.3 198.6 L 272.1 181.25 C 265.1667 174.78334 258.6167 166.3 252.45 155.8 C 250.88333 153.13333 248.95 148.38333 246.65 141.55 C 244.61667 135.45 242.45 130.84999 240.15 127.75 L 239.25 125.5 L 239.7 123.25 C 243.86667 128.68333 249.41667 131.11667 256.35 130.55 C 264.25 129.88333 270.96667 125.799995 276.5 118.3 L 280.8 112.6 L 283.95 106.4 L 283.5 107.55 L 284.15 107.6 C 284.51666 107.26666 284.86667 107.21666 285.2 107.45 L 286.35 107.2 L 287.95 108.0 C 290.38333 109.299995 292.19998 110.049995 293.4 110.25 L 298.3 110.1 L 301.85 109.8 L 305.75 109.5 C 318.98334 108.799995 327.56668 110.68333 331.5 115.15 L 332.35 114.35 L 334.25 117.15 C 340.91666 126.11667 350.3333 130.21667 362.5 129.45 L 377.75 127.6 L 392.9 125.05 L 393.5 124.8 C 396.9 122.13334 399.6 119.083336 401.6 115.65 C 402.83334 113.51666 404.5 109.73333 406.6 104.3 C 412.33334 89.23333 413.68335 73.35 410.65 56.65 C 409.88333 52.45 408.51666 47.15 406.55 40.75 Z M 283.95 106.4 L 284.0 106.4 Z M 346.5 485.5 C 346.56668 496.16666 346.81668 507.0 347.25 518.0 L 347.5 527.15 L 326.15 530.45 C 323.88333 522.81665 321.91666 513.4333 320.25 502.3 C 318.65 491.3 317.8333 481.86667 317.8 474.0 C 322.76666 475.26666 326.55 476.35 329.15 477.25 C 335.5833 479.48334 341.36664 482.23334 346.5 485.5 Z M 248.0 437.45 L 248.6 438.9 C 253.26668 449.3 256.7 464.55 258.9 484.65 L 261.2 509.15 C 262.1 518.7167 262.96667 526.15 263.8 531.45 L 244.5 532.15 C 241.3 526.18335 237.65001 516.0834 233.55 501.85 L 225.0 470.65 L 220.3 454.35 L 215.8 438.0 L 212.3 426.3 C 210.7 421.26666 209.55 417.36667 208.85 414.6 C 207.58333 409.6 206.9 406.36667 206.8 404.9 C 206.7 403.73334 206.71666 402.65 206.85 401.65 C 209.38333 405.61667 212.59999 409.26666 216.5 412.6 L 238.85 430.25 L 248.0 437.45 Z M 169.9 186.6 C 171.93333 185.06667 174.15001 183.06667 176.55 180.6 C 180.65 176.33333 184.56667 171.48332 188.3 166.05 C 190.9 162.25 193.51666 156.88333 196.15 149.95 C 199.68333 140.68333 201.88333 135.11667 202.75 133.25 C 204.95 128.65 206.96666 125.033325 208.8 122.4 C 211.73334 118.23334 214.73334 115.5 217.8 114.2 L 219.2 114.45 L 218.5 116.2 L 219.15 115.5 C 214.88333 128.83333 214.36667 143.18333 217.6 158.55 C 218.46666 162.81667 219.79999 167.86667 221.6 173.7 C 214.0 172.1 208.65 171.25 205.55 171.15 C 199.71667 170.98332 193.78334 172.34999 187.75 175.25 C 186.51666 175.84999 181.84999 178.81665 173.75 184.15 L 169.9 186.6 Z"/>
			<path fill="#6E6F6F" stroke-linecap="round" stroke-linejoin="round" d="M 233.8 249.5 C 226.6 253.43333 217.76668 256.48334 207.3 258.65 C 199.7 260.25 192.96666 260.76666 187.1 260.2 C 183.73334 259.86667 180.15001 259.11667 176.35 257.95 C 176.55 256.51666 176.8 255.13333 177.1 253.8 L 178.4 248.85 L 181.45 245.65 C 186.58333 239.55 189.15 232.16667 189.15 223.5 C 189.15 214.83333 186.58333 207.45 181.45 201.35 C 176.28333 195.21666 170.06667 192.15 162.8 192.15 L 159.35 192.4 C 153.55 193.23332 148.5 196.21666 144.2 201.35 C 139.06667 207.45 136.5 214.83333 136.5 223.5 C 136.5 229.76666 137.85 235.36667 140.55 240.3 L 138.65 243.5 C 135.21666 237.76666 133.5 231.18333 133.5 223.75 C 133.5 214.18333 136.33333 206.01666 142.0 199.25 C 147.66667 192.51666 154.51668 189.15 162.55 189.15 L 164.65 189.25 C 166.25 188.55 168.0 187.66667 169.9 186.6 L 173.75 184.15 C 181.84999 178.81667 186.51666 175.85 187.75 175.25 C 193.78334 172.34999 199.71667 170.98332 205.55 171.15 C 208.65 171.25 214.0 172.1 221.6 173.7 L 223.25 179.0 L 230.1 200.0 C 234.36667 213.83333 235.88333 227.88333 234.65 242.15 L 233.8 249.5 Z"/>
			<path fill="#C3C0C1" stroke-linecap="round" stroke-linejoin="round" d="M 176.35 257.95 C 175.55 262.68332 175.1 267.86664 175.0 273.5 C 174.86667 281.43332 175.48334 291.78333 176.85 304.55 C 177.75 313.01666 179.65 325.08334 182.55 340.75 C 185.55 357.15 187.51666 369.18332 188.45 376.85 C 192.31667 409.25 189.45 442.11667 179.85 475.45 C 178.05 481.71667 177.83333 491.68335 179.2 505.35 C 180.66666 519.9167 183.31665 529.5 187.15 534.1 L 123.8 532.1 C 122.5 525.0333 122.6 513.68335 124.1 498.05 C 125.666664 482.11667 127.816666 471.1667 130.55 465.2 C 139.01666 446.73334 143.65 426.5 144.45 404.5 C 145.15 384.93332 142.81667 364.19998 137.45 342.3 C 134.88333 331.8 133.1 319.81665 132.1 306.35 C 131.5 298.78333 131.0 286.65 130.6 269.95 C 130.46666 264.18332 131.78333 258.06665 134.55 251.6 C 135.61667 249.1 136.98334 246.40001 138.65 243.5 L 140.55 240.3 L 143.9 235.05 L 142.5 236.15 L 143.8 234.85 C 142.8 233.38333 143.58333 232.25 146.15 231.45 C 148.41667 230.75 150.48334 230.58333 152.35 230.95 C 153.55 233.48334 155.96667 234.88333 159.6 235.15 L 165.15 235.15 L 168.8 234.85 L 177.55 235.7 L 186.0 236.65 L 180.5 242.9 C 179.7 244.76666 179.0 246.75 178.4 248.85 L 177.1 253.8 C 176.8 255.13333 176.55 256.51666 176.35 257.95 Z"/>
			<path fill="#CDC9CA" stroke-linecap="round" stroke-linejoin="round" d="M 239.7 123.25 C 238.9 122.21667 238.15 121.066666 237.45 119.8 C 232.98334 111.700005 229.95001 103.88334 228.35 96.35 L 225.05 73.8 C 234.51666 70.26667 245.66666 69.700005 258.5 72.1 C 270.30002 74.3 279.40002 78.38334 285.8 84.35 L 288.5 88.15 L 288.9 87.7 L 289.8 88.85 L 295.05 88.35 C 295.81668 89.85 296.18335 91.51666 296.15 93.35 L 295.85 95.8 C 295.28333 98.700005 294.0833 101.21667 292.25 103.35 C 290.51666 105.316666 288.55 106.6 286.35 107.2 L 285.2 107.45 C 284.86667 107.21667 284.51666 107.26667 284.15 107.6 L 283.5 107.55 L 284.0 106.4 L 280.8 112.6 L 276.5 118.3 C 270.96667 125.8 264.25 129.88333 256.35 130.55 C 249.41667 131.11667 243.86667 128.68333 239.7 123.25 Z M 284.0 106.3 L 283.95 106.4 L 284.0 106.3 Z"/>
			<path fill="#4F4F4F" stroke-linecap="round" stroke-linejoin="round" d="M 140.55 240.3 C 137.85 235.36667 136.5 229.76666 136.5 223.5 C 136.5 214.83333 139.06667 207.45 144.2 201.35 C 148.5 196.21666 153.55 193.23332 159.35 192.4 L 162.8 192.15 C 170.06667 192.15 176.28333 195.21666 181.45 201.35 C 186.58333 207.45 189.15 214.83333 189.15 223.5 C 189.15 232.16667 186.58333 239.55 181.45 245.65 L 178.4 248.85 C 179.0 246.75 179.7 244.76666 180.5 242.9 L 186.0 236.65 L 177.55 235.7 L 168.8 234.85 L 165.15 235.15 L 159.6 235.15 C 155.96666 234.88333 153.54999 233.48334 152.35 230.95 C 150.48334 230.58333 148.41667 230.75 146.15 231.45 C 143.58333 232.25 142.8 233.38333 143.8 234.85 L 142.5 236.15 L 143.9 235.05 L 140.55 240.3 Z"/>
			<path fill="none" stroke="#5A595A" stroke-width="3.0" stroke-linecap="round" stroke-linejoin="round" d="M 152.15 249.0 L 148.25 256.85 C 145.78334 262.75 143.95001 267.48334 142.75 271.05 C 140.95 276.35 139.7 281.26666 139.0 285.8 C 137.43333 296.1 137.15 305.51666 138.15 314.05 C 139.15 322.55 141.59999 331.63333 145.5 341.3 C 151.96666 357.3 155.5 373.25 156.1 389.15 C 156.76668 407.05 153.56668 422.94998 146.5 436.85 M 154.5 241.5 C 154.63333 242.96666 153.84999 245.46666 152.15 249.0 M 157.0 293.65 C 155.83333 310.5833 156.5 326.05 159.0 340.05 C 160.53334 348.58334 163.13335 361.4167 166.8 378.55 C 169.63333 393.68332 170.81667 406.68332 170.35 417.55 C 170.05 424.25 169.35 431.75 168.25 440.05 L 164.75 462.35 C 164.08333 466.4167 162.95 471.9167 161.35 478.85 C 160.28334 484.81665 160.21667 490.36664 161.15 495.5 M 162.5 247.5 C 159.40001 269.53333 157.56668 284.91666 157.0 293.65"/>
		</g>
	</g>
</svg>
